/* XPM */
static char *_88cfb2cb1b04f6eecfcfba346e2ab68riF0f6Yp2QN15eZo[] = {
/* columns rows colors chars-per-pixel */
"64 64 244 2 ",
"   c #010101",
".  c #0A0401",
"X  c #0C0903",
"o  c #01010A",
"O  c #0A040B",
"+  c #0A0A0A",
"@  c #060805",
"#  c #110601",
"$  c #130B01",
"%  c #120B0B",
"&  c #180A03",
"*  c #161202",
"=  c #1B1202",
"-  c #1A130A",
";  c #191407",
":  c #050511",
">  c #100D12",
",  c #161418",
"<  c #0C1319",
"1  c #2A1D0A",
"2  c #241B06",
"3  c #2E1F12",
"4  c #2C230B",
"5  c #2E290A",
"6  c #33260C",
"7  c #292415",
"8  c #392C16",
"9  c #362A17",
"0  c #3B3017",
"q  c #3A300D",
"w  c #3A3426",
"e  c #3A352F",
"r  c #423613",
"t  c #473D28",
"y  c #48401C",
"u  c #6E5812",
"i  c #7C651C",
"p  c #4D4226",
"a  c #52452B",
"s  c #524D2F",
"d  c #5B5239",
"f  c #514A36",
"g  c #6C5829",
"h  c #665938",
"j  c #7B6827",
"k  c #6B613E",
"l  c #595142",
"z  c #635A47",
"x  c #655D50",
"c  c #6B6149",
"v  c #756848",
"b  c #7E744E",
"n  c #736953",
"m  c #7D7456",
"M  c #656253",
"N  c #7E7765",
"B  c #846A26",
"V  c #86752B",
"C  c #866935",
"Z  c #8A7836",
"A  c #947B39",
"S  c #8A7A47",
"D  c #977D43",
"F  c #897A57",
"G  c #8C774D",
"H  c #867D67",
"J  c #927E63",
"K  c #97833B",
"L  c #8F853E",
"P  c #A2893E",
"I  c #9C8343",
"U  c #978646",
"Y  c #9F904C",
"T  c #8F815C",
"R  c #988859",
"E  c #938954",
"W  c #A38B4C",
"Q  c #A28847",
"!  c #A4934D",
"~  c #AB954D",
"^  c #AA974A",
"/  c #A78C55",
"(  c #A49554",
")  c #AC9452",
"_  c #A4935A",
"`  c #AB9B5C",
"'  c #A89958",
"]  c #B29C5B",
"[  c #B69A59",
"{  c #B19C4D",
"}  c #AFA55C",
"|  c #B4A25B",
" . c #BAA35C",
".. c #B8A356",
"X. c #8E8768",
"o. c #988C63",
"O. c #9E9468",
"+. c #9D9471",
"@. c #AA9563",
"#. c #A69A64",
"$. c #A69B6D",
"%. c #A89969",
"&. c #B69C66",
"*. c #A59877",
"=. c #B39D79",
"-. c #A88E6E",
";. c #ADA064",
":. c #B3A464",
">. c #BDA562",
",. c #BCAA63",
"<. c #B2A369",
"1. c #BDAB6C",
"2. c #B7A866",
"3. c #BDB16A",
"4. c #ACA576",
"5. c #BAAD74",
"6. c #BBAB79",
"7. c #B5A873",
"8. c #BDB376",
"9. c #C3AA5B",
"0. c #CBB15C",
"q. c #C2AB64",
"w. c #C3AC6B",
"e. c #CAAD6D",
"r. c #C2A567",
"t. c #C4B26D",
"y. c #CAB36C",
"u. c #CBB668",
"i. c #D5BD6C",
"p. c #D3B864",
"a. c #C3AF74",
"s. c #C4AC7B",
"d. c #C4B374",
"f. c #CBB671",
"g. c #C3B971",
"h. c #CDBA75",
"j. c #C6B57B",
"k. c #CCBB7C",
"l. c #C7B87B",
"z. c #D3BC75",
"x. c #D3BC7A",
"c. c #D6BA79",
"v. c #CBC47D",
"b. c #DBC373",
"n. c #D5C37C",
"m. c #DAC37C",
"M. c #DCCA7C",
"N. c #D5C677",
"B. c #DDC26B",
"V. c #E2C66F",
"C. c #E2CA7C",
"Z. c #E5CB78",
"A. c #ECD27C",
"S. c #B4A684",
"D. c #B9AC87",
"F. c #BDB18D",
"G. c #BFB285",
"H. c #B1AA8A",
"J. c #CEBD83",
"K. c #C6BB8B",
"L. c #CABB8B",
"P. c #C6B785",
"I. c #D6BD82",
"U. c #C7B893",
"Y. c #C9B48D",
"T. c #CCC286",
"R. c #D3C383",
"E. c #DCC482",
"W. c #D4CA84",
"Q. c #DCCB83",
"!. c #D4C58A",
"~. c #DBCB8B",
"^. c #D8C88B",
"/. c #DCD389",
"(. c #CCC197",
"). c #D3C492",
"_. c #DBCC92",
"`. c #D6C897",
"'. c #DBD293",
"]. c #DDD49C",
"[. c #E3CC84",
"{. c #E4CC8B",
"}. c #E7CA87",
"|. c #E4D385",
" X c #E9D286",
".X c #E5D28C",
"XX c #EBD48C",
"oX c #E4DB8E",
"OX c #EEDA8C",
"+X c #F2D98A",
"@X c #E7CE95",
"#X c #E4D292",
"$X c #ECD592",
"%X c #E5DB93",
"&X c #EDDB93",
"*X c #E3D599",
"=X c #ECDC9C",
"-X c #E8D79C",
";X c #F3DD94",
":X c #F2DD9A",
">X c #F3D795",
",X c #F4E18C",
"<X c #EDE39B",
"1X c #EDE496",
"2X c #F4E294",
"3X c #F3E39C",
"4X c #FAE39B",
"5X c #F4EB9B",
"6X c #FDEB9D",
"7X c #F9E895",
"8X c #FCF39D",
"9X c #FAF59F",
"0X c #EEE48F",
"qX c #DACBA5",
"wX c #D9D1AC",
"eX c #EADBA3",
"rX c #E3D3AA",
"tX c #E6DAA7",
"yX c #F5DDA3",
"uX c #EAD6B3",
"iX c #EDE3A3",
"pX c #EAE2A9",
"aX c #F2E3A3",
"sX c #FCE4A2",
"dX c #F6ECA4",
"fX c #FDECA3",
"gX c #FCECAB",
"hX c #F6E6AA",
"jX c #FDF3A4",
"kX c #FFF4AB",
"lX c #FFFBAC",
"zX c #FFFAA5",
"xX c #ECE7B6",
"cX c #F5ECBB",
"vX c #F7E9B4",
"bX c #FEF3B3",
"nX c #FFFBB4",
"mX c #FDF3BB",
"MX c #FFFDBA",
"NX c #F6F0B8",
"BX c #FFFDC3",
"VX c #FFFFCC",
"CX c #FCF5C2",
"ZX c #FFFFD1",
/* pixels */
"                                                                                                                                ",
"                                                                                                                                ",
"                                                                                                                                ",
"                                                                                                                                ",
"                                                                                                                                ",
"                                                                                                                                ",
"                                                                                                                                ",
"                                                                                                                                ",
"                                                                                                                                ",
"                                                                              @                                                 ",
"                                                @ @ @ @ @ @     + @ o                                                           ",
"                                                                                                                                ",
"                                                            @ @                                                                 ",
"                                                @ @ @           @                                                               ",
"                                                        @ @ @ @                                                                 ",
"                                                  X ; 7 w t f l z l f w 7 $                                                     ",
"o o                           X       .     . X r v o.K.).!.eXL.rXqXuXU.`.F v 6 . $ .   @   o o                                 ",
"o o                   o                   = h $.).pXbXJ.W ) ) Q W / &.&.I.vXvXL.$.q $         <                                 ",
"o o                 o           X $     a S.U.$.#.;._.d.>.{.XX4XE.E.@Xx.Z d.I.eXJ.rXb 5 *   @                                   ",
"o o               o       @ X . . . 4 m F.(.G.7.!.#.1.x.m.E.z.[.$Xw.[.>X! y.) 2._ R cXwXs     7                                 ",
"o               o o       .     . r F U.U.6.6.J.aXd.) f.n.f.Q.Q.z.I z.m...z.y.z.h.1.S ).cXb 2         +       @                 ",
"o                   o O O     . r %.rXL.6._._.1..X.Xt.n.h.y..Xh.Q.z.4Xu.{ 9.u.9.3XQ.{._ #.tXT .       @       O                 ",
"                o o o O     * 8 R P.yX-Xk.w.h.m.q.h.Q.XX|.|.XXn.Q.M.&X|.;X7XC.P u.4Xy.W 1.R.j.G - .           o                 ",
"                : o o O     9 v s.x.h.r.y.Q.m.q.u...Q.2XfXfX&X4XkXnXfX;XOX X+XC.P  .}.E.) I ' P.0 -     .       o o             ",
"                ,   O ,   # n D.1.E.[.q.q.C.OXb.m.u u.lX.X;X3XnXkXnX.Xf.[.m.4X}.XXB Q [ c.r.A @.U.w .     >   , o o o           ",
"                        X d S.P.` :X}.nXb.u.M. X7XOXjXkXkXfXQ.h.1.( W ) ) sXc.$X}.c.) &.e.[ e.S S.*.2 $         o o o           ",
"                  + .   1 X.L.j.$Xm.[.OX9.m.^ N. X6X2X6XfXQ.h.y.d.j.-Xa.' j W D I.$X}.e.[ c.E.s.F U.d $   X ,   o o o o         ",
"                  +   X p R a.R.q.,.kX XM. Xi.6XjX6XjXkX[.h.$X#XhX^.( 1.W Q r.D f.@XyX}.) e.E.hX_ o.S.$   X     o o o o         ",
"                      4 b 6.R.&X{..X| E.&XN.kX2X6X2XfXQ.y..X:X$XbXd.k.E.e.E.D i r.sX}.sXr.I x.k.:.g L.y   .     o o o o         ",
"                      8 %.-X&X XsXgX2.Q.L j  .jXkXkX&XE.gXbX~.=XE.t.~.( I Z y.E.r.}.>XsXm.w.q.Q ] j %.o.*   + + o o o o         ",
"                    * s 6.3X0X|.fXQ.Q.=X:.,.Z n.fXfXn..XgXE.] ) ,./.~ w.K Q q.r.e. .gX$X.X&X....t.:.5.K.5       o o o o       . ",
"                    4 m L.%X0X8XlXkXkX<Xn.| ! ~ N.2X$XgX#X~.hXU [.N.[.q.[.:X[.c.e.q.XX;X;Xu.z.u...>.^.G.p   X   o o o o         ",
"                    d *.pXdX7X9XlX1XkXjXN.M.&Xn.q..X:Xh.yXR.J.( :XfXfXfXsXm.h.>X .Q C. XlXZ.p.i.0.[ [ s.v &   .                 ",
"                . . z 4.].%X0X5XzXlXlX5XQ.M..X;X&XQ.#Xh.aX~._.R.sXMXfXn.y.w.w.x.A B MXZ.V.Z.,XZ.V.9.) &.F 1 .                   ",
"                .   n D.]./.8X9X5XjX1XoXjX3XQ.Q.x.] {.~.bXgX-X^.n.z.y.h.E.m.z.E.q.i 9.;X7XA.V.A.A.u.[ @.-.6 .                 o ",
"                    m F.`.W.jXzX9X9X5X5XdX<XQ.E.{.1.=Xh.#XmXbX=Xn.m..X3X$Xz.z.$Xy.z.B 7X+Xb.0.A.B.p.e.&.=.1 . X               o ",
"                X   N H.`.v.5X5XjX5XlXjXg.3..X2X.Xk.bX=X-XaXk.2.,.>.| ) ,.Q.[.y.z.}.i +XA.V.0.Z.0.0.y.7.S.1 . .               o ",
"                +   N S.tX^.jX8XzX%XlXnXW.~.bXnXBX=XhX#XR.j.8.~.nX$Xz.y.x.[.x.) q.Q ..;X7X+Xi.0.p.0.e.j.D.8 .                 o ",
"                .   n *.cX*XkXzXlXoX%XjXnXMXMXbXgXaXaXgXaXW.j.#Xh.h.&X3Xf.[ >.f.i q.MX+XC.+XA.9.p.0.z._.=.8 X                 o ",
"                .   x X.cX'.3X1X%Xv.} 2.W.W.k.!.j._.l.j.k.1.2.d.n.n.Q.h. .>.[ B ~ 4X[.[.4XC.i.b.9.u.E.eXo.2   .               o ",
"                % . w H F.pX~.dXdX<X<X/.'.^.;.8.j.-X*XeX^.R.' ! ! ] ! ) >.Q i A OX4X X[.[.z.z.z...u.R.`.F $ .                   ",
"                    - H D.mX*X3XdX/.nXnX'.'.T.7.8.mXVXBX'.W.1.1.h.h.| ] y.~ K  .m.[.[.m.m.z.y.z.y.,.l.L.t =   X                 ",
"                O % . c F ).` L 8.g.iXiXl.K.K.4.8.tXpX_.k.#XR.,.2.x.y.f.XXt.K ^  X X;X[.}.>Xc.m.m.1.).$.4 $   @                 ",
"                  % . l *.vXiXt.3.dXnXiXNXNXpXBX`.o.S ` :.` ' 2.! y. .) 4XfX:X6X Xz.}.y.c.XX[ [ 1.d.].h 9                       ",
"                  %   1 b 6.!.( ' <XhXiXmXNXxXZX4.tXCX].~.gX&XU E.sXf.V [.fX;X}.:Xm.XXc.XX>X) Q D J.*.4 3   > o               . ",
"                      # h $.*Xk.` T.iXmXNXNXVXCX4.$.K.).T.2.:.U y.$X>.u m.fX4X[.m.y.m.E.}.c.C B U L.h = .     O o           . . ",
"o             o o . # . q G j.^.( 8.T.pXNXxXCXxXxX7.O.S U ` x.] :XbXw.u y.OXOXOX[.[.$X:X{.[ A D 6.-.r = . O o o o o             ",
"                  . X   X c O.)._ ~.5.^.VXmXxXVXVXNXVXmXBXMXkX] w..X,.i  X Xm.M.[.OXXX$Xw.C C / U.a 1 X   > o o o               ",
"                      .   - M F.).a.' ;.-XmXBXhX_.BXbXaXbXMXR.3XZ V B  .OXOX2XM.2X[.#Xk.C g -.qXz w % . @                       ",
"                          @ e H L.J./ j.1.^.gX~.U hXaXgXdXg.g.~.dXlX5XnX8XN.|.|.fXh.&.U S =.Y.n e ,     @     @                 ",
"                @           , w R <.^.%.R.1.2.^.R.3X=XkXMXh.:.h.dX&X&X&XjXlX0XQ.t.:._ G R U.-.3 -       @     @                 ",
"                @     @       $ r E $.CX7.` l._ :.g.MX<XkXjXoXnX.XQ.MXn.n.dXY Z Y _ C $.xXJ & 9 X                               ",
"                @     @ @       $ r O.O.tXP.#.6.8.k.=X' W.MXoX! k.w.h.! ( k.' ( _ R L.(.v 9 1 # . @ @ @                         ",
"                                  = * X.+.(.xXP.#._.l.2.' } <Xt.a.a.S <.5.E %.U G rXU.p 2 2 # $                                 ",
"                                    . = n X.S.(.xXcX<.).d.;.-X` _.@X@.@.R S (.rX*.v 6 = 7 -                                     ",
"                  @ @             @   * * 7 M H *.qX`.tX(.mXBX<.P.Y.rX(.qXuX+.k q 4 1 *     . .           @                     ",
"                                    o @   X - 2 f z m +.S.F.U.U.U.D.*.F c a 8 2 = $ X                                           ",
"                                o o o o     . % $ - 7 w p a a a a t 0 6 1 2 $ . $ .           o                                 ",
"                                o : : o o o         X $ & $ $ $ = $ $ $ $ $ X                 o                                 ",
"                                o o : o o o o o o             . $ X . . X X                                                     ",
"                                o o o o o o o o                                                                                 ",
"                                                o           o o                 @ @                                             ",
"                                                            o                                                                   ",
"                                                    o o o o o o     o o o o o o                                                 "
};
