/* XPM */
static char *_5804386c37b40c9b4e4022216a788f0YVTbsZAeYupiaoAY[] = {
/* columns rows colors chars-per-pixel */
"64 64 188 2 ",
"   c None",
".  c #AF8B01",
"X  c #AB870A",
"o  c #AC8A0B",
"O  c #B28E03",
"+  c #B18B0C",
"@  c #B59105",
"#  c #BB9504",
"$  c #BE9904",
"%  c #B6930C",
"&  c #B9950A",
"*  c #BD9A0B",
"=  c #B08910",
"-  c #B69413",
";  c #B89714",
":  c #BC9811",
">  c #B5961A",
",  c #B6991B",
"<  c #BE9C1B",
"1  c #C39D05",
"2  c #C39D0E",
"3  c #C39D12",
"4  c #C7A105",
"5  c #CCA404",
"6  c #CFA803",
"7  c #C6A00F",
"8  c #CDA40B",
"9  c #C7A80F",
"0  c #CEA90C",
"q  c #D1A704",
"w  c #D8A702",
"e  c #D4AA01",
"r  c #D9AE05",
"t  c #D3A70B",
"y  c #D3AB0B",
"u  c #DAAE0B",
"i  c #D6B006",
"p  c #DAB007",
"a  c #DCB20B",
"s  c #C6A114",
"d  c #CBA513",
"f  c #CDA915",
"g  c #C5A01A",
"h  c #CDA71C",
"j  c #CCA91A",
"k  c #D0A616",
"l  c #D4AC13",
"z  c #D8AE12",
"x  c #D4AD1B",
"c  c #D6B214",
"v  c #DBB414",
"b  c #D6B11A",
"n  c #DBB51C",
"m  c #DDB81E",
"M  c #E0B60E",
"N  c #E3B90F",
"B  c #E2B611",
"V  c #E5BB13",
"C  c #E9BE16",
"Z  c #E4BC1F",
"A  c #E9BE19",
"S  c #D2AE20",
"D  c #D6B321",
"F  c #DBB623",
"G  c #DDBA24",
"H  c #DDBB2B",
"J  c #E2BB22",
"K  c #E1BB2A",
"L  c #E2BE30",
"P  c #EAC117",
"I  c #E5C218",
"U  c #ECC31A",
"Y  c #F1C71E",
"T  c #F2C81E",
"R  c #DFC12D",
"E  c #E6C226",
"W  c #EBC324",
"Q  c #E7C22A",
"!  c #ECC62A",
"~  c #EECA2A",
"^  c #F1C522",
"/  c #F5CB23",
"(  c #F9CF25",
")  c #F4CC2A",
"_  c #F9CF2F",
"`  c #FDD327",
"'  c #F7D12A",
"]  c #FED42A",
"[  c #E6C534",
"{  c #E9C531",
"}  c #EDCA33",
"|  c #E7C63B",
" . c #E9C73E",
".. c #EDCC3C",
"X. c #F3CF33",
"o. c #F6D335",
"O. c #FCD533",
"+. c #F6D43C",
"@. c #FCD53A",
"#. c #FCD83D",
"$. c #E9C641",
"%. c #EDCA44",
"&. c #EDCD4A",
"*. c #EFD349",
"=. c #FAD642",
"-. c #FDDB46",
";. c #FEDA46",
":. c #FEDB46",
">. c #FEDA47",
",. c #FEDA44",
"<. c #FEDC46",
"1. c #FCD943",
"2. c #F3D54B",
"3. c #FFDB49",
"4. c #FEDB49",
"5. c #FEDC49",
"6. c #FDDC4A",
"7. c #FEDC4A",
"8. c #FFD94D",
"9. c #FEDB4C",
"0. c #FEDD4C",
"q. c #FDDD4E",
"w. c #FEDC4E",
"e. c #FEDD4E",
"r. c #FFDD4F",
"t. c #FCDA4C",
"y. c #F2D450",
"u. c #F7D955",
"i. c #FEDD50",
"p. c #FFDC51",
"a. c #FDDE50",
"s. c #FFDD53",
"d. c #FEDD53",
"f. c #FDDE53",
"g. c #FEDE52",
"h. c #FEDE53",
"j. c #FFDE53",
"k. c #FBDF57",
"l. c #FDDD54",
"z. c #FEDD54",
"x. c #FEDD55",
"c. c #FEDE54",
"v. c #FEDD56",
"b. c #FFDD57",
"n. c #FDDE56",
"m. c #FDDE57",
"M. c #FEDE57",
"N. c #FADB53",
"B. c #FFDB5A",
"V. c #FBDD5B",
"C. c #F8DF5B",
"Z. c #FBDE5A",
"A. c #FEDD58",
"S. c #FEDC59",
"D. c #FCDE59",
"F. c #FCDD5A",
"G. c #FDDD5A",
"H. c #FDDC5B",
"J. c #FDDF5A",
"K. c #FBDD5D",
"L. c #F9DF5C",
"P. c #FBDE5D",
"I. c #FBDD5F",
"U. c #F9DF5F",
"Y. c #FADE5F",
"T. c #FCDD5C",
"R. c #FEDE5D",
"E. c #FBDD5B",
"W. c #FCE052",
"Q. c #F8E05B",
"!. c #F8E05D",
"~. c #F7DF63",
"^. c #F9DD61",
"/. c #F9DD63",
"(. c #FBDD63",
"). c #FDDC61",
"_. c #FCDF61",
"`. c #FCDD63",
"'. c #F9DD64",
"]. c #F8DF65",
"[. c #F9DD67",
"{. c #F9DE66",
"}. c #FBDA60",
"|. c #F7DE69",
" X c #FBDB68",
".X c #F8DF68",
"XX c #FCDB6C",
"oX c #F6E063",
/* pixels */
"                                                    oX.X{.).F.n.n.T.).(.|.{.                                                    ",
"                                             XL.T.n.n.F.n.n.d.d.n.n.d.d.n.n.F.F.V.{.                                            ",
"                                      XX).F.n.n.d.d.d.4.;.;.1.1.1.1.;.;.7.w.d.d.d.n.F.L.(.                                      ",
"                                  L.F.n.W.d.8.1.@.O.O.] ] ] ] ] ] ] ] ] ] ] O.#.;.w.n.n.n.L.{.                                  ",
"                              {.F.F.d.7.1.@.] ] ] ] ] ] ] ] ] ] ] ] ] ] ] ] ] ] ] ] O.#.7.d.n.F.(.                              ",
"                            Q.n.d.4.#.O.] ] ] ] ] ] ] ] ] ] ] ] ] ] ] ] ] ] ] ] ] ] ] ] O.@.<.d.n.F.                            ",
"                        (.k.d.8.@.] ] ] ] ] ] ] ] ] ] ] ] ] ] ] ] ] ] ] ] ] ] ] ] ] ] ] ] ] ] @.4.d.V.).                        ",
"                      L.n.d.#.] ] ] ] ] ] ] ] ] ] ] ] ] ] ] ] ] ] ] ] ] ] ] ] ] ] ] ] ] ] ] ] ] ] #.w.B.T.                      ",
"                    L.d.;.O.] ] ] ] ] ] ] ] ] ] ] ] ] ' ) ) W W W ~ ) ) ' ] ] ] ] ] ] ] ] ] ] ] ] ] O.;.n.F.                    ",
"                  L.d.#.O.] ] ] ] ] ] ] ] ] ] ' ~ m f 2 & @ O O O O @ & 2 l J ) ] ] ] ] ] ] ] ] ] ] ] ] 1.w.F.                  ",
"                V.w.#.] ] ] ] ] ] ] ] ] ] / m 3 O . O @ $ 1 1 1 1 1 1 $ @ O . @ d J ' ] ] ] ] ] ] ] ] ] ] @.w.F.                ",
"              L.w.@.] ` ` ] ] ] ] ] ] ) b & . @ 1 5 q e e e e e e e e e e e 5 1 @ O * G ' ] ] ] ] ] ] ] ` ] @.d.L.              ",
"            V.d.O.] ] ] ] ] ] ] ] ] J & O # 5 e e e e e e e e e e e e e e e e e e 5 $ O 2 Q ] ] ] ] ] ] ] ] ] @.w.L.            ",
"          !.d.@.] ] ] ] ] ] ] ] ) d O $ 5 e e e e e e e e e e e e e e e e e e e e e e 5 # @ b ' ] ] ] ] ] ] ] ] @.d.~.          ",
"          F.#.] ] ] ] @.    o.! * O 4 e e e e e e e e e e e e e e e e e e e e e e e e e e 1 O d ) ] ] ] ] ] ] ] ] #.F.          ",
"        T.1.] ] ] ] ] +.      , & 6 e e e e e e e e e e y c m K K L K m c y e e e e e e e e 5 # 2 ) ] ] ] ] ] ] ] ] 1.L.        ",
"        8.O.] ] ] ] ] O.        f e e e e e e e e y F $.y.u.N.N.w.w.d.N.u.2. .n e e e e e e e e $ 7 ) ] ] ] ] ] ] ] O.8.        ",
"      n.@.] ] ] ] o.o.] ! >       e e e e e e e F &.t.1.O.O.] ] ` ] ] ] O.O.=.N.%.n e e e e e e e $ d ' ] ] ] ] ] ] ] @.V.      ",
"      4.] ] ` ] @.    ..s # t 0 t e e e e e y [ t.#.] ] ] ] ] ] ] ] ] ] ] ] ] ] #.2.L e e e e e e e 1 b ] ] ] ] ] ] ] ] 4.      ",
"    k.O.] ] ] O.        & q e e e e e e e y ..-.] ` ] ] ] ] ] ] ] ] ] ] ] ] ] ] ] ] -.[ q e e e e e e 1 Q ] ` ] ] ] ] ] O.k.    ",
"    -.] ] ` ] +.        d e e e q e e e y ..#.] ] ` ] ] ] ] ] ] ] ] ] ] ] ] ` ] ] ] ] =.K e e e e e e 5 d ] ] ] ] ] ] ] ] 4.    ",
"  }.@.] ] ] O.          x e e e e e e e [ #.] ] ] ] ] ] ] ] ! G F F Q ) ] ] ] ] ] ] ] ] +.c e e e e e e 1 Z ] ] ] ] ] ] ] O.V.  ",
"  8.] ] ] ] O.          f e e e e e e n =.] ] ] ] ] ] ] F - o O @ & % : D _ ] ] ] ] ] ] O.Q e e e e e e 6 0 ] ] ] ] ] ] ] ] 8.  ",
"  =.` ] ] ` ]           t e q e e e q } O.] ] ] ] ] ' g X 1 6 e w e e 5 1 k ) ] ] ] ] ] ] o.u e e e e e e 5 W ] ] ] ] ] ] ] 1.  ",
"  O.] ] ] ] ]           q e e e e e n O.` ] ] ] ] ] g + e e e e e e e e e 6 c ' ] ] ] ] ] O.v e e e e e e 6 v ] ] ] ] ] ] ` @.  ",
"u.O.] ] ] ] ]         f e e e e e e Q O.] ] ] ] ] G + e e e e e e e e e e e q T ] ] ] ) G j 2 e e e e e e e t ) ] ] ] ] ] ] O.8.",
"2.] ] ` ] ] ] +.      e e e e e e y ) ] ] ] ] ] ] 3 4 e e e e e e e e e e e e v F g - + o @ 5 e e e e e e e e ) ] ] ] ] ] ] ] =.",
"=.] ] ] ] ] ] ] D 9 e w e e e e e a O.] ] ] ] ] ! & e e e e e e e e e e e e e 5 @ & 4 5 e e e e e e e e e e e U ] ] ] ] ] ] ] o.",
"O.] ] ] ] ] O.] z e e e e e e e e v ] ] ] ] ] ] J 1 q e e e e e e e e e e e q e e e e e q e e e e e e e e e e A ] ] ] ] ] ] ] O.",
"O.] ] ] ] ] ] ` z e e e e e e e e V ] ] ] ] ] ] b 4 e e e e e e e e e e e e e e e e e e e e e e e e e e e e e V ] ] ] ] ] ] ] O.",
"] ] ] ] ] ] ] ` u e e e e e e e e V ] ] ] ] ] ] x 6 e e e e e e e e e e e e e e e e e e e e e e e e e e e e e V ] ] ] ] ] ] ] ] ",
"] ] ] ] ] ] ] ' a e e e e e e e e V ] ] ] ] ] ] x 6 e e e e e e e e e e e e e e e e e e e e e e e e e e e e e V ] ] ] ] ] ] ] ] ",
"] ] ] ] ] ] ] ] a e e e e e e e e V ] ] ] ] ] ] x q e e e e e e e e e e e e e e e e e e e e e e e e e e e e e V ] ] ] ] ] ] ] ] ",
"] ] ] ] ] ] ] ] B e e e e e e e e V ] ] ] ] ] ] m q e e e e e e e e e e e e e e e e e e e e e e e e e e e e e V ] ] ] ] ] ] ] ] ",
"] ] ] ] ] ] ] ] V e e e e e e e e N ] ] ] ] ] ] J q e e e e e e e e e e e e e e e e e e e e e e e e e e e e e V ] ] ] ] ] ] ] ] ",
"O.] ] ] ] ] ] ] P e e e e e e e e a ] ] ] ] ] ] ! t e e e e e e e e e e e e e y n y e e e e e e e e e e e e e P ] ] ] ] ] ] ] ] ",
"o.] ] ] ] ] ] ] Y e e e e e e e e a ` ] ] ] ] ] ] c e e e e e e e e e e e e e J N.2. .G c e w e e e e e e e e Y ] ] ] ] ] ] ] ] ",
"} ] ] ] ] ] ] ] / r e e e e e e e r / ] ] ] ] ] O.J e e e e e e e e e e e e e ! ] O.1.t.u.&.v e e e e e e 0 u ) ] ] ] ] ] ] ` ~ ",
"[ ] ] ] ] ] ] ] ] M e e e e e e e e U ] ] ] ] ] ] X.u e e e e e e e e e e e n @.] ] ] ] O.@.v e e e e e 0     o.] ] ] ] ] ] ] { ",
"  ] ` ] ] ] ] ] ] U e e e e e e e e a ] ] ] ] ] ` O.{ t e e e e e e e e e y ..O.] ] ] ] ] ! * e e e e e j     o.] ] ] ] ] ] _   ",
"  ) ] ] ] ] ] ] ] ( r e e e e e e e r Y ] ] ] ] ] ] =.| u e e e e e e e z ..#.] ] ] ] ] ] S $ e e e e e       +.] ] ] ] ] ] )   ",
"  E ] ] ] ] ] ] ] ] V e e e e e e e e a ' ] ] ] ] ] ] =.2.H c y q y c R 2.1.] ` ] ] ] ] ) % 6 e e e e t       o.] ] ] ] ] ] Q   ",
"  H ` ] ` ] ] ] ] ] / r e e e e e e e e V ] ] ` ] ] ] ] O.4.u.y.*.2.u.8.O.] ` ] ] ] ] ] h # e e e e e e x   +.] ] ] ] ] ] ' F   ",
"    W ] ] ] ] ] ] ] ] P e e e e e e e e q Z ] ] ] ] ] ] ] ] ] O.@.O.] ] ] ] ] ] ] ] ] K + q e e e e e e W o.] ] ] ] ] ] ] W     ",
"    G ' ] ] ] ] ] ] ] ' M e e e e e e e e 8 J ] ] ] ] ] ] ] ] ] ] ] ] ] ] ] ] ] ] ] E = 5 q e e t f f     @.O.] ] ] ] ] ` m     ",
"      ^ ] ] ] ] ] ] ] ] / p e e e e e e e e 8 x ) ] ` ] ] ] ] ] ] ] ] ] ] ] ] ] ] F o 1 e e t f               O.] ] ] ] U       ",
"      n ' ] ] ] ] ] ] ] ] T r e e e e q e e e 5 3 G ) ] ] ] ] ] ] ] ] ] ] ] ] Q < X 1 e t f                   o.] ] ] ' n       ",
"        U ] ] ] ] ] ] ] ] ] Y r e e e e e e e e q 1 3 j G ~ ) ' ] ] ' ) Q S ; o # e e 0                       o.] ] ] W         ",
"        z / ] ] ] ] ] ] ] ] ] T p e e e e e e e e e 6 1 # % % ; ; - % o o @ 1 q e e t                         @.` ] / z         ",
"          v ( ] ] ] ] ] ] ] ] ] / a e e e e e e e e e e e q q 5 5 5 6 q q e e e e t                           ] ] ' v           ",
"          f V ` ] ] ] ] ] ] ] ] ] ` C r e e e e e e e e e e e e e e e e e e e e t                           o.] ] V j           ",
"            f P ] ] ] ] ] ] ] ] ] ] ] / V r e e e e e e e e e e e e e e q e e e 0                         o.] ] I l             ",
"              t P ] ] ] ] ] ] ] ] ] ] ] ] / V p e e e e e e e e e e e e e e e e l                       o.] ` P l               ",
"                y P ] ] ] ] ] ] ] ] ] ] ] ] ] ` U V a r r e e e e e e e r a V ^ X.                    O.] ] P t                 ",
"                  t V ` ] ] ] ] ] ] ] ] ] ] ] ] ] ] ' ( / Y U U U U Y / ( ] ] ] O.                o.O.] ' C l                   ",
"                    0 B / ` ] ] ] ] ] ] ] ] ] ] ] ] ] ] ] ] ] ] ] ] ] ] ] ] ` ] ] O.        O.O.] ] ] / B t                     ",
"                      0 a U ] ] ] ] ] ] ] ] ] ] ] ] ] ] ] ] ] ] ] ] ] ] ] ] ] ] ] ] ] ] ] ] ] ] ] ` U a f                       ",
"                        f t V / ] ] ] ] ] ] ] ] ] ] ] ] ] ] ] ] ] ] ] ] ] ] ] ] ] ] ] ] ] ] ] ] / V y j                         ",
"                            0 y V / ] ] ] ] ] ] ] ] ] ] ] ] ] ] ] ] ] ] ] ] ] ] ] ] ] ] ] ] / V y t                             ",
"                              k t i V / ] ] ] ] ] ] ] ] ] ] ] ] ] ] ] ] ] ] ] ] ] ] ] ] T V u t f                               ",
"                                  f t q a C / ` ] ] ] ] ] ] ] ] ] ] ] ] ] ] ] ] ` / P a q 0 f                                   ",
"                                        0 e r a V P Y / ( ` ` ] ] ` ' ( / T P V a r e 0 j                                       ",
"                                            f t t e q r r a a a a a a r r y q e 0 f                                             ",
"                                                      t 0 0 t e e t e 0 f                                                       "
};
