/* XPM */
static char *d2d47c91836f4d9984193d61534e0f23UX6pfRPgQiqRqc0a[] = {
/* columns rows colors chars-per-pixel */
"64 64 161 2 ",
"   c None",
".  c #040303",
"X  c #090605",
"o  c #0D0906",
"O  c #080708",
"+  c #0D0C0C",
"@  c #120B07",
"#  c #120E0C",
"$  c #1A0E0A",
"%  c #14110E",
"&  c #1B110D",
"*  c #120F11",
"=  c #151213",
"-  c #1B1513",
";  c #1D1915",
":  c #181718",
">  c #1D1B19",
",  c #22130E",
"<  c #231613",
"1  c #2B1712",
"2  c #241B15",
"3  c #2A1B15",
"4  c #241D1A",
"5  c #2C1D1B",
"6  c #301713",
"7  c #321B16",
"8  c #331E1B",
"9  c #381F1C",
"0  c #2C2017",
"q  c #25211C",
"w  c #2C221C",
"e  c #302117",
"r  c #34231D",
"t  c #3A231E",
"y  c #34281E",
"u  c #3A2A1E",
"i  c #262421",
"p  c #2D2322",
"a  c #2E2924",
"s  c #2F2B29",
"d  c #332524",
"f  c #3C2522",
"g  c #342B23",
"h  c #3B2C23",
"j  c #342729",
"k  c #362A29",
"l  c #3B2C2C",
"z  c #3D3026",
"x  c #36312A",
"c  c #3C322B",
"v  c #3E2F30",
"b  c #373330",
"n  c #3C3331",
"m  c #3F3932",
"M  c #42261F",
"N  c #422623",
"B  c #442A25",
"V  c #4B2C26",
"C  c #442C2A",
"Z  c #4C2E29",
"A  c #522E26",
"S  c #512F2A",
"D  c #433225",
"F  c #4B3426",
"G  c #43342B",
"H  c #4B332B",
"J  c #47392D",
"K  c #4A3B2F",
"L  c #4B3B2E",
"P  c #4B392E",
"I  c #4E3C2F",
"U  c #4C3A2C",
"Y  c #523527",
"T  c #54322C",
"R  c #5A362D",
"E  c #523C2D",
"W  c #5C392F",
"Q  c #402F30",
"!  c #423332",
"~  c #4F3531",
"^  c #403830",
"/  c #413931",
"(  c #413A33",
")  c #473D32",
"_  c #413834",
"`  c #463D35",
"'  c #453D37",
"]  c #473F37",
"[  c #453A32",
"{  c #4B3B30",
"}  c #483C32",
"|  c #493D33",
" . c #4C3D30",
".. c #4D3D31",
"X. c #4D3E33",
"o. c #493C34",
"O. c #483D34",
"+. c #4A3F34",
"@. c #493C36",
"#. c #483E36",
"$. c #4C3D33",
"%. c #543530",
"&. c #593631",
"*. c #523E31",
"=. c #5C3932",
"-. c #603C35",
";. c #56402E",
":. c #5A412F",
">. c #4D4035",
",. c #4E4035",
"<. c #4E4336",
"1. c #4F4036",
"2. c #4A4038",
"3. c #4C4139",
"4. c #4D4239",
"5. c #4D403A",
"6. c #4D443C",
"7. c #4F453C",
"8. c #534131",
"9. c #554031",
"0. c #534234",
"q. c #564437",
"w. c #544235",
"e. c #594333",
"r. c #5A4233",
"t. c #5B4737",
"y. c #5E4634",
"u. c #5A4535",
"i. c #5E4937",
"p. c #504338",
"a. c #514338",
"s. c #504239",
"d. c #504339",
"f. c #554338",
"g. c #524539",
"h. c #51443A",
"j. c #574638",
"k. c #55463B",
"l. c #57463A",
"z. c #53473E",
"x. c #534339",
"c. c #584638",
"v. c #58473A",
"b. c #59473A",
"n. c #57493E",
"m. c #59483A",
"M. c #584B3F",
"N. c #5B4B3F",
"B. c #5D4B3E",
"V. c #5E4D3D",
"C. c #5D4C3F",
"Z. c #5C4A3B",
"A. c #644B3C",
"S. c #564C45",
"D. c #574940",
"F. c #5A4D41",
"G. c #5D4C41",
"H. c #594F48",
"J. c #5F5144",
"K. c #635144",
"L. c #695647",
/* pixels */
"                                                                                                                                ",
"                                                        x x g g c c h c                                                         ",
"                                                  m ' c a / x g c c G g x 5.d.d.                                                ",
"                                            x ' s c <.<.i / c h h z $.g _ 5.f.G z.N.                                            ",
"                                        i x x ' c g @.N.p c c h h g J p / @.<.c C.w...k H.                                      ",
"                                      b j q c ) g.w c v.g k g g g g h q c d.z ' v.8.h c f.q.                                    ",
"                                    ; i ' g g c N.g w L h 0 g g g y g 4 c L g $.U G g f.9.r.I                                   ",
"                                s > = 4 c 5.4 d { ..2 h h ; 5 0 0 3 0 4 g y g L D 0 2.u.t.J w 7.                                ",
"                              4 i k > ; w z g 2 y J < , < o @ o @ @ o o & - w D 0 a ..r.F w S.F.g.                              ",
"                            : 4 4 i n 4 2 y G w ; 3 & @ $ $ $ $ $ $ $ o X . + & 4 c J z 4 ' J.C.Z.                              ",
"                            : + 4 i c @.w > 0 e @ & < < < & $ $ $ $ $ $ & @ . . = g y > c d.C.u.G J                             ",
"                          q s i % - w c @.4 & & , < 1 , 1 7 M 8 t M 8 < $ @ o X . @ % s G L J z n.B.f.                          ",
"                          ; a c / 4 - w g y & < 7 , 1 t T T -.V Z =.=.T V 5 X X . . o 0 h y l D.K.i.t.                          ",
"                        = % > w { w.h - ; 1 e 7 3 t f Z &.T &.V V &.=.T &.T 8 & X X . + 2 g [ 9.i.r.U E                         ",
"                        a i > 2 w h D y @ < 8 t V C f Z T T S N B &.T H =.R N H ; + + X > g h D D G w.A.                        ",
"                      ; 4 g @.^ p 2 0 1 & 3 r &.%.N f C C H C l l C H C &.R f %.V - * + O ; 0 g @.G.v.*.*.                      ",
"                      = > w g h c G 0 , t r H &.Z f f l l v d l l d l g H R N T T N # > o = c / G E *.*.*.                      ",
"                      = - > 0 g g h e 8 N N &.&.Z f d l l l k l l l l l ~ R C %.T &.5 = = + p h h h z z G                       ",
"                      i k g p p w 0 < d f T T T V f d d k l j l l l k j %.R B &.H &.C = = O = w g h [ X.w.d.                    ",
"                    = > 0 h G X.v.G 5 N B &.T H C f f l l l k l l l k l %.R B &.Z T T ; : # 4 / G G P U D h                     ",
"                    # - > 4 y h G D f B V T T Z C f f l k k k k l k j k ~ R N Z Z T %.5 = = % w w w y u u y                     ",
"                    > 4 q w w d g 0 r h V T Z Z f d r k k l l l l k k k Z R N C C T H 5 = = # 2 w g g g g c                     ",
"                    4 a g [ X.{ { G r f V T T Z f r 8 j l l v l l l l l H R f C C H C 5 = = > c ..X.[ { J G                     ",
"                    > q w h z h y u h N B Z T Z f 5 5 d d k d j d d l j C T r N N C N 4 = = % w h D D D J J                     ",
"                    # - ; 2 2 5 0 0 N N f B Z V k 5 5 d f N r 5 5 d f f f N 5 k f N f ; = * + = ; 2 2 2 0 0                     ",
"                    > q a x c ) { h r f d k C C d p p j h h j d d k l l k d w d l l h 5 : * = a g g h h h h                     ",
"                    4 w g G <.v.u.J N l j k l l k l l l l k l l l Q l l k k l l l l l l 4 = - a g z h z B u                     ",
"                    > w y c @.I 9.J h d d k k k l ! ! ! ! l k l c ! l l l l l l l l C G 4 : % q 0 y y h D D                     ",
"                    = > 4 p g h h y r 5 4 5 5 5 p p p p p p k l ! ! C l k l l l l l ! Q 4 = + > 4 w w w r y                     ",
"                    > s c 7.F.C.i.G d r ; 4 4 4 4 4 4 4 4 5 w w p d 5 5 5 p 5 p d p d p > = : x c G $.G G L                     ",
"                    = 4 g [ <...w.D C r 1 6 7 6 < < < r t 9 5 < < 7 7 t 8 8 1 r N t t 5 = - = w g h z h h u                     ",
"                    % - 4 y D D D h N t t B V B d 8 r V V B f 9 8 B V Z Z V f T Z B Z f : = + > 4 0 w d g y                     ",
"                    4 4 w g g g g w f t B V Z Z N 8 f B B f f f f Z Z T T S f T T f V f = = = i g g g g g z                     ",
"                  q w g c w.a.L G h h t C Z S Z N 8 8 N N f f t f Z Z T T A t Z T N B d = = : g [ $...U U 9.*.                  ",
"                  % 2 5 y z G D h e h f B Z T Z N 5 8 N N N N f f Z Z T T Z f C C C C d = = # q g g D D J U F                   ",
"                  + @ % - 2 0 0 0 3 y t V V T S B 5 9 f N B B f f S T T R Z 9 f f f f 4 * * o = ; 2 2 0 0 0 y                   ",
"                  i q i g g g g h w r t V V T S N 5 f N B B B N f Z T W W T 9 f j l l 5 * * + i h c c G J U L                   ",
"                  > q g G c z h z h N t B V T T N 5 f N N B B f t B T =.R V 8 5 p d l d = = % w D D J e.:.;.E                   ",
"                  = ; 0 g h g y y e B t B B Z T N 5 d f N B V N t B T R T V 8 5 4 d j r = = # 0 h h D E U F F                   ",
"                  + + % - > ; 2 2 2 t f B V Z Z B 5 r t N Z Z f 9 B T R T T t 8 < 2 5 5 = = * ; 2 4 w y u r h                   ",
"                  > 4 i g l h c G 0 h t B V T Z C 5 8 r f V V t 9 B T T T T r N 7 1 1 8 = = = s c [ w.e.E E u.                  ",
"                  % - > 4 w g h y e H t B Z R Z C 5 r f N Z H t r V T T T T t V V V V f = = = q h G J E Y F F                   ",
"                  + @ - > 2 y w y 5 B t N V R T V 8 r f V V S N r N V T Z S r B V Z T B - = + > p g h D D B B                   ",
"                  % % % - > 4 0 0 2 r r N V T Z Z r f N V Z T N f V S T T T r B S V T V ; = + = > 4 0 w y r g                   ",
"                  - > q s g G G G y f t B Z T V Z r f B V T R N f H T T R T t V Z B T V ; = - s G ' d.K.L.A.Z.                  ",
"                  # % - q y g g g y N t B V R T V r t N V T R f N Z T W R T t N N B R N = = = q g z $.q.u.q.U                   ",
"                  @ % - 4 w g g h r f t B H R T V 8 r f V T R N t Z T R T T t N N V T f = = + - 0 0 g G D D h                   ",
"                  ; - ; > > 2 w y w r r B V R A f 5 r t B V V t r B T T Z B 8 d f V V r = * o # - > 2 5 0 0 0                   ",
"                  a j c @.G v.i.u.D f 5 d k f k r 5 5 d d f d 5 w d f f f f d p d h f w : = + 4 l o.{ f.A.t.E                   ",
"                  = 4 0 g G J D D r f d p d p d d j d j j d p p p p p j j j l j j d d d 4 = + > w g z G ;.;.F                   ",
"                  + % - < 3 0 0 y 5 d d d k d k l j j j k g p p p p d j j j l j j d d d 4 = + = 4 0 y h z D D                   ",
"                  # # % % ; ; 2 3 2 4 5 p p p p d p p p p p w p p d d j j j j j j d d d 4 = + ; w y y y h h D                   ",
"                  > 4 w g c c c h e 5 ; > 2 < 2 4 4 4 4 4 4 w p p p p d d d d d j d p p 4 = + i G G *.r.A.A.A.                  ",
"                  = - 2 w y y r e 5 t < < 1 1 < < & - < < < 2 < < 1 1 7 r 5 < 2 < < 5 4 = * + ; w 0 h D J U F                   ",
"                  + % ; 4 3 2 0 5 5 f 8 N B V t 9 < 4 5 9 t r 9 5 t M V Y B 7 5 8 r N r = * + # 4 4 0 y u u u                   ",
"                  ; - > 2 5 4 w y r t t V V V B N 1 5 5 t t f t t B V F T R t r r r N N ; = = : 4 4 4 q 0 0 w                   ",
"                > q g h h G G ..E h N t V V V N N 1 4 5 r t t t t B V F T R r 8 8 r N f ; * = i [ $.{ { w.q.w.*.                ",
"                % % ; 2 0 g g h u y h t B B V f f < < 2 5 8 8 8 8 N V V V A 8 5 4 5 t r = # + = w y 0 0 u h u u                 ",
"                o + % - 2 3 0 y y e f                                                     = + + 4 3 < < 3 0 5 e                 ",
"                                                                                                                                ",
"                                                                                                                                ",
"                                                                                                                                ",
"                                                                                                                                ",
"                                                                                                                                "
};
