/* XPM */
static char *_06e320492fd42bc98c08e05fddf4081q7kRloTfWauJRRDP[] = {
/* columns rows colors chars-per-pixel */
"64 64 246 2 ",
"   c black",
".  c #010101",
"X  c #010100",
"o  c #040401",
"O  c #050501",
"+  c #000001",
"@  c #070701",
"#  c #242304",
"$  c #4C4A09",
"%  c #716E0D",
"&  c #8F8C10",
"*  c #A39F12",
"=  c #ACA713",
"-  c #ABA713",
";  c #A4A013",
":  c #939011",
">  c #75720D",
",  c #525009",
"<  c #2A2905",
"1  c #0B0B01",
"2  c #212004",
"3  c #63600B",
"4  c #A7A313",
"5  c #D4CE18",
"6  c #EAE41A",
"7  c #F0EA1B",
"8  c #F2EB1B",
"9  c #F2EC1B",
"0  c #F1EB1B",
"q  c #EAE41B",
"w  c #DAD519",
"e  c #B1AC14",
"r  c #706D0D",
"t  c #030301",
"y  c #262504",
"u  c #7F7C0E",
"i  c #CEC917",
"p  c #EEE81B",
"a  c #EFE91B",
"s  c #EDE71B",
"d  c #D5D018",
"f  c #908C10",
"g  c #323106",
"h  c #0F0F02",
"j  c #69670C",
"k  c #CDC817",
"l  c #D8D319",
"z  c #7D7A0E",
"x  c #181703",
"c  c #292805",
"v  c #A6A113",
"b  c #ECE61B",
"n  c #EEE71B",
"m  c #B8B315",
"M  c #3B3907",
"N  c #403E07",
"B  c #C6C116",
"V  c #D6D018",
"C  c #56540A",
"Z  c #4A4809",
"A  c #DFD919",
"S  c #5E5C0B",
"D  c #3F3D07",
"F  c #D5CF18",
"G  c #E0DA19",
"H  c #57550A",
"J  c #272605",
"K  c #C5C016",
"L  c #D9D319",
"P  c #3E3C07",
"I  c #0D0D02",
"U  c #A19D12",
"Y  c #EFE81B",
"T  c #EEE81A",
"R  c #D7D119",
"E  c #65620C",
"W  c #EBE51B",
"Q  c #E2DC19",
"!  c #BAB618",
"~  c #DAD52B",
"^  c #EEE81D",
"/  c #BEB916",
"(  c #3C3B07",
")  c #222104",
"_  c #C9C417",
"`  c #525008",
"'  c #2F2E26",
"]  c #B2B29E",
"[  c #B0AC29",
"{  c #A09C12",
"}  c #77740E",
"|  c #A9A513",
" . c #040400",
".. c #080809",
"X. c #212125",
"o. c #42400C",
"O. c #E3DD1A",
"+. c #E4DE1A",
"@. c #7B780E",
"#. c #0E0E02",
"$. c #1B1A03",
"%. c #B5B115",
"&. c #0C0C02",
"*. c #4A4808",
"=. c #E8E21A",
"-. c #57540A",
";. c #030300",
":. c #5A580A",
">. c #E7E21A",
",. c #7E7B0F",
"<. c #BAB515",
"1. c #BAB615",
"2. c #373606",
"3. c #9E9A12",
"4. c #EEE91B",
"5. c #E3DE1A",
"6. c #9A9612",
"7. c #1E1D04",
"8. c #1D1C03",
"9. c #E0DB1A",
"0. c #0D0C02",
"q. c #413F07",
"w. c #E6E11A",
"e. c #CEC818",
"r. c #514E09",
"t. c #020201",
"y. c #B2AE14",
"u. c #323006",
"i. c #7F7B0E",
"p. c #E9E41A",
"a. c #908D10",
"s. c #191803",
"d. c #020200",
"f. c #979311",
"g. c #EDE81B",
"h. c #DCD719",
"j. c #6B680C",
"k. c #090901",
"l. c #A09B13",
"z. c #F2EC1C",
"x. c #EFE91C",
"c. c #F0E91B",
"v. c #F1EA1C",
"b. c #D1CB18",
"n. c #474508",
"m. c #A49D14",
"M. c #FAEF1E",
"N. c #F4EA1E",
"B. c #F5EA1E",
"V. c #F5EB1E",
"C. c #F6EB1E",
"Z. c #F6EC1E",
"A. c #D7CF1A",
"S. c #4E4B09",
"D. c #A09913",
"F. c #FAEE1F",
"G. c #F7EB1E",
"H. c #F7EC1E",
"J. c #F6EA1E",
"K. c #F9ED1E",
"L. c #E5DB1C",
"P. c #746F0E",
"I. c #0A0A02",
"U. c #898311",
"Y. c #FAEE1E",
"T. c #F8ED1E",
"R. c #F2E71D",
"E. c #9A9313",
"W. c #6C680D",
"Q. c #BAB316",
"!. c #353306",
"~. c #484509",
"^. c #EEE41D",
"/. c #D6CD1A",
"(. c #56530A",
"). c #D9D01A",
"_. c #F8EC1E",
"`. c #EADF1C",
"'. c #7A760F",
"]. c #0E0D02",
"[. c #060601",
"{. c #A9A214",
"}. c #9F9913",
"|. c #1F1E04",
" X c #635F0C",
".X c #C1B917",
"XX c #393707",
"oX c #D3CA1A",
"OX c #DAD11B",
"+X c #59550B",
"@X c #837E10",
"#X c #EAE01C",
"$X c #7F790F",
"%X c #262505",
"&X c #D5CC1A",
"*X c #F9EE1E",
"=X c #F3E91E",
"-X c #A39C14",
";X c #6E6A0D",
":X c #C1B817",
">X c #100F02",
",X c #ADA615",
"<X c #D8CF1A",
"1X c #494609",
"2X c #2C2B05",
"3X c #CFC619",
"4X c #E4DA1C",
"5X c #DED41B",
"6X c #EBE11D",
"7X c #615D0C",
"8X c #524F0A",
"9X c #DFD51B",
"0X c #6D680D",
"qX c #4A4709",
"wX c #D2C919",
"eX c #E1D71B",
"rX c #5F5C0C",
"tX c #2F2D06",
"yX c #B1A915",
"uX c #C4BC18",
"iX c #444108",
"pX c #121102",
"aX c #DAD11A",
"sX c #E3D91C",
"dX c #2B2A05",
"fX c #8B8511",
"gX c #DAD01A",
"hX c #9C9513",
"jX c #3A3807",
"kX c #6F6A0D",
"lX c #B3AB16",
"zX c #E0D71B",
"xX c #F3E81E",
"cX c #FBEF1E",
"vX c #BDB517",
"bX c #7B760F",
"nX c #0A0A01",
"mX c #2B2905",
"MX c #55520A",
"NX c #AEA715",
"BX c #817C10",
"VX c #5D590B",
"CX c #313006",
"ZX c #0F0E02",
"AX c #060501",
"SX c white",
/* pixels */
"  .         .     .   . .   .         .   .     .             .     .   . .   .         .   .     .         .   .     .   .     ",
". .             .   . .   .         .   . .   .             .     .     .             .   . .   .         .   . .   .           ",
"              .   . .   .             . .   .             .     .   . .   .         .   .     .             .     .             ",
"            .     .   .         .   .     .                   .     .             .   . .   .         .   . .   .     .         ",
"          .   . .   .         .   . .   .             .     .   . .   .         .   . .   .             .     .     .       .   ",
"        .   . .   .         .   .     .             .     .   . .             .   . .   .         .   . .   .                   ",
"      .     .   .         .   . .   .                   .     .             .   . .   .             . .   .                   . ",
"    .   . .   .         .   . .   .             .     .     .   .         .   . .   .             .     .     .             .   ",
"  .   . .   .         .   .     .                   .     .             .   X .   .         .   . .   .                   .     ",
".   . .   .         .   . .   .                   .           X o O O o X       +         .   . .   .                   .   . . ",
"  . .   .         .   . .   .             .     .     @ # $ % & * = - ; : > , < 1       .   .     .                   .   . .   ",
". .   .         .   . .   .                       2 3 4 5 6 7 8 9 0 9 0 0 0 q w e r < t   + .   .                   .   . .   . ",
"    .         .   . .   .             . X   + y u i p 0 7 p p a s p s s p s a a 0 7 d f g .   .     .       .     .   . .   .   ",
"  .         .   .     .             .     h j k 7 7 s a p p a s p s s p s a p p a s 7 0 l z x                   .   . .         ",
".         .   . .   .                   c v b 7 p s a p p a s p s s p s a p p a s p p s 7 n m M               .     .   .       ",
"        .   . .   .             .     N B 0 p p s a p p a s p s s p s a p p a s p p s p b p 0 V C X         .   . .   .         ",
"      .   .     .                   Z d 7 p p s a p p a s p s s p s a p p a s p p s p b p p p 0 A S X     .   . .   .         . ",
"    .   . .   .                   D F 7 p p s a p p a s p s s p s a p p a s p p s p b p p p p s 7 G H   .     .   .         .   ",
"  .   .     .             .     J K 7 p p s a p p a s p s s p s a p p a s p p s p b p p p p s p p 7 L P   . .   .         .     ",
".   . .   .                   I U 0 p p s a p p a s p s s p s a p Y 9 T p p s p b p p p p s p p p 0 R $   .   .         .   . . ",
"  . .   .             .       E W p p s a p p a s p s s p s a p a Q ! ~ ^ p p b p p p p s p p p 0 / ( . +   .         .   . .   ",
". .   .                     ) _ 7 p s a p p a s p s s p s a p a A ` ' ] [ T b p p p p s p p a s { 2   +   .         .   . .   . ",
"    .                   .   } a a s a p p a s p s s p s a p p 9 |  ...X.o.O.a p p p s p p 7 +.@.#.  .   .         .   . .   .   ",
"  .             .     .   $._ 0 s a p p a s p s s p s a p p a 7 %.&.    *.=.p p p s p p 7 5 -.;.  .   .         .   . .   .     ",
".                   .     :.b s a p p a s p s s p s a p p a s a >.,.< N <.a p p s p p 7 1.2.    .   .         .   .     .       ",
"                  .     o 3.0 4.p p a s p s s p s a p p a s p p p n w 5.a p p s p a W 6.7.    .             .   . .   .         ",
"          .     .       8.k 0 p p a s p s s p s a p p a s p p s p b a p p p s p 7 9.> 0.  . .   .         .   . .   .           ",
"              .   . .   q.w.p p a s p s s p s a p p a s p p s p b p p p p s a 0 e.r.t.  . .   .         .   . .   .             ",
"      .     .     .     E a p a s p s s p s a p p a s p p s p b p p p p s a a y.u.    . .             .   . .   .         .   . ",
".         .   . .       i.0 a s p s s p s a p p a s p p s p b p p p p s 7 p.a.s.    . .   .         .   .     .         .   . . ",
"  .     .   . .   .   d.f.9 s p s s p s 4.p p p s p p s p b p g.p p s 0 h.j.k.+   . .   .         .   . .   .             . .   ",
".     .     .         t l.z.a p n x.n c.Y Y c.p a Y Y x.s a Y Y a n v.b.n.  +   . .   .         .   . .   .             .     . ",
"    .   . .   .       ;.m.M.N.B.V.N.V.B.B.C.N.V.N.B.V.N.V.B.B.V.N.V.Z.A.S..   . .   .         .   . .   .             .     .   ",
"  .   . .             t D.F.C.G.B.C.C.C.H.B.C.J.C.C.B.C.B.B.C.B.G.B.B.K.L.P.I.              .   . .   .         .   .     .     ",
".   . .   .         .   U.Y.C.B.C.C.C.H.B.C.B.C.C.B.C.B.B.C.B.C.B.B.C.B.T.R.E.$.          .   . .   .             .     .     . ",
"  . .   .         .     W.T.B.C.C.C.H.B.C.B.C.C.B.C.B.B.C.B.C.B.B.C.B.C.C.C.T.Q.!.      .   . .   .             .     .     .   ",
". .             .       ~.^.H.C.C.H.B.C.B.C.C.B.C.B.B.C.B.C.B.B.C.B.C.C.B.C.B.M./.(.d.    . .   .             .     .         . ",
".   .         .   . .   ) )._.C.H.B.C.B.C.C.B.C.C.B.C.B.C.B.B.C.B.C.C.B.C.B.C.C.T.`.'.].  .   .         .   .     .     .       ",
"  .         .     .   + [.{.Y.H.B.C.B.C.C.B.C.B.B.C.B.C.B.B.C.B.C.C.B.C.B.C.C.C.C.C.N.}.|.  .             . .   .     .         ",
"          .   . .   .      XC.B.C.B.C.C.B.C.B.B.C.B.C.B.B.C.B.C.C.B.C.B.C.C.C.C.B.C.C.T..XXX            .     .     .           ",
"        .   . .   .       2 oXK.B.C.C.B.C.B.B.C.B.C.B.B.C.B.C.C.B.C.B.H.C.C.C.B.C.C.C.H.T.OX+Xt   X   .     .     .             ",
"      .   . .   .           @XT.C.C.B.C.B.B.C.B.C.B.B.C.B.C.C.B.C.B.C.C.C.C.B.C.C.C.C.B.C.T.#X$X].  .     .                   . ",
"    .   . .   .             %X&X*XB.C.B.B.C.B.C.B.B.C.B.C.C.B.C.B.H.C.C.C.B.C.C.C.C.B.C.C.C.T.=X-X|.    .     .   .         .   ",
"  .   . .   .         .   +   ;X=XH.B.B.C.B.C.B.B.C.B.C.C.B.C.B.C.C.C.C.B.C.C.C.C.B.C.C.C.H.B.H.T.:XXX      .             .     ",
".   . .   .         .   . .   >X,X*XB.C.B.C.B.B.C.B.C.C.B.C.B.C.C.C.C.B.C.C.C.C.B.C.C.C.H.B.C.B.C.Y.<X1X                .   . . ",
"  .     .         .   . .   .   2X3X*XB.C.B.B.C.B.C.C.B.C.B.H.C.C.C.B.C.C.C.C.B.C.C.C.H.B.C.B.C.C.H.4X~.              .     .   ",
". .   .         .   . .   .       ~.5X*XB.B.C.B.C.C.B.C.B.C.C.C.C.B.C.C.C.C.B.C.C.C.H.B.C.B.C.C.H.6X7X              .   . .   . ",
"    .         .   .     .           8X9XT.C.B.C.C.B.C.B.C.C.C.C.B.C.C.C.C.B.C.C.C.H.B.C.B.C.C.H.#X0Xt             .   . .   .   ",
"  .         .   .     .     .         qXwXT.H.C.B.C.B.H.C.C.C.B.C.C.C.C.B.C.C.C.H.B.C.B.C.C.T.eXrXt             .   . .   .     ",
".         .   . .   .                   tXyXB._.C.B.C.C.C.C.B.C.B.C.C.B.C.C.C.H.B.C.B.C.T.H.uXiX              .   . .   .       ",
"            . .   .                   .   pXP.aXT.T.C.C.C.B.C.B.C.C.B.C.C.C.H.B.C.B.H.M.sXU.7.              .   . .   .         ",
"      .   .     .     .             .   .     dXfXgXH.M.C.H.C.C.C.B.C.C.C.H.B._.*XT.sXhXjXt               .   . .   .         . ",
"        . .   .                   .   . .   +   X J kXlXzXxX*XcX*XM.Y.M.cX*XB.4XvXbXu.O                 .     .   .         .   ",
"  .   . .   .     .             .     .   .           nXmXMXbXhXNXlXlXyXD.BXVXCXZX      .             .   . .   .         .     ",
".   . .   .                   .   . .   .         .           d.O AXAXO d.      +         .         .   . .   .         .   . . ",
"  .     .                   .   . .   .         .   . .   .             +     .     .             .   . .   .         .   . .   ",
".     .     .             .   . .             .   . .   .         .   .     .     .             .   . .   .         .   .     . ",
"    .                   .   . .   .         .   .     .         .   .     .     .             .   . .   .         .   . .   .   ",
"  .                   .   . .   .         .   . .   .             .     .     .             .   . .   .         .   . .   .     ",
".     .             .   . .   .         .   . .   .             .     .     .             .   . .   .         .   .     .       ",
"                  .   . .   .         .   .     .             .     .     .             .   . .   .         .   . .   .         ",
"  .             .     .             .   . .   .             . .   .     .             .   . .   .         .   . .   .           ",
"              .   . .   .         .   . .   .             .     .     .   .         .     .   .         .   .     .             ",
"            .     .   .         .     .   .     .   .     .   .     .             .     .   .         .   . .   .     .         "
};
