/* XPM */
static char *_1795fbd9c094120b4c11a2798b7a807jNlN15iiM3rM79M4[] = {
/* columns rows colors chars-per-pixel */
"64 64 232 2 ",
"   c None",
".  c #010101",
"X  c #0B0C0C",
"o  c #121313",
"O  c #1D1D1D",
"+  c #0F1010",
"@  c #3E0303",
"#  c #212222",
"$  c #2A2B2B",
"%  c #3B2B2A",
"&  c #383737",
"*  c #440203",
"=  c #5A0F04",
"-  c #6D0202",
";  c #6D0808",
":  c #690506",
">  c #740101",
",  c #7C0101",
"<  c #730B0B",
"1  c #7B0A0A",
"2  c #7B0805",
"3  c #751313",
"4  c #7A1616",
"5  c #7C1B1B",
"6  c #771919",
"7  c #6A160A",
"8  c #4E2104",
"9  c #4B2209",
"0  c #542202",
"q  c #5D2500",
"w  c #5D2A08",
"e  c #652A03",
"r  c #6B2C02",
"t  c #632C0A",
"y  c #622701",
"u  c #732E01",
"i  c #7A2A03",
"p  c #6E320B",
"a  c #753104",
"s  c #7B3101",
"d  c #783509",
"f  c #7D3212",
"g  c #482E2F",
"h  c #7F2121",
"j  c #732727",
"k  c #783435",
"l  c #6B2F2F",
"z  c #4A4A4A",
"x  c #444444",
"c  c #575858",
"v  c #684645",
"b  c #774848",
"n  c #645F5F",
"m  c #7B595A",
"M  c #605F60",
"N  c #606161",
"B  c #6E6A6A",
"V  c #796C6C",
"C  c #7B7676",
"Z  c #7D7B7B",
"A  c #747474",
"S  c #830000",
"D  c #8C0000",
"F  c #850B0B",
"G  c #88080A",
"H  c #890708",
"J  c #930001",
"K  c #9C0000",
"L  c #9B0A0B",
"P  c #920B0B",
"I  c #871502",
"U  c #971505",
"Y  c #881616",
"T  c #981716",
"R  c #8F0F10",
"E  c #A40000",
"W  c #AC0000",
"Q  c #AD0A0A",
"!  c #A10807",
"~  c #B30001",
"^  c #BB0100",
"/  c #B50909",
"(  c #A81616",
")  c #B71515",
"_  c #B6140C",
"`  c #833501",
"'  c #8A3600",
"]  c #8D3901",
"[  c #823907",
"{  c #943B01",
"}  c #9B3E01",
"|  c #9D3608",
" . c #8F2E0D",
".. c #A52715",
"X. c #812424",
"o. c #852B2B",
"O. c #8C2828",
"+. c #9A2425",
"@. c #88312F",
"#. c #8A3434",
"$. c #8C3A3A",
"%. c #853939",
"&. c #913E3E",
"*. c #9A3434",
"=. c #A72727",
"-. c #B62828",
";. c #B73535",
":. c #B33831",
">. c #C30101",
",. c #CB0000",
"<. c #C30A0A",
"1. c #CA0B0A",
"2. c #D30001",
"3. c #DB0101",
"4. c #D40B0B",
"5. c #DD0C0B",
"6. c #DC0807",
"7. c #C91816",
"8. c #D31414",
"9. c #DC1B1C",
"0. c #DB1212",
"q. c #C90F10",
"w. c #E30102",
"e. c #EB0202",
"r. c #E40C0C",
"t. c #ED0B0B",
"y. c #EA0708",
"u. c #F30C0C",
"i. c #F10606",
"p. c #E0100F",
"a. c #E21514",
"s. c #EB1515",
"d. c #E31C1C",
"f. c #E91C1C",
"g. c #F41717",
"h. c #C2291B",
"j. c #DD2424",
"k. c #CC2D2D",
"l. c #E52424",
"z. c #EC2424",
"x. c #EA2C2B",
"c. c #E62D2E",
"v. c #F72525",
"b. c #EC3535",
"n. c #EC3C3C",
"m. c #E03836",
"M. c #F63434",
"N. c #9D4104",
"B. c #90400B",
"V. c #A34303",
"C. c #A34709",
"Z. c #954438",
"A. c #BB4A38",
"S. c #844949",
"D. c #944444",
"F. c #9A4D4E",
"G. c #974646",
"H. c #8A5959",
"J. c #9C5354",
"K. c #A34A4A",
"L. c #B94C45",
"P. c #A55657",
"I. c #BA5C5C",
"U. c #876A6A",
"Y. c #986766",
"T. c #8A7575",
"R. c #977575",
"E. c #AA7070",
"W. c #AF6E6E",
"Q. c #C74745",
"!. c #DC4949",
"~. c #EB4847",
"^. c #F34545",
"/. c #FB4444",
"(. c #F14C4C",
"). c #F94E4D",
"_. c #E95152",
"`. c #F35454",
"'. c #F45B5A",
"]. c #FB5656",
"[. c #EF504F",
"{. c #C86868",
"}. c #DB6864",
"|. c #CB7676",
" X c #F36363",
".X c #F66C6C",
"XX c #FA6767",
"oX c #F57373",
"OX c #F97474",
"+X c #F57B7C",
"@X c #F97C7C",
"#X c #FA7877",
"$X c #E07272",
"%X c #F67F80",
"&X c #8B8C8C",
"*X c #878585",
"=X c #9B8686",
"-X c #959595",
";X c #979999",
":X c #9B9B9B",
">X c #B99696",
",X c #AA9292",
"<X c #A4A4A5",
"1X c #AAABAB",
"2X c #AFA4A4",
"3X c #B8A7A7",
"4X c #AEB1B1",
"5X c gray70",
"6X c #BCBCBC",
"7X c #BAB7B7",
"8X c #ADAFB0",
"9X c #D39F9E",
"0X c #C4A9AA",
"qX c #D5BBBB",
"wX c #D3A5A5",
"eX c #E4B4B5",
"rX c #BFC2C2",
"tX c #C3C4C3",
"yX c #CCCCCC",
"uX c #C8C4C4",
"iX c #DAC8C8",
"pX c #D3D3D3",
"aX c #DBDBDC",
"sX c #DAD6D6",
"dX c #CFD1D1",
"fX c #E3DADA",
"gX c #E3E3E3",
"hX c #EDEDED",
"jX c #E7E9E9",
"kX c #EFF0F1",
"lX c #F4F4F4",
"zX c #F8F8F8",
/* pixels */
"                                                                                                                                ",
"                                                                                                                    t           ",
"                                                                                                                    e           ",
"                                                                                                                    r a         ",
"    w                                                                                                               d a         ",
"  t t                                                                                                               d s d       ",
"  e r                                                                                                               [ ` s       ",
"  r u                                                                                                               [ ` s d     ",
"p u a                                             8.4.4.6.2.2.2.,.,.,.>.>.>./ / /                                   ' ' s u     ",
"p u s d                                     j.9.d.a.5.5.6.3.2.2.2.,.,.,.>.>.>.^ ^ ~ / Q                             ] ' s r     ",
"d s s [                                 l.l.x.x.l.l.d.p.5.6.3.2.2.2.,.,.,.>.>.>.^ ^ ^ ~ ~ Q                       B.] ' s r t   ",
"d s ` '                             l.x.b.n.n.n.b.c.l.a.5.6.3.3.2.2.2.,.,.,.>.>.^ ^ ^ ~ ~ ~ W W                   { ] ` u r w   ",
"a s ' ' ]                       l.l.c.n.^.(.`.(.^.b.z.f.r.w.3.3.3.2.2.,.,.,.>.>.>.^ ^ ^ ~ ~ W W E !               } ] ` u y w   ",
"a s ' ] {                   9.d.z.b.^.`.'. X X'.(.n.x.f.r.w.w.3.3.2.2.2.,.,.,.>.>.^ ^ ^ ~ ~ W W W E E           N.{ ' s r q 0   ",
"a s ' ] { N.              9.d.x.n.(.'. X.X.XXX'.(.M.z.s.r.w.w.3.3.3.2.2.,.,.,.>.>.>.^ ^ ~ ~ ~ W W E E K L     C.V.{ ' u r q 8   ",
"a s ` ] { } V.          9.d.c.n.(.'..XOXOXOXXX].^.M.z.s.y.w.w.3.3.3.2.2.2.,.,.>.>.>.^ ^ ~ ~ ~ W W E E E K L | V.} ] s u y 0 9   ",
"p u s ' { } V.V.      9.d.c.n.[. X.X#X@X#XOX X).M.v.g.t.y.w.w.w.3.3.2.2.2.,.,.,.>.>.^ ^ ~ ~ ~ W W E E E K K U | { ' s r q 8     ",
"  u s ' ] } N.V.N.| 7.d.c.n.[. XoX+X@X@XOXXX]./.M.g.u.i.e.e.w.w.3.3.3.2.2.,.,.,.>.>.^ ^ ~ ~ ~ W W W E E K K J U ' ` u e 0 8     ",
"  r u s ' { } } } { | -.m.[. XoX+X+X@XOXXX]./.M.v.g.i.e.e.w.w.w.3.3.3.2.2.,.,.,.>.>.^ ^ ^ ~ ~ W W W E E K K K J I s r q 0 9     ",
"    u s ` ' { { { { ' ' | A.}.+X%X+XOXXX]./.M.v.g.u.i.e.e.w.w.w.3.3.3.2.2.,.,.,.>.>.^ ^ ^ ~ ~ W W W E E K K K J J I e 0 8       ",
"    r u s ` ' ] ] ] ' ` s u f Z.}.#X X].^.M.v.g.u.i.e.e.e.w.w.w.3.3.2.2.2.,.,.,.>.>.^ ^ ^ ~ ~ W W W E E K K K J J D 7 0 9       ",
"      r u s ` ' ' ' ' s s u r q L. X`.^.M.v.g.u.i.i.e.e.e.w.w.w.3.3.3.2.2.,.,.,.>.>.^ ^ ~ ~ ~ W W W E E K K K J J D 2 0         ",
"        r u s s ` ` ` s a u r e Q.`.^.b.z.g.u.i.e.e.e.e.w.w.w.3.3.3.2.2.2.,.,.>.>.>.^ ^ ~ ~ ~ W W E E E K K J J J D D           ",
"          r u a s s s s u r e f ~.n.x.z.s.t.y.e.e.e.e.w.w.a.!.}.|.{.Q.7.,.,.,.>.>.>.^ ^ ~ ~ W Q ;.I.W.W.P.+.L J J D D S         ",
"          U i r u u u u u r r :.n.c.f.s.t.y.e.e.e.e.w.w._.eXfXaXpXuX7X>XI.q.>.>.>.^ ^ ^ ~ ~ ;.9XfXaXpXyX6X2XE.+.J D D S         ",
"          <._  .r r r r r r ..m.l.d.a.r.w.w.w.w.w.w.w.$XfXkXhXgXaXyX6X5X<XE.) >.>.^ ^ ^ ~ L.iXkXkXgXaXpXtX5X1X=XO.D D S S       ",
"          <.1.7...i e e u ..j.j.a.p.r.w.w.w.w.w.w.w.!.sXhXzXzXhXtXA z x M *XP./ >.^ ^ ~ -.qXjXzXzXhXpX&Xc x c Z T.Y D S S       ",
"        / >.<.q.7.h.....h.9.9.0.5.6.6.3.3.w.w.w.w.0.wXaXgXhXlX5X$ . . . . # B =.^ ^ ^ ~ |.sXgXhXlXpXz . . . . o c S.S S S 1     ",
"        / ^ >.<.1.q.8.8.8.8.4.4.6.3.3.3.3.3.3.3.3.k.uXpXaXgXyX& . . . . . . # &.^ ^ ~ ) 0XdXaXgXgXN . . . . . . + v F S S 2     ",
"        ^ ^ ^ >.>.1.1.1.1.4.2.2.2.2.2.2.3.3.3.3.3.Q.6XuXyXsX-X. . . . . . . . l / ^ ~ -.3XuXyXsX6XO . . . . . . . g Y S S ,     ",
"        ~ ^ ^ ^ >.>.>.,.,.,.,.,.2.2.2.2.2.2.2.2.2.Q.5X7XtXyXZ . . . . . . . . l / ~ ~ ( 2X7XtXuX<Xo . . . . . . . % Y S , ,     ",
"      Q ~ ~ ^ ^ ^ >.>.>.>.,.,.,.,.,.2.2.2.2.2.2.2.h.2X1X5X7X-XX . . . . . . X X.~ ~ ~ Q =X1X5X5X1X$ . . . . . . . g S S , ,     ",
"      Q ~ ~ ~ ^ ^ ^ >.>.>.>.>.,.,.,.,.,.,.,.,.,.,.1.W.<X<X1X<Xz . . . . . . % ( ~ ~ W W K.<X<X1X1XB X . . . . . # j S S , ,     ",
"      W ~ ~ ~ ~ ^ ^ ^ >.>.>.>.>.>.,.,.,.,.,.,.,.,.,.-.=X;X:X:X&Xz o . . o & #.~ ~ ~ W W ( R.;X:X:X;XN O . . X $ v F S , , , >   ",
"      W W ~ ~ ~ ~ ^ ^ ^ ^ ^ >.>.>.>.>.>.>.>.,.>.,.>.>.:.R.&X&X&X*XA c c n $./ ~ ~ W W W E T Y.&X&X&X&XC N c n b Y S S , , > <   ",
"      E W W ~ ~ ~ ~ ^ ^ ^ ^ ^ ^ >.>.>.>.>.>.>.>.>.>.>.>.) F.U.Z C C V H.+./ ~ ~ W W W E E E L &.U.C C C V m k F S S , , , > <   ",
"      E W W W W ~ ~ ~ ~ ^ ^ ^ ^ ^ ^ ^ >.>.>.>.>.>.>.^ ^ ^ ^ _ =.=.=.( / ~ ~ W W W W E E E K K K P Y O.X.Y G D S S S , , , > <   ",
"      ! E W W W W ~ ~ ~ ~ ~ ^ ^ ^ ^ ^ ^ ^ ^ ^ ^ ^ ^ ^ ^ ^ ^ ^ ^ ^ ~ ~ ~ ~ W W W W E E E E K K K J J J D D D S S S , , , > > <   ",
"      ! E E E W W W W ~ ~ ~ ~ ~ ~ ^ ^ ^ ^ ^ ^ ^ ^ ^ ^ ^ ^ ~ ~ ~ ~ ~ ~ W W W W W E E E E K K K J J J D D D S S S S , , > > > -   ",
"      L E E E E W W W W W ~ ~ ~ ~ ~ ~ ~ ~ ~ ~ ~ ~ ~ ~ ~ ~ ~ ~ ~ ~ ~ W W W W E E E E E E K K K J J J D D D S S S , , , > > > :   ",
"      L K E E E E E W W W W W W ~ ~ ~ ~ ~ ~ ~ ~ ~ ~ ~ ~ ~ ~ W W W W W W E E E E K J S > : : : , D D D D S S S , , , > > > - -   ",
"      P K K K E E E E E W W W W W W W W W W ~ ~ ~ W W W W W W W W W W E ( :.*.7 * * * * @ @ @ @ k G.Y S S S , , , > > > - -     ",
"      P K K K K E E E E E E E W W W W W W W W W W W W W W W W W E E E E {.sX1XS.D J J J J J D R 0XyXT.4 S , , , , > > > - -     ",
"      P J K K K K K K E E E E E E E E W W W W W W W W W E E E E E E E K I.gX4XH.K K J J J D D R iXyX*X4 S , , , > > > - - -     ",
"      P J J J K K K K K K K E E E E E E E E E E E E E E E E E E E K K K =.iX4XH.J J J J D D D R qXrXT.1 , , , > > > - - - -     ",
"      H J J J J J K K K K K K K K E E E E E E E E E E E E E K K K K K K L >X1XH.J J J D D D D S >X8Xm 2 , , > > > - - - - -     ",
"      S D D J J J J J J K K K K K K K K K K K K K K K K K K K K K K K J J K.:XS.D D D D D S S S Y.;Xk , , > > > - - - - - -     ",
"        D D D D J J J J J J J K K K K K K K K K K K K K K K K K J J J J J R T.%.D D D D S S S S %.T.4 , > > > > - - - - - -     ",
"        S D D D D D J J J J J J J J J J J J J J J J J J J J J J J J J J D D #.o.D D S S S S S , 5 b > > > > > < < < < - - -     ",
"        S S S D D D D D D D J J J J J J J J J J J J J J J J J J J J D D D D G F S S S S S , , , 2 3 > > > < < < < 3 < < < -     ",
"        S S S S S D D D D D D D D D D J J J J J J J J J D D J D D D D D D D S S S S S , , , , , > > > > < < 3 5 5 h 5 4 < ;     ",
"        , S S S S S S S D D D D D D D D D D D D D D D D D D D D D D D S S S S S S S , , , , , > > > > < < 4 X.o.#.#.o.5 3 <     ",
"        2 , , , S S S S S S S S S D D D D H   G H D D D D D S S S S S S S S S , , 2     > > > > > > < < 4 X.#.&.D.D.#.X.4 <     ",
"        1 , , , , , S S S S S S S S S S H         S S S S S S S S S S S S , , , 2         < > > - < < 4 X.#.D.F.J.G.$.X.4 3     ",
"          > > , , , , , , , S S S S S S             S S S S S S S , , , , , , >             - - - < 3 X.#.D.J.J.J.D.#.X.3       ",
"          < > > > , , , , , , , , , ,                 , , , , , , , , , , , >                 - - < 5 o.Z.F.J.J.F.&.o.5 3       ",
"            - > > > > > > , , , , , 1                 2 , , , , , , , > > >                   ; < 3 h #.D.J.J.F.D.@.5 3         ",
"              - > > > > > > > > > >                     > > > > > > > > > <                     < 3 X.#.D.F.G.&.#.h 3           ",
"                - - - - > > > > >                         > > > > > > > -                       3 3 h @.$.&.$.o.h 6             ",
"                  - - - - - - - ;                           - - > - - -                           3 5 X.o.o.X.5 6               ",
"                      - - - - ;                               - - - -                               3 4 5 5 5                   ",
"                                                                ; ;                                                             ",
"                                                                                                                                ",
"                                                                                                                                "
};
