/* XPM */
static char *d2f061acd2544b9de99c5db1dafdceacBkIpP3IAT2pDib3N[] = {
/* columns rows colors chars-per-pixel */
"64 64 129 2 ",
"   c #2B1605",
".  c #331D0B",
"X  c #37200E",
"o  c #3A230E",
"O  c #362211",
"+  c #3C2512",
"@  c #3D2916",
"#  c #3E2B1A",
"$  c #412716",
"%  c #442B16",
"&  c #492C16",
"*  c #442D1B",
"=  c #482F1B",
"-  c #46311D",
";  c #4C331D",
":  c #51351F",
">  c #453221",
",  c #4D3522",
"<  c #4E3925",
"1  c #4E3A29",
"2  c #513722",
"3  c #543B25",
"4  c #593D26",
"5  c #553D29",
"6  c #593F29",
"7  c #5A4026",
"8  c #56412C",
"9  c #5A402F",
"0  c #58432E",
"q  c #59432E",
"w  c #5A422C",
"e  c #5C412C",
"r  c #5D432C",
"t  c #5D422D",
"y  c #5C432D",
"u  c #5E432E",
"i  c #58442C",
"p  c #5A442F",
"a  c #5B472F",
"s  c #5E442D",
"d  c #5D442E",
"f  c #5F452E",
"g  c #5F442F",
"h  c #5E452F",
"j  c #5F472F",
"k  c #5B422C",
"l  c #554231",
"z  c #5B4130",
"x  c #5C4231",
"c  c #5D4332",
"v  c #5B4530",
"b  c #5F4630",
"n  c #5E4433",
"m  c #5D4732",
"M  c #5F4534",
"N  c #5D4634",
"B  c #5D4531",
"V  c #5C4830",
"C  c #5E4833",
"Z  c #5E4A32",
"A  c #5F4934",
"S  c #5E4933",
"D  c #63452B",
"F  c #60442C",
"G  c #61452D",
"H  c #60442E",
"J  c #60462F",
"K  c #62462E",
"L  c #61442E",
"P  c #67492F",
"I  c #604530",
"U  c #614730",
"Y  c #614631",
"T  c #604731",
"R  c #624732",
"E  c #604635",
"W  c #614736",
"Q  c #614631",
"!  c #624831",
"~  c #614832",
"^  c #634833",
"/  c #624933",
"(  c #604A33",
")  c #644830",
"_  c #654931",
"`  c #664830",
"'  c #644A33",
"]  c #664A32",
"[  c #614B34",
"{  c #634A34",
"}  c #624837",
"|  c #644934",
" . c #654B34",
".. c #654A35",
"X. c #644B35",
"o. c #674B35",
"O. c #664C35",
"+. c #664D37",
"@. c #644A34",
"#. c #684A30",
"$. c #694B31",
"%. c #684D32",
"&. c #6A4C32",
"*. c #694D35",
"=. c #6D4F35",
"-. c #694B36",
";. c #634938",
":. c #644A39",
">. c #644E39",
",. c #664C3B",
"<. c #674D3C",
"1. c #664C39",
"2. c #694E39",
"3. c #684E3D",
"4. c #694E39",
"5. c #66503B",
"6. c #6A5039",
"7. c #6B503B",
"8. c #6D523D",
"9. c #6C533D",
"0. c #6B523B",
"q. c #715339",
"w. c #72543A",
"e. c #71523D",
"r. c #76583E",
"t. c #6B5140",
"y. c #745641",
"u. c #765B46",
"i. c #7B5F49",
/* pixels */
"Z i < - ; ; ; % ( 5 k ( y 7 T d ;.6 6 2 * 5 :.5 W 5 = * , 5 z M Z <.X.d e : 3 -.#.4 : 4 6 3 5 | | X.y 4 6 ; & ; % : 6 7 4 6 6 6 ",
"Z i < ; ; 5 i 5 d y +.9.2.7.9.X.k , 2 2 = 3 M 5 3 5 3 , 3 M c 2 0 i 6 5 e 4 7 q.-.D e e y 6 k ( d ( d y ( 7 3 7 : 3 4 4 6 7 6 3 ",
"< 3 < ; : 3 i 5 3 5 T ( T 2.9.T z , 2 5 3 5 c z 5 W n 2 5 M 5 + i k 3 5 H H #.r.%.P H e 6 6 k k 3 7 7 y ( 7 3 6 6 6 5 5 e T d 5 ",
"- < 3 < ; ; ; - , 3 3 ; = 6 ( 3 ;.5 5 z c 6 M <.;.;.k , , 5 2 $ 5 i 6 5 H H ^ w.P %.^ e 6 7 k 0 5 e 7 e H 5 ; : 4 7 7 7 H +.^ d ",
", 3 i < ; ; ; - 5 5 5 ; % 3 e ; c 5 , 2 6 6 M t.W 5 , , 2 2 5 6 ; i 7 5 7 4 e ^ ^ -.-.H 7 d m v d ( T T | 6 ; 3 5 k d d T | | T ",
"8 i 3 ; - ; 3 3 6 7 d 7 2 3 3 & , , $ $ , 2 5 :.c 3 2 5 5 , , 5 - 5 i 3 5 5 4 ^ H H d 7 5 3 5 k y T d d ( k 3 k 7 d m y k d d y ",
"3 3 < ; ; 3 5 i 5 3 7 y 3 2 2 & * , % + , 2 2 z c c W M 5 , = , , i 3 ; 3 4 4 H e 2 2 3 ; $ - 3 5 5 3 3 y 7 5 T d k 5 3 3 k y 7 ",
"; 3 i i i i i 3 7 , 3 5 ; ; 2 : , c 2 % 2 5 , 5 5 ;.3.c 3 2 2 , 5 0 ; + ; 3 2 2 H 2 : 2 - o @ < 3 5 2 3 7 6 6 X.d 5 ; & , k d 7 ",
"i 3 i a 5 3 3 ; ; 2 3 2 ; 2 6 T c c 5 , , 3 5 2 6 W M <.= 3 5 M 1 - $ ; 3 5 ; ; 2 7.T $ @ < > + $ % > 5 5 < 3 k i < ; - - ; 5 Z ",
"; - ; 3 < 3 5 < , 6 ( X.T y H T W M 5 , , , , = 2 , 5 M 2 2 * X 1 > > 0 | T 5 ; 5 7 3 - * + O * , ; , 0 k 5 0 A 0 3 , > ; ; < 0 ",
"3 < 8 a m +.9.5.; 6 ( 2.X.( T ( 5 5 2 , , , , , 5 , 2 , = $ $ . * # - 5 Z T 6 2 7 6 3 3 3 * # 5 5 , < i k 5 k | 0 5 3 < , ; , 5 ",
"i 3 i a i m Z i 3 5 k d y d ( +.6 5 3 2 2 3 3 2 5 2 M , * . * @ # O + * < 5 7 d 3 d i 5 v v l l < , < 5 3 ; < i 5 3 < < , > < 5 ",
"Z i i Z i 5 3 % 7 k y k 7 y T X.3.:.W c 6 5 2 2 , , :.z 6 $ = + > # @ * , 3 y ( , 3 , 3 M N 1 1 , < 5 5 , * - 5 < , > , , < 0 M ",
"i 3 i [ [ [ ( 3 7 d T T y 6 3 3 W c 6 z 6 5 3 2 5 , 3 3 5 3 2 @ 1 1 1 1 5 3 5 7 5 ; $ < M , # < 1 3 0 0 < * > 0 < > > > < < l ;.",
"; - ; i m [ [ i 6 y T ( d 6 3 ; , , , 3 5 5 3 5 c 2 = 2 , 5 5 , l l 8 0 5 < 2 3 k 3 ; < 0 , > 5 5 < < 3 < > < l < > , < 3 1 5 v ",
"Z 8 i i i m i , k v m T m m k k 3 , , 5 5 3 2 5 , 5 5 <., k 5 3 v l 0 0 5 3 3 7 3 X.m ; > 5 l l 5 - % - > > < 0 < < 3 5 5 < 1 5 ",
"3 i 0 0 0 5 5 i 5 5 5 0 M ;.M 5 * 3 3 = , y 6 % 6 ; 3 -.<.3 2 k 5 5 6 k 3 : ; 3 ( X.T 6 k m 6 > , > * * # # > , , 1 5 5 1 1 l l ",
"i i < < 3 5 3 < > , > > 1 c M z ; 5 6 2 3 y 6 ; 2 ; 2 T -.7 3 3 y 4 3 4 6 6 6 y 7 T T y 6 y 6 3 , > # * # # @ # * > , 1 1 1 l c ",
"Z i 3 3 v Z 0 < 5 5 > O O > 1 , ; 2 3 3 6 6 5 2 ; ; 2 T 2.X.7 3 X.e 2 3 6 y T X.4 y T y 5 3 3 3 1 > * > > # O . # # # > < 1 5 5 ",
"i i i V 5.5.Z 5 v v , .   O * * ; = = 2 6 7 6 3 2 6 y X.2.2.T 3 2.y 3 3 5 6 y T y H T T 7 3 2 3 l 1 , 1 1 , # O > # # * > , > > ",
"3 3 3 i i d i k 5 3 * X . % , < ; & & 2 d X.T 6 6 T 2.X.T T y 6 T y 6 5 2 2 3 y T y 6 d d 6 2 3 v 5 5 0 0 5 - * < > - > , < - * ",
"3 5 3 3 < 3 0 m 5 , - * * > , 5 3 2 2 3 T 7.2.y e ^ -.T 6 3 6 6 5 5 5 6 3 2 6 T 6 ; ; 3 6 3 ; 3 0 5 5 5 5 < , < 5 5 < 1 5 5 , - ",
"3 3 3 3 3 3 k Z A < , 3 5 , , 3 6 H y 3 6 ( X.6 y y y 6 3 3 5 y 6 5 3 6 6 6 H X.3 = & 3 3 ; ; 6 3 5 5 < - * , z 0 0 5 5 5 5 , > ",
"& ; 3 7 i i k i A ; * k m , , 6 6 X.T 2 = 3 6 2 T 4 2 3 3 3 6 T X.7 3 6 y T X.2.y 2 3 y 7 ; 2 X.< 3 5 , % @ > A 0 0 0 5 5 , - * ",
"; < 7 k d d d d y 5 , , 5 5 6 <.9.2.X.y 3 2 3 6 6 5 6 T T y y T y 2 2 6 6 ; 6 9.X.y 7 d d 6 2 3 < 5 5 > % % > i ; 3 0 m v 5 - + ",
"; 3 7 7 7 7 5 5 +.+.m T <.m 5 m u.7.T y X.X.y 3 y y 6 6 7 y H T 6 3 6 d y 3 5 X.y 3 3 5 3 ; & & 5 5 5 < > > 3 5 3 3 , > , , > ; ",
"7 7 7 7 5 3 3 5 7 d 7 y X.m 5 m X.d 6 y X.2.T 6 6 y 5 ; 2 e T T y y y y 5 2 3 6 3 2 3 6 6 6 3 5 k 5 5 3 3 5 5 3 v 5 ; % * ; < 3 ",
"d d d k 5 5 5 5 ; 2 ; = 3 5 5 T y H d y 6 5 6 y 3 6 5 ; 2 T 2.X.2.2.^ 6 3 2 3 3 3 3 3 3 6 y T T k 5 5 < 3 3 3 5 m 0 < ; ; , 3 3 ",
"r r r e 4 4 7 7 2 5 ; = 3 6 k | y.9.2.T 6 3 3 6 3 y y 3 6 +.9.X.2.2.+.T y 6 4 3 6 3 2 ; ; ; 3 6 k k 6 3 ; ; 3 7 e 5 2 ; , 3 5 7 ",
"4 7 7 7 4 4 7 e ; 4 3 3 T +.| :.u.2.y 6 T X.y 6 2 6 e 5 6 T T y 3 5 y X.^ 6 2 2 6 6 3 ; ; 2 6 y ( ( d 5 , 2 5 d 5 2 ; ; ; 5 d ( ",
"3 4 7 7 7 7 e d ; 6 7 y +.7.X.T ( 6 2 3 y ( H 6 2 3 3 6 6 6 6 6 2 ; 2 y y 2 ; 2 7 d y 3 5 T 2.7.<.| d 6 5 5 5 7 3 ; ; ; , 5 y m ",
"5 7 r r r r H J 6 X.T y T ( 6 5 6 6 6 5 3 2 2 3 3 3 3 y T y d T T 2 ; 4 6 ; ; y y T T 6 4 y T T 7.( k 7 7 7 5 3 3 3 3 3 5 5 5 3 ",
"7 H X.T 4 2 y 2.H 5 : 7 +.d 5 T 9.7 ; & ; , 2 3 % ; 5 7 7 d ( | ( +.5 ; 3 y 4 3 2.y 4 y F e e T y d 5 ; ; 3 k 7 m 6 , ; ; 5 d ( ",
"d d d e 6 6 e ( H y 5 d -.T 5 y 3 ; * ; 2 3 2 3 2 5 5 5 7 d m y ( ( 5 ; 4 ( ( ( T y F -.4.4.-.-.3 3 2 ; ; 3 7 7 ; 3 3 ; , 7 5 ; ",
"4 2 3 5 d ^ +.X.( +.T H -.( 4 6 3 , 3 7 d y k d 7 7 6 5 y ( T 7 3 7 5 ; 7 +.+.2.X.-.-.#.-.-.-.H 5 3 , 3 5 5 7 d ; k k , 3 y 3 X ",
"5 2 3 2 d +.2.X.X.9.+.d ( T 4 5 7 3 2 3 5 3 3 5 k d y d ( +.X.d & 5 7 5 H +.X.X.-.0.-.F 6 F F 4 T 3 3 7 d 7 y | m T 6 ; ; 5 3 % ",
"5 7 5 3 5 d m k +.9.X.6 7 6 3 5 +.y 5 6 d 7 3 ; 7 T X.X.X.+.X.m ; d d 7 ( -.+.-.` 4.4.` L #.` e T 3 ; 3 7 7 d +.| 5 ; ; ; ; ; 3 ",
"; 3 3 ; 2 7 d y X.+.d 3 3 ; ; 5 7.( d +.9.7.d 3 d ( +.X.( | ( d 7 ( d 3 7 ( X.7.X.9.y.y.e.-.F 6 6 ; % & ; 5 k T 7 , ; 3 5 , 3 7 ",
"; 3 3 ; 2 y T k y y 5 3 ; $ % 3 6 3 3 7 T d 6 3 m m y 7 d | ( d 5 d 7 3 7 ( ( ^ -.-.4.e.-.F 4 6 y 3 ; $ ; 3 6 5 3 3 5 7 6 3 3 5 ",
"d T 7 3 3 7 6 ; 5 3 , 2 ; o o 2 6 3 2 3 6 7 m X.d 6 3 2 k +.+.m ; r d 7 +.7.^ T y 4 2 4 4 2 4 ^ X.( 3 = ; 5 5 ; 3 k d 3 ; ; ; ; ",
"- k i 5 , * < - ; [ | ; * ; ; - * * , 7 y 5 3 7 7 5 3 3 3 3 5 m 3 7 ( ( e T d ; % 2 F 2 & : -.i.7 ( d ; = , 3 , 3 7 7 3 ; ; 3 5 ",
"; 5 < 3 3 < 0 , 0 i 5 , - X . % 3 ; 3 y T y y ( 7 5 3 3 3 2 5 k ; ; 5 7 3 7 e 3 4 e L ` -.4.-.^ ; 5 7 3 ; 3 5 3 7 m d 3 & % % & ",
"$ - + - 3 3 v < 5 5 3 3 5 ; * < 5 2 3 7 d y d +.7 5 3 3 3 , 3 7 5 : 7 +.X.2.9.0.6 e F -.e.y.-.3 5 T X.d 5 5 3 ; ; 2 3 ; * = ; 2 ",
"o + . $ , 3 v 5 ; k k 3 m >.m i 3 ; 2 5 5 3 5 d 7 5 3 2 , , 5 d r ; 5 +.^ T ^ ( 2 6 F H ` ] ` T d +.7.( 7 3 ; * 6 7 5 2 ; ; ; % ",
"* , % > 3 < c l * 5 5 < 0 v < ; ; , 5 7 3 ; ; 7 6 3 ; ; ; 2 6 ( ( 3 7 +.T 6 2 ; 4 H ` L F ` -.4.3 7 d 7 5 3 3 3 y 6 3 , 3 5 ; & ",
"5 0 < 0 5 > 0 0 , - * < 0 - @ , 3 3 6 k 3 ; ; 7 3 3 , 2 3 3 7 ( d 5 r 6.2.+.^ 6 ` ` H ` -.e.-.e 3 6 7 6 5 3 5 7 3 , ; ; 5 d 7 3 ",
"0 v 5 v 0 > 5 5 5 > - < 0 , - m 5 2 2 3 3 ; 3 7 3 2 3 5 5 5 6 y 3 ; 5 d T 7.7.7 T H F ` 4.4.F : T m m y 5 3 5 7 X.T 6 3 3 3 , * ",
"z i 3 m M 5 v k M >.0 ; , 3 5 Z 5 ; $ ; , 2 3 5 , 2 5 d c 5 5 5 d k d d d 2.-.3 7 H X.X.` ` y 6 7 k k 7 5 3 3 6 k d 7 3 3 5 6 6 ",
"k 5 5 7 k 5 5 d | +.| 7 5 k 5 , , ; = ; , 5 5 5 3 5 5 3 5 k M m 5 7 d d 7 7 6 7 3 7 m y k m m 6 , 3 3 3 5 d y 5 7 7 7 6 5 6 y ( ",
"5 3 3 5 k k d X.k | +.d 6 7 7 5 , ; * = 2 5 6 6 3 3 2 2 5 c M c d 7 5 3 5 5 3 3 , 5 k 5 5 c c k 2 3 3 3 5 7 6 3 d 7 5 5 5 5 2 ; ",
"7 3 3 5 y m | <.5 T X.d 5 3 3 5 3 , ; , 3 5 5 5 5 3 , ; 2 6 6 5 | 7 5 5 d ( 7 3 6 k 6 3 2 3 2 , , ; ; 3 3 3 2 3 5 3 2 5 T ( 5 ; ",
"| k 5 5 7 d T T d T ( T 7 3 2 3 y 5 3 3 5 5 2 , 5 2 ; * , 3 2 = 7 7 7 d 7.7.T 5 y k 3 , , , , = 3 ; , 3 5 2 2 3 3 , 3 y 2.0.X.k ",
"| d 6 3 5 7 7 7 ( 7 6 d d 5 2 2 m y k k k 5 , ; 5 3 ; ; , 3 3 ; 3 3 5 7 d d y 7 5 , ; ; , 2 2 , 5 5 5 7 7 5 5 6 5 5 7 y T T d k ",
"6 6 5 3 3 5 7 7 6 ; * 3 5 2 ; , 5 k y k 5 3 3 3 3 3 3 2 3 k 5 , 5 5 5 3 ; 3 7 m 6 , * ; 2 3 2 , , 3 5 3 3 3 3 3 3 3 5 3 3 3 5 7 ",
"; 5 6 3 3 k ( | 5 & % 2 3 ; ; 3 3 5 6 5 , , 5 k 5 5 5 5 5 6 3 ; 3 3 5 5 3 5 7 d m 3 ; , 5 3 , ; % 3 3 ; = 3 3 ; ; ; ; ; ; ; 3 6 ",
"; 6 d 7 6 T 2.0.T 3 3 y k , 3 T 3 5 5 , * * 5 W 5 k y 6 3 3 ; % & ; 3 7 d 7 7 5 k , * , 6 6 3 2 $ 5 6 ; = 5 5 ; 3 3 2 ; ; ; 2 3 ",
"2.d ; 2 T 3 3 9.+.k 7 ( ( 5 3 3 ; 6 3 ; ; = , T 3 5 d m 7 3 ; ; ; ; 3 7 7 7 7 d | 5 * ; z c 5 k 5 5 3 3 5 7 3 = ; 2 3 3 5 7 5 2 ",
"<.m 3 5 d ; ; 2.d 3 3 7 5 ; & = 7 m 7 3 3 , ; 5 y 3 ; ; 3 6 3 ; 5 5 7 7 7 5 5 7 <.<.k k 3.:.5 , k d d y d d 5 , , 3 3 3 3 5 5 2 ",
"+.T 7 y y ; ; ( 5 2 3 7 y 5 3 5 5 k 5 3 k 7 3 7 m 3 & & ; 5 5 3 J d d d 7 3 3 3 5 m k 5 :.<.5 ; 3 5 k y d m y 5 2 3 5 3 3 3 5 3 ",
"X.d 7 d 7 ; ; 6 5 3 3 6 k k d X.3 6 3 3 7 7 5 y 7 7 5 3 ; 2 5 k ( d d d 7 3 2 3 % 2 ; % 3 M 6 2 3 5 y k 7 7 5 3 2 5 6 3 3 5 6 7 ",
"| 5 3 k 6 2 , 3 7 5 , ; ; ; 3 7 d ( 7 3 3 3 3 7 d 7 5 3 ; 3 7 J d 7 7 k 7 5 3 6 ; 5 , $ , 6 5 , T X.+.m 7 5 3 ; ; 5 6 5 3 7 d m ",
"( , , 5 3 3 3 2 y 6 3 ; ; 3 7 T ( +.d 5 3 3 5 ( ( 5 & & 3 d ( ( 7 5 7 7 7 5 7 m ; 5 3 , 5 6 3 2 m T m 7 7 7 6 3 ; 3 5 5 5 d T m ",
"d ; , 5 ; ; 5 3 d d k 6 6 d <.9.+.+.7 5 7 7 7  .d 3 & ; 3 d Z d 7 7 7 k 7 7 k T ; 3 3 3 k 6 3 5 5 5 3 3 5 7 7 5 ; 3 3 5 7 d d 7 ",
"y ; 3 3 $ & 3 3 d ( T k 7 y ( | 9.7.d 5 7 7 3 5 3 5 7 7 7 5 7 d d d k d 7 7 k T k y 5 3 6 3 , k | d 5 2 3 5 3 ; ; 2 3 3 7 d 7 3 "
};
