/* XPM */
static char *ece62b8cfa9145fe9ea9163bda3c7519Zm5C36xbTsWzABEP[] = {
/* columns rows colors chars-per-pixel */
"64 64 189 2 ",
"   c #8C4225",
".  c #8E4729",
"X  c #8E4F2E",
"o  c #94462A",
"O  c #954B2D",
"+  c #994C2F",
"@  c #974D30",
"#  c #9B4D32",
"$  c #955535",
"%  c #9C5335",
"&  c #955B37",
"*  c #9E5836",
"=  c #95563A",
"-  c #9D5539",
";  c #945A3A",
":  c #9C5B3C",
">  c #A64F34",
",  c #AA4F32",
"<  c #A35336",
"1  c #AC5335",
"2  c #A3563A",
"3  c #AA553B",
"4  c #A45B3D",
"5  c #AA5B3E",
"6  c #B0563E",
"7  c #B35B3D",
"8  c #97613F",
"9  c #9D613F",
"0  c #A3613E",
"q  c #9D5D42",
"w  c #A55E41",
"e  c #AA5E42",
"r  c #A35F48",
"t  c #B35E43",
"y  c #BB5F45",
"u  c #9D6243",
"i  c #9E6A45",
"p  c #A56344",
"a  c #AB6245",
"s  c #A26945",
"d  c #AB6A47",
"f  c #A56649",
"g  c #AC6549",
"h  c #A56B4B",
"j  c #AC6A4C",
"k  c #B26346",
"l  c #BB6345",
"z  c #B3654A",
"x  c #B9664B",
"c  c #B36B4D",
"v  c #BA6B4E",
"b  c #A7714B",
"n  c #AD714F",
"m  c #B2724F",
"M  c #B9704F",
"N  c #A76E52",
"B  c #AD6D51",
"V  c #B56750",
"C  c #B46D51",
"Z  c #BB6D52",
"A  c #BD6F59",
"S  c #A77252",
"D  c #AD7252",
"F  c #AE7A55",
"G  c #AE7758",
"H  c #AE7959",
"J  c #B47254",
"K  c #BB7355",
"L  c #B67857",
"P  c #BB7956",
"I  c #B57659",
"U  c #BC7559",
"Y  c #B47B5A",
"T  c #BC7B5B",
"R  c #BD7D61",
"E  c #C15F44",
"W  c #C06246",
"Q  c #C3644A",
"!  c #C9654B",
"~  c #C36B4F",
"^  c #C26E52",
"/  c #C17555",
"(  c #C27355",
")  c #CB7255",
"_  c #C3735A",
"`  c #C17659",
"'  c #C1775A",
"]  c #C3765A",
"[  c #C27559",
"{  c #C67758",
"}  c #C3765A",
"|  c #CA765B",
" . c #C37859",
".. c #C57959",
"X. c #C3795E",
"o. c #C17A5E",
"O. c #C2785D",
"+. c #C5785C",
"@. c #C47A5D",
"#. c #C5785E",
"$. c #C57B5E",
"%. c #C67B5E",
"&. c #C77E5E",
"*. c #C67C5F",
"=. c #C37B5D",
"-. c #C97A5B",
";. c #C87B5E",
":. c #C87C5C",
">. c #CA7B5E",
",. c #D67356",
"<. c #D1775C",
"1. c #DC765D",
"2. c #D17A5E",
"3. c #C17661",
"4. c #CB7661",
"5. c #C77D60",
"6. c #C47D61",
"7. c #C47E64",
"8. c #C47D61",
"9. c #CA7A61",
"0. c #CB7B62",
"q. c #C87B61",
"w. c #C87D60",
"e. c #CB7E62",
"r. c #CA7D62",
"t. c #CE7F60",
"y. c #CC7C63",
"u. c #CA7E64",
"i. c #CB7E62",
"p. c #C67E68",
"a. c #CD7F69",
"s. c #D27D62",
"d. c #BF805F",
"f. c #BD815F",
"g. c #B78262",
"h. c #BF8361",
"j. c #BD8362",
"k. c #BF8669",
"l. c #BC8A69",
"z. c #C3815E",
"x. c #CC825F",
"c. c #C28060",
"v. c #C18162",
"b. c #C28362",
"n. c #C08563",
"m. c #C58466",
"M. c #C48263",
"N. c #CA8063",
"B. c #CD8161",
"V. c #CB8165",
"C. c #CD8366",
"Z. c #CA8566",
"A. c #CC8567",
"S. c #CB8265",
"D. c #C58967",
"F. c #C48866",
"G. c #CA8966",
"H. c #C78668",
"J. c #C58569",
"K. c #CE8669",
"L. c #CC856A",
"P. c #C58B6C",
"I. c #CA8868",
"U. c #CD8C6C",
"Y. c #CC8A6B",
"T. c #D08067",
"R. c #D38465",
"E. c #D28365",
"W. c #D3866A",
"Q. c #DB856C",
"!. c #D28A6C",
"~. c #D98B6E",
"^. c #C7926F",
"/. c #D0916E",
"(. c #C68D70",
"). c #CF8D72",
"_. c #D68F71",
"`. c #D48D71",
"'. c #D88E73",
"]. c #DB8D71",
"[. c #CB9274",
"{. c #D29171",
"}. c #D39272",
"|. c #DB9275",
" X c #D59478",
".X c #DB937B",
"XX c #DE9B7D",
"oX c #E08B6E",
"OX c #E39C7E",
/* pixels */
"u h h f T j J f u L Y h h h h B q h q r f u f f f j B C C g z u.z 3 + k v < 3 5 4 ( Z k 3 3 K K h J j J J h c p 4 C z c Z z [ r.",
"h L I J m.J v.T I R T R H.v.T R C 7.I J B f B I f B B h V z V r.-.:.v / { / y. .v S.-. .( / R.&.I b.h.D.v.P v.T S._.&.#.#.K #.-.",
"- a a w C 4 C J c g a C 8.J g c w J g g p : h I D T I c V c z Z k P k 2 3 a K a 5 c k x Z v Z 5 I b.T T J h v.I.c U z C [ K [ [ ",
"a c z a U e Z Z - < % 3 a 4 % 4 w C a g j f J T j I K g c c g e a  .Z a a c #.v 4 k a x K v c - f D j n f : c P 4 z e a z 4 5 4 ",
"^ _ A A T.z A V z 9.9.A A A A #.V K a c T J J j C X.K c U 9.9.y.V [ U #.X.P V.#.X.V.X.N.K.C.'.K.J f.v.{.U.T T P K C.#.8.r.K #.r.",
"k z e k _ 3 e 2 # z V 3 # < 3 k e g - e Z c g w a g 2 # 2 e x _ U T K 8.U a g g 4 a - - 2 w [ 8.j j f J J p a a w C p e p 5 Z r.",
"e k k z _ 5 e e e V V z k k k A a Z a c K c Z C [ [ Z v A Z ( a._.`.V.L.7.V C V c K V C V j V.Y.N.T c T T c T *.&.K.K v c a Z [ ",
"z Z Z U C.g A U K Z Z [ r.U Z #.K C.#.[ K a Z [ e k v _ -.Z x ( X.8.C J C V U I g I I 8.U j K J C P P !.Y.P P K C *.Z K &.[ #.&.",
"- g 4 p a - a J c J c C c w p - e z * % 2 % a v z z # e x 5 5 5 e C g g p p V w : p p C j = : - p J g w : : z a a 2 O p z % 2 4 ",
"L T h C L j L R I v.I I C f I I a Z a z Z z ( { { E.( ( | _ -.{ Z 8.K U 3.8.L.T K U C 8.3.K 7.8.J U C U *.X.8.J U #.K U K a c z ",
"j J u h I j j j f J f f : $ D T g P v K ( k x z k -.v k z x ( Z a C z C U X.V.K 8.X.c C C c [ U c z e P C.&.[ a c C.&.K z Z r.U ",
"= f : h J h f = f D f f u u Y v.f K a z x 5 5 3 5 ^ k k z k x k e c g c C Z u.[ ' K e e e 4 g e a w % c [ c g 2 * c a 2 % w P C ",
"J m.h.I.[.m.v.T h J h J I J b.v.I &.J P :.{ >.y.-.E./ E.!. . . .[ S.#.#.[ / W.!.C.C.[ &.N.:.W.r.#.#.K C.C.[ N.C.r.W.&.8.X.K r.X.",
"q C p p f : f f f h p B I J T j 0 g : p v x K ( 5 5 < a v 2 * 2 4 a 2 2 % + 5 p 4 k 5 a k a x p e z e a e 4 Z [ z c a K K e e 2 ",
"h T h f j j I I C J g J T I T J J z.m P :./  .{ v -.v /  .M K / /  .v K ( x { K x / x x k a v a c ( c c c c r.#.z z p C Z p z a ",
"C N.K U N.V.`.!.I U c K U K X.K j P v P N./ ( v v W.>./  . .C.S.:.:.v  .S. .>.( / S./ ( v v -.( { y.( K [ #.C./ C.W.[ K K Z N.N.",
"e g 4 w e 4 k 5 k z 3 5 e 5 v z 5 5 % k Z 4 5 k 5 v k 2 + + a p c a : d a % 2 5 e k 5 e e 3 e < < 5 < e k 5 5 % e 4 % 5 2 4 K z ",
"#.C.8.C.C.#.C.#.{ -.A { { ( y._ Z #.K #.E.{ _ Z { 9._ 9.r.[ C.V.g L I *.N.X.r.K ( _ Z { { _ y.-.( | ^ | >. .y./ z / K K x K =.5 ",
"c T K X.T C U K K [ C K K c K z a [ c c K Z Z a e 4 2 v K k z g p T T I P  .&.a e z k Z Z v [ Z v Z k v Z v { K v  . .N.P K P 5 ",
"h J h c j p J J C U J U K g c e a Z 5 e z a z a k k e Z ( z v g : I j f p g Z 2 o < 2 k k 3 e 2 k k 3 e k k v k p % + k 5 O * * ",
"h.m.f.P.D.T m.m.T m.*.I.S.T N.U K ( z P r.Z K [ Z #.K K K K -.K P m.v.N.N.8.W.r.V _ { y.y.[ r.[ E.W.:.R.!.R.W.S.N.K v R.N.v &.N.",
": 9 : j j : : : $ : $ 4 p : f 4 + # o e z # # * 4 Z z e 4 e Z g : p p c c 4 a e 3 k 5 e e 4 z z e k 5 k x a k 4 z K K P K v  .a ",
"T T J v.m.I P J I T c I P J *. .v ( c [ N.K K K v  .K P K c [ K j P J U J a z k k Z z v z a K K a z e x v z v a 5 x v x a k v % ",
"XX{.T I.U.N.U.Y.K.Y.T T U K r.#.-.W.[ K #.X.N.*.8.8.X.W.W.K [ [ N.U.N.*.U K y.#.( a.y.W.C.[ r.#.:.S.[ S.R.S.!.:.:.:. .C.&.P N./ ",
"C P 4 % % 5 z 2 2 % # z a o 4 Z e v e 2 4 p c : 4 g w 5 4 2 a 4 p P p .   * c 2 < 5 e v z % e g a a * % % % p 5 % p p v a * 5 5 ",
"Z r. .#.[ K { c c { { T.E._ W.W._ r.Z C C J *.J I m.8.V.r. .r.K K *.P U K Z [ c k Z Z  .P z P P  .&.v v K v  .v v v a K M 0 k k ",
"[ C.r.r.K k Z v v y.{ { _ | E._ A [ Z [ U J P j J *.T 8.#.P -.Z V.*.J 8.r.Z #.-._ a.[ [ P K V.*.*.N.P *.N.z.C.P C.W./ P [  .S.K ",
"c K z z 5 + 4 e 3 k 3 < 2 5 z 3 # < # e p $ $ X p h p a p 4 z a z 4 O 4 w # 5 a z v 2 # @ - a 4 * 4 % 4 a a z 2 5 K 5 O % z v O ",
"*.S.V._.W.&.C.N.r.C.[ y.E.y.W.E.{ -.K r.S.T b.f.D.U.m.Y.W.r.~.W. .8.[ C.C.#.y._ r.W.[ K K T N.P T z.P T z.N.K.T  .W.&.P  .C.~.[ ",
"J I g c C c P C C c g  .[ a a e V V e p a a L L f j h J Z a z k c P c c c z _ Z z K Z [  .K U h J T c m M c P g P M k &.:.x K  .",
"T T h p 4 f P J J J g P K 4 p w e z 2 - : : j u 9 f p j z 3 e 5 a c e 5 2 < z V k c z K K g c a a m d j d 0 g 0 p 5 * k z * 4 4 ",
"T Y.v.T T N.!.v.S.!.N.K.K.N.|.|.0.].W.W.W.U.!.P m.G.T S.N.( s.y.[ V.N.!.C.K r.C.W.K. .N.X.c T N.K N.x.S.x. .N. .&.!.:.{  .>.s.k ",
": : : C C 2 2 2 k Z e 3 < 2 z e < 3 3 v K 5 p 5 x P k 5 5 t ^ k e g I N.T g w a C T j f f j T K s.l 1 ) | 3 2 3 x Z 3 > 7 W ) y ",
"v v a K K v r.C.K { z z z z ( Z x x k -.>.x K / /  .v v ( ^ <.^ a h I T T J j h T T B j h g J c 5 7 7 ( ^ 5 k k k x 3 5 t l ~ 7 ",
"{.|.S.S.V.V.XXOX8.r.K r.C.#.N.{ | s.| y.>.-.!.W.=. .v -.s.| s.{ &.v.N.N.L.L.N.T 8.N.T N.m.8.Y.Y.z.!.W.!.!.U.{.v.m.Y.N.W.!.S.!.x.",
": h 4 : - $ p : - : - g g : : % < Z k < % a P a a p < k x 5 k e a g p : : f p : : : = j C f J I J m & & s n D ; u u u j h : p 0 ",
"J v.*.m.m.v.Y.N.j J j T I p j c v :.( K v K &.K P P v  .K k K / X.v.T J J T 8.T C C g I T j I I Y.j.b F g.g.l.H Y g.Y h.f.m T P ",
"T v.T S.Y.m.{.Y.Y.{.m.D.f.I P.{.W.#.K _.~.P  .C.N.K.&.N. .v &.r.P I J J J I T T L.I.8.Y.Y.8.I.H.m.F.j.^.P.G R R R k.R b.R T N.X.",
"p w - a c a j h d J f f 9 : n j w % + z C - : p g J a a 4 : a p g p w a j j g g w g 4 p p p C g a J C T B : q q j J g g k z Z k ",
"#.[ Z W.|.K.!.Y.X.U.I.Y.Y.I.{.v.T C.*.S.!._.{.T m.!.N.T T T D.T S.I C *.L.N.U K P 8.K J J I S.T P &.U 3.7.3.p.K 3.W.q._ 4.s.Q.) ",
"Z W.z v v z W.K g g p J K a c c T S.U K X.S.U.I v.T j m.Y.J h 0 J S.X.I I T Y.X.C J C N.V.J K C U V.z C K 3..XL.L.a.A a.Q.Z v _ ",
"5 ^ t e 3 < v a % 2 % p g p C c T T a p a g J p p p : j n : : $ w c p p w p J g w g w j j 4 w - w g O - : : I B r j w Z ' a 5 5 ",
"~.].Q.~.~.~.].~.y.W.r.C.E.C.|.W.|.}.N.L.!.K._.L.8.I.m.P.P.m.P.m.N.Y.8.V.V.8.!.K.X.L.8.8.8.U 8.K T M.D h.m.Y (.j.g.[.P.}.XX{.!.G.",
"( e t z _ -.v v Z #.c z z c { v J J j X.8.J K c K 8.L Y Y Y j.J C K g K K g K C C X.C C C C X.c p n f j.j.h H h S g.S S Y Y d.T ",
"a 2 4 p z v p a e c e 5 e z P c V c g U U a a w c P g h j D Y h 4 e 4 c c a c g a C a e e a C a * d 0 T T u j u u D u & u s n d ",
"*.Y.!.!.N.*.S.!.X.S.X.8.r.N.'.W.K.L.X.!.!.q.C.u.u.Y.8.v.P.P.[.m.K #.U V.!.K._.C.u.W.#.q.X.' V.#.{ R.{ R.C.P `.I.T U.T T D.M.G.z.",
"p T n m f : I j J I g J J g C c c C g C Z V U V z C j J D N H B g Z g V Z K X.V U [ C U U V U A W ,.E Q y 7 >.| k ( z v [ x x k ",
"D F.s n J J Y.g I P c T U g c c C ' Z U U c V w z K V I B u h h C X.V g g c I a a a 4 c c w z x W 1.! ! y t s._ e z 5 k v e a e ",
"^.P.^.}.}.I.Y.!.V.C. .C.C.T V.C.W.~.`.OX}.I T *.V.W.W._.N.m.}.Y L b.L.`. XY.b.Y.T z.T M.T c T S.R.oXR.~.W.E.|.'.C..X!..XXX7.R L.",
"i i s h f 4 4 p K Z a v v a C c 3 k z N.T p f h g c c C p a Y u = q p f C f w a g J J z.P 0 d d 0 x z Z c e g 4 w I h j B f f B ",
"Y j.F.j.T T X. . .[ c K P C  .P v A K Y.S.J J J U &.[  .J T Y.T K U K I q.I C U v v a K J a J P k K v / K a g w B N.J h C J R T ",
"n T b.T P *.&.X.#.r.K &.V.N.!.V.W.W.X.S.S.T v.N.P 8.[  .U T Y.v.C.a.[ [ r._ K [ r.r.K &.r.P N.C.=.S. .N.r. .V.8.8.`.N.b.m.m.).L.",
": h c h a g c g 2 e 2 p g a c p e 4 o * : $ f h p C a c c j L J Z v t t v z e z e z a K Z 2 - + w a - 4 w 5 c g : w q B j w h f ",
"T *.8.*.T T [ K P N.T *.*.T N.U K [ v *.v.P v.*.c &.K [ N.T T T ( ( ~ ^ | ( ( -.-.r.q.W.C.K U K U &.K X.8.T N.T U J K ).L.R L.J.",
"K C C K K C z z c X.K J c g P C Z [ K *.f.J I j C N.K [ N.P T *.K ( ( ( -.{ ( r.#.q.U 7.q.K L.`.U *.J T T K T C T K J 8.U K L.U ",
"p 2 - e a 5 2 2 w c a 4 : : g g 2 e 5 h f & p : p K a a C f f c 5 k k k z 5 4 k w g g Z V r B I J I g c c g C g C C g p % w C - ",
"( r.#.C.N.#.C.8.8.S.U U P J &.U K &.P T T T U.S.N.N.:. .[ *.N.G. .S.=.=.=. .C.N.I T b.H.H.J.H.H.R L.R b.N.8.K.8.N.N.V.K.!.!.C.V.",
"z Z c Z C g K v U T C T U c K K K X.c j j h L J a c ( [ [ P J m g K c c d p m h c J L L J h f f f J J T T J I j C K U U K V c c ",
"c K c K Z z P J a a w C v 5 a e a c p 9 : : h f - e c Z c a : $ $ 0 : p d d I J $ : u p q : = = $ u u h h f g : a c Z c a 5 e a ",
"K #.K 8.&.K *.T N.!.W.'.'.W.~.y.C.!.m.I.D.h.U.I.C.W.~.W.W.V.v.*.D./.G.G.m.v.I.T P T T v.b.N.m.L.R P.h.J.H.b.Y.v.U q.N.N.-.#.-.y.",
"2 e 5 c c 4 a p p P C z z Z _ t p z f j h : p : 4 5 e e e a g c p j f f f p j p g g a p p p a z q h q u p q f q g z c c v Z Z v ",
"p g a P J a g h g X.K c v ^ | x a c h J J s j h a z z z c c C J p h p j L T Y.N.[ / K v x x v K h G D I I B J g a e e a k k k k ",
"V.C.&.!.Y.T v.N.*.V.#.E.s.| s.| [ N.T Y.P.j.P.U.W.W.Q.W.E.N.N.8.b.L.T T 3.X.W.#.W.R.E.s.>.-.2.y.J.(.J.P.P.H.).J.N.V.C.C.E.E.E.E.",
"C c p c a - p f a w 2 Z Z 3 6 t Z J h J D f D J K K ( Z Z c c C C J p g g g K z z x x k 7 1 , < f N u q q q B g g c Z Z x x v ( "
};
