/* XPM */
static char *_5b3d98c7ab5496fce53955907b74d2bkxgnpZFagWM3GGWk[] = {
/* columns rows colors chars-per-pixel */
"85 64 16 1 ",
"  c #77C8F7",
". c #77C7F8",
"X c #76C7FC",
"o c #75C7FF",
"O c #76C7FE",
"+ c #76C7FF",
"@ c #76C8F8",
"# c #76C8FA",
"$ c #70C9FF",
"% c #73C8FE",
"& c #72C9FE",
"* c #72C8FF",
"= c #73C8FF",
"- c #72C9FF",
"; c #75C8FC",
": c #75C8FE",
/* pixels */
"=====================================================================================",
"=====================================================================================",
"=====================================================================================",
"=====================================================================================",
"=====================================================================================",
"=====================================================================================",
"=====================================================================================",
"=====================================================================================",
"=====================================================================================",
"=====================================================================================",
"=====================================================================================",
"=====================================================================================",
"=====================================================================================",
"=====================================================================================",
"=====================================================================================",
"=====================================================================================",
"=====================================================================================",
"=====================================================================================",
"=====================================================================================",
"=====================================================================================",
"=====================================================================================",
"=====================================================================================",
"=====================================================================================",
"=====================================================================================",
"=====================================================================================",
"=====================================================================================",
"=====================================================================================",
"=====================================================================================",
"=====================================================================================",
"=====================================================================================",
"=====================================================================================",
"================================:::::::::::::::::=o=o=o=o=o=o=o======================",
"===============================:#######   # ####.:o#o:o:o:o#o:o:=====================",
"===============================:# . . . . . . .#oo.ooooooo..ooo:=====================",
"===============================:################o:::::::::::::::=====================",
"================================o#o#o#o#o#o#o#oo::::::::::::::::=====================",
"================================oooooooooooooooo::::::::::::::::=====================",
"================================ooooooooooooooo:::::::::::::::::=====================",
"================================ooooooooooooooooo====================================",
"================================oooooooooooooooo=====================================",
"================================oooooooooooooooo=====================================",
"================================ooooooooooooooo======================================",
"=====================================================================================",
"=====================================================================================",
"=====================================================================================",
"=====================================================================================",
"=================================================$==$$==$$$$=========================",
"=====================================================$=$=$===========================",
"=====================================================================================",
"=====================================================================================",
"=====================================================================================",
"=====================================================================================",
"=====================================================================================",
"=====================================================================================",
"=====================================================================================",
"=====================================================================================",
"=====================================================================================",
"=====================================================================================",
"=====================================================================================",
"=====================================================================================",
"=====================================================================================",
"=====================================================================================",
"=====================================================================================",
"====================================================================================="
};
