/* XPM */
static char *_ac14c5aaadb4959ee81e5ae9660b2d8dDKgECouYRvnTEcx[] = {
/* columns rows colors chars-per-pixel */
"64 64 210 2 ",
"   c None",
".  c #2D1A2D",
"X  c #311C2D",
"o  c #3B1D2D",
"O  c #321E31",
"+  c #2D1F31",
"@  c #342233",
"#  c #3B2433",
"$  c #3B2936",
"%  c #3B2739",
"&  c #3D2C3C",
"*  c #3E313F",
"=  c #750E1C",
"-  c #7E0C1E",
";  c #7E101F",
":  c #6F0E1B",
">  c #461A2C",
",  c #4C1828",
"<  c #551325",
"1  c #531C2B",
"2  c #561528",
"3  c #521F31",
"4  c #690D21",
"5  c #7F0E21",
"6  c #770A20",
"7  c #6B1927",
"8  c #7A1626",
"9  c #422D3B",
"0  c #4C2B3A",
"q  c #452634",
"w  c #542535",
"e  c #582B38",
"r  c #45313E",
"t  c #4A323D",
"y  c #53333D",
"u  c #5C323D",
"i  c #5B232E",
"p  c #69242D",
"a  c #72222C",
"s  c #682A37",
"d  c #782732",
"f  c #62313B",
"g  c #6D313A",
"h  c #73333A",
"j  c #743A3D",
"k  c #7D343C",
"l  c #3E3141",
"z  c #433441",
"x  c #4B3543",
"c  c #433C45",
"v  c #4B3A45",
"b  c #4D3E48",
"n  c #473E4C",
"m  c #5A3A45",
"M  c #543C4A",
"N  c #523944",
"B  c #6C3743",
"V  c #793C43",
"C  c #773D47",
"Z  c #444149",
"A  c #4D4349",
"S  c #5B434D",
"D  c #574246",
"F  c #5C4452",
"G  c #564857",
"H  c #59505D",
"J  c #7E434B",
"K  c #79494C",
"L  c #644C5B",
"P  c #634959",
"I  c #64434A",
"U  c #5E5562",
"Y  c #6C4F60",
"T  c #6C5362",
"R  c #6F5868",
"E  c #715565",
"W  c #745C6E",
"Q  c #7A5E6E",
"!  c #715768",
"~  c #765D70",
"^  c #795F71",
"/  c #7C6374",
"(  c #7C6376",
")  c #75606F",
"_  c #800B1F",
"`  c #84111F",
"'  c #860F21",
"]  c #841322",
"[  c #8B1523",
"{  c #8D1925",
"}  c #841C2A",
"|  c #9E1525",
" . c #951B2D",
".. c #931A26",
"X. c #91162B",
"o. c #A51C26",
"O. c #A81C27",
"+. c #A51429",
"@. c #AC1629",
"#. c #A61C29",
"$. c #AC1B2A",
"%. c #A61426",
"&. c #B41F2C",
"*. c #A5172B",
"=. c #87242D",
"-. c #94222B",
";. c #9B252B",
":. c #9D2B2C",
">. c #9B2027",
",. c #842C34",
"<. c #892D35",
"1. c #8F2230",
"2. c #922330",
"3. c #9A2835",
"4. c #833136",
"5. c #84333C",
"6. c #8A343B",
"7. c #85383D",
"8. c #9A3739",
"9. c #99312F",
"0. c #A5232B",
"q. c #AD232A",
"w. c #A42A2C",
"e. c #AA2D2D",
"r. c #B5232D",
"t. c #B9252E",
"y. c #B52B2C",
"u. c #BB2B2E",
"i. c #A42F32",
"p. c #BB2730",
"a. c #BE2A31",
"s. c #B52831",
"d. c #A53333",
"f. c #AD3433",
"g. c #AB3439",
"h. c #A73C3B",
"j. c #A5383A",
"k. c #BD3331",
"l. c #BA3E39",
"z. c #B83736",
"x. c #C12B31",
"c. c #C43433",
"v. c #C83534",
"b. c #C53B33",
"n. c #CC3C36",
"m. c #CF3D38",
"M. c #D03F38",
"N. c #8F423F",
"B. c #A4433E",
"V. c #AD433F",
"C. c #B1453E",
"Z. c #B9413B",
"A. c #CB4236",
"S. c #CC453A",
"D. c #C8483B",
"F. c #D14037",
"G. c #D34339",
"H. c #D54A3B",
"J. c #D94C3C",
"K. c #D6503C",
"L. c #833B42",
"P. c #8A3B43",
"I. c #853641",
"U. c #973C43",
"Y. c #82454C",
"T. c #86494D",
"R. c #884B4E",
"E. c #854346",
"W. c #8A4E52",
"Q. c #864C52",
"!. c #8D5054",
"~. c #924145",
"^. c #AA4944",
"/. c #B14741",
"(. c #B34943",
"). c #826476",
"_. c #836779",
"`. c #856A7B",
"'. c #8A6C7E",
"]. c #8C677C",
"[. c #8A717F",
"{. c #C14942",
"}. c #8E6F83",
"|. c #916F83",
" X c #8E7184",
".X c #927185",
"XX c #957589",
"oX c #977B8C",
"OX c #997A8E",
"+X c #987789",
"@X c #9D7D91",
"#X c #9C8192",
"$X c #A28295",
"%X c #A58599",
"&X c #A8879D",
"*X c #AA899E",
"=X c #A7899A",
"-X c #AF8CA2",
";X c #B18DA3",
":X c #AF91A4",
">X c #B593A9",
",X c #B996AC",
"<X c #B696AA",
"1X c #BD9DB1",
"2X c #BFA1B3",
"3X c #C09FB4",
"4X c #C2A1B5",
"5X c #CAAABE",
"6X c #C6A8BA",
"7X c #D2B6C7",
/* pixels */
"                                                                                                                                ",
"                                                                                                                                ",
"                                                                                                                                ",
"                                                                                                                                ",
"                                                                                                                                ",
"                                                                                                                                ",
"                                                                                                                                ",
"                                                            ,X2X4X5X4X4X6X                                                      ",
"                                                        XX.XXXOX%X,X-X-X>X5X7X                                                  ",
"                                                     X X}.}.}.}.XX-X-X-X-X>X5X7X                                                ",
"                                                  '.}.}.}.}.}.}..X&X-X-X-X-X;X,X1X1X                                            ",
"                                              OX X_. X}.}.}.}..X XOX-X;X-X-X-X-X-X-X:X                                          ",
"                                            / /  X`.`.}.}..X X_.L F ).$X-X-X-X-X-X@XXX$X                                        ",
"                                          ~ ~ W ( oX).'.}._.Y x $ @ 9 F `.&X;X-XOX}.}..X@X                                      ",
"                                        ) W W W ~  X.XW T x 9 q 1 < > # 9 L XX.X}.}.}.}..X%X                                    ",
"                                        W W W W W /  Xv & $ , 4 - = 6 < o $ r F }.|.}.}.}.XX*X                                  ",
"                                      W W W W W W ( T 9 q 7 5 - - = _ = 4 > @ r ! }.}.}.}.}.OX-X                                ",
"                                    ! W W W W W W P x 0 8 %.+.X.] = - = - 8 , # t ! }.}.}.}.}.$X                                ",
"                                  1XoXW W ~ ~ W F r w  .| %.%.%.+.` - - - ; : < # r ! }.}.}..X*X6X                              ",
"                                :X;X3X$X! ! ! F r w  .$.#.%.@.@.$.| | ' _ ; = 5 < # x ~ .X}.@X;X;X4X                            ",
"                                -X-X<X4X*X! S r e  .@.$.$.@.@.@.$.+.@.+.[ 5 = ' 5 2 # M Q .X-X-X-X,X7X                          ",
"                              -X-X-X-X;X,X( $ 0 1.$.$.$.#.$.@.@.$.| $.@.@.[ = ] ] 5 , # x OX;X-X-X;X5X                          ",
"                              -X-X-X-X-X-XT & 0 s g B B B C 3.$.$.#.$.0.I.B e w 3 3 > X & ).-X-X-X-X,X7X                        ",
"                            -X-X-X-X-X;X'.x & & & l c c c Z D 3.$.#.$.V Z c c & @ + . . @ M +X;X-X-X-X1X                        ",
"                            -X-X-X-X;X@XM 9 9 9 9 9 r x v v g 0.&.#.&.<.N v v x % O X X X # T *X-X-X-X;X1X                      ",
"                          #X-X-X-X-X-XT 0 d -.} 2.2.2.1.=.2.q.&.r.#.&.&.;.1.=.2.-.} 7 7 7 > 9 '.-X-X-X-X;X                      ",
"                          =X$X*X-X;X}.x s r.t.O.r.t.t.&.$.r.t.r.r.o.r.r.r.&.O.t.r.r.>.] [ 7 # F $X;X;X;X-X                      ",
"                          %X<X-X%XOXP 0 3.t.r.o.r.p.p.r.$.r.t.t.r.o.t.t.t.r.O.t.t.r.q.{ [ [ 1 9 ).&X%X@X@X-X                    ",
"                         X}.@X*X-XW 9 s r.t.t.o.r.t.t.r.$.r.t.t.r.o.t.t.p.r.O.t.r.t.q.o...[ 8 # v / .X}.|.%X                    ",
"                         X}.}.}.@XR q 3.t.t.t.q.t.t.p.r.$.t.p.p.r.o.p.t.t.r.o.t.r.p.q.q.0.{ { 1 $ ! |.}.}.$X                    ",
"                         X}.}.}.XXP s s.a.t.a.q.p.a.a.t.q.p.p.a.r.O.a.u.u.t.o.a.t.p.q.r.p. .{ 7 $ L }.}.}.XX-X                  ",
"                         X}.}.}.}.M g a.x.x.x.e.u.x.a.u.q.a.u.a.t.$.x.x.x.u.o.a.a.a.q.r.a.0...8 # F }.}.}.}.@X                  ",
"                        }.}.}..X).x u 5.5.5.7.7.I.P.P.P.I.P.g.a.u.q.x.a.U.P.k P.P.P.k 5.7.d 7 1 # M '.|.}.}.XX                  ",
"                      '.}.}.}..XQ x 9 & & z & z z c c c c Z I g.u.q.k.P.A Z c c c z z l * @ . . # N ).}.}.}..X                  ",
"                      [.'.}.}.}.T 9 & % % & & z z z z c c c B g.u.q.c.7.b c c c z z r & & @ . . @ x Q `.'.'. X                  ",
"                  #X X}.}. X X.X/ 9 0 ,.<.<.<.,.<.4.,.6.4.6.z.v.a.r.c.c.8.4.d 6.,.<.,.,.<.a 7 1 # b ( _. XoXOXOX#X              ",
"                  _.W W W ~ ~ ~ / x f c.v.c.v.y.c.k.u.c.u.c.j.g.k.r.z.j.g.a.r.v.c.c.u.u.c.w.-.a $ M W W ~ / / / _.oX            ",
"                  ~ W W W W W W W x f c.v.c.v.y.c.k.k.c.y.h G S 8.e.C G m d.y.v.v.c.u.k.c.w.-.a $ M W W W W W W ~ '.            ",
"                  ~ W ~ W W W ~ R x u k.v.c.v.u.v.c.c.c.i.x H G 7.i.M U n k y.n.n.v.k.c.v.w.;.a $ M W ~ W W W W W (             ",
"                  W W W W W W W T x u z.n.n.c.u.v.n.n.v.5.m r N L.8.m t y B e.n.n.n.b.b.n.w.-.p $ v R W W W W W W )             ",
"                    R W / / ( ).P & y z.m.m.n.u.n.n.n.n.7.~.j.~.E.8.J h.h.C f.n.m.m.A.b.n.w.;.p @ x / '.}.'.( T T               ",
"                        XX.XXXOX_.r y l.m.m.m.k.n.m.m.m.d.V Y.C j.z.I.J J 6.k.m.m.m.A.b.m.w.;.p # L ;X>X<X>X2X                  ",
"                        }.}.}.}._.x y l.m.m.m.c.m.F.m.A.b.z.d.f.A.b.b.f.f.b.c.M.m.m.n.b.m.e.:.p $ T -X-X-X-X,X                  ",
"                        }.}.}..X).x y l.M.m.m.c.m.F.F.A.b.F.F.m.n.b.F.F.F.m.b.F.m.m.b.b.m.e.:.p $ Y -X-X-X-X>X                  ",
"                        .X.X.X}.W r t Z.G.F.G.b.F.G.G.F.b.F.G.F.n.b.G.G.G.F.b.G.G.F.b.n.F.e.:.i # F %X*X*X*X*X                  ",
"                  1X,X<X>X>X>X<X%Xv t 8.C.V.V.h./././.(.^.(.S.H.G.b.H.H.{.(.B.(.(./.h.h.V.<.,.w $ R $X@X@X@X$X*X*X              ",
"                  ;X-X-X;X;X;X;X>XP r 9 9 z z x x v b b A A K D.H.n.H.^.S A A b v v x z r # X @ 9 W .X}.}.}..X.X.X@X            ",
"                  -X-X-X-X-X-X-X*XP r & % & & & * l c c c Z D C.H.A.H.E.Z c c c l l * & & O . @ 9 E .X}.}.}.}.}.}.XX            ",
"                  *X-X-X-X-X-X-X$XM r f h h h g h j j j j V C.H.H.A.J.D.N.j j j j j g g h i 1 # # P }.}.}.}.}.}.}.}.            ",
"                  =X%X*X$X$X%X*X@Xv r B.H.H.J.b.H.H.H.H.b.H.J.J.A.A.H.J.J.A.b.J.J.H.n.n.G.f.:.w $ L '. X X'.}..X.X#X            ",
"            OXOXOX.X.XOX@X/ ( `.}.F r B.J.H.H.k.H.J.J.H.b.H.H.K.D.S.H.J.J.A.b.H.H.J.b.A.H.f.9.q 9 L ~ / / `.XX.X.XXXOXOX        ",
"             X}.}.}.}..X XW W W W M M K R.R.R.J R.R.R.W.Q.!.W.!.Q.W.!.!.!.W.Y.R.R.R.Y.Y.R.B f 0 9 P ~ W W ~ }.}.}.}.}..X        ",
"             X}.}.}.}.}.( W W W ! E ].|..X.X.X.X.X.XOX%X*X&X&X&X*X*X*X*X&X*X$X}..X.X.X.X.X|.].).Y L W W W ! `.}.}.}.}.}.        ",
"             X X.XXX.X.X}.`.~ W W )._._._.`.`.`.'.'.OX@X@X@XOXOXOXOXOX@X@X@X@X@X+XXXXXXXXXXXXXXXXX X'. X X( _.'.'.'.`._.        ",
"                                                                                                                                ",
"                                                                                                                                ",
"                                                                                                                                ",
"                                                                                                                                ",
"                                                                                                                                ",
"                                                                                                                                ",
"                                                                                                                                ",
"                                                                                                                                ",
"                                                                                                                                ",
"                                                                                                                                "
};
