/* XPM */
static char *_8c67cae93fc4779ce470e4cce8f7ce8tGozPkIlJVshHP4K[] = {
/* columns rows colors chars-per-pixel */
"64 64 201 2 ",
"   c None",
".  c #0E0D0D",
"X  c #0B0709",
"o  c #150A0E",
"O  c #14070C",
"+  c #0C100F",
"@  c #160D10",
"#  c #1D0C14",
"$  c #1B0710",
"%  c #0E1111",
"&  c #131212",
"*  c #1B1216",
"=  c #171817",
"-  c #161919",
";  c #1A1C1B",
":  c #1F1318",
">  c #210F16",
",  c #211017",
"<  c #25131A",
"1  c #29161C",
"2  c #26191C",
"3  c #2B191D",
"4  c #32191C",
"5  c #1D211F",
"6  c #3A221F",
"7  c #2D1C21",
"8  c #261B21",
"9  c #311E23",
"0  c #3B1D21",
"q  c #1E2322",
"w  c #212625",
"e  c #2D2125",
"r  c #2C252A",
"t  c #262B2A",
"y  c #2B2C2C",
"u  c #232A26",
"i  c #342226",
"p  c #3C2322",
"a  c #362629",
"s  c #35292C",
"d  c #3B2B2C",
"f  c #3A272A",
"g  c #2B322F",
"h  c #3B2C31",
"j  c #332C31",
"k  c #2D3433",
"l  c #2E3937",
"z  c #343235",
"x  c #3D3132",
"c  c #353D3A",
"v  c #3A3C3E",
"b  c #333A36",
"n  c #2F2E31",
"m  c #421A22",
"M  c #442E2F",
"N  c #4C2527",
"B  c #54292B",
"V  c #592A2D",
"C  c #562429",
"Z  c #4D352D",
"A  c #523324",
"S  c #443333",
"D  c #493634",
"F  c #463937",
"G  c #4B3937",
"H  c #4B3C39",
"J  c #42383C",
"K  c #503D3A",
"L  c #4E2D31",
"P  c #662C30",
"I  c #693133",
"U  c #7B3539",
"Y  c #753437",
"T  c #37413D",
"R  c #39433D",
"E  c #4E413D",
"W  c #53423E",
"Q  c #63412B",
"!  c #754D2E",
"~  c #6D4D39",
"^  c #3D3F41",
"/  c #453D40",
"(  c #3C4543",
")  c #3D4945",
"_  c #3B4645",
"`  c #464347",
"'  c #414C46",
"]  c #424C4A",
"[  c #474749",
"{  c #554642",
"}  c #594641",
"|  c #554842",
" . c #5B4C45",
".. c #5B4E48",
"X. c #544B4E",
"o. c #45504D",
"O. c #4A524D",
"+. c #5D5149",
"@. c #465351",
"#. c #495554",
"$. c #4B5957",
"%. c #4E5B59",
"&. c #515E5D",
"*. c #575557",
"=. c #564F52",
"-. c #624F49",
";. c #644E45",
":. c #63534B",
">. c #69564D",
",. c #64594F",
"<. c #6D584F",
"1. c #665A50",
"2. c #6C5D52",
"3. c #615859",
"4. c #715D53",
"5. c #54605E",
"6. c #59635C",
"7. c #6D6155",
"8. c #726256",
"9. c #756559",
"0. c #7B665A",
"q. c #77695B",
"w. c #7B6B5D",
"e. c #796252",
"r. c #565F60",
"t. c #556362",
"y. c #596665",
"u. c #5C6966",
"i. c #5D6B6A",
"p. c #656365",
"a. c #636C6B",
"s. c #696866",
"d. c #7D6F60",
"f. c #7B6E68",
"g. c #65716D",
"h. c #7E7060",
"j. c #7D7069",
"k. c #6A7674",
"l. c #6C7877",
"z. c #687574",
"x. c #737D7B",
"c. c #767977",
"v. c #86393D",
"b. c #8F6137",
"n. c #926439",
"m. c #933E42",
"M. c #905146",
"N. c #A34348",
"B. c #BC4C51",
"V. c #BC4C51",
"C. c #B0484C",
"Z. c #816D5F",
"A. c #8B6F57",
"S. c #8A6C53",
"D. c #A27345",
"F. c #B47E44",
"G. c #A77E53",
"H. c #816F60",
"J. c #847263",
"K. c #8A7665",
"L. c #8B7867",
"P. c #8D7A69",
"I. c #87776D",
"U. c #927E6B",
"Y. c #947C67",
"T. c #8C7F76",
"R. c #C54F54",
"E. c #76807D",
"W. c #95816E",
"Q. c #9A826C",
"!. c #9A8571",
"~. c #9E8974",
"^. c #9E8C7A",
"/. c #958271",
"(. c #A28467",
"). c #A18C76",
"_. c #A48F78",
"`. c #B49067",
"'. c #C48D50",
"]. c #C2925D",
"[. c #7C8683",
"{. c #7B8886",
"}. c #838B8A",
"|. c #868685",
" X c #9C8F81",
".X c #8C928E",
"XX c #85918F",
"oX c #9A928A",
"OX c #8B9592",
"+X c #929B98",
"@X c #A89D8E",
"#X c #98A19F",
"$X c #97A19D",
"%X c #A8A39B",
"&X c #9EA9A6",
"*X c #AAAFAB",
"=X c #A6ABA6",
"-X c #B1ACA2",
";X c #B2B3AD",
":X c #ACB5B1",
">X c #A7B0AB",
/* pixels */
"                                                < < < < < < < < < < < < < < < < < < < < < < < <                                 ",
"                                                < < < < < < < < < < < < < < < < < < < < < < < <                                 ",
"                                                < < < < < < < < < < < < < < < < < < < < < < < <                                 ",
"                                              < < : : : : : : : : : : : : : : : : : : : : : : < <                               ",
"                                          < < < : * * * * * * * * * * * * * * * * * * * * * * : < < <                           ",
"                                        < < < : * & & & & & & & & & & & & & & & & & & & & & & * : < < <                         ",
"                                        < < < : & & & & & & & & & & & & & & & = = - - = = & & * : < < <                         ",
"                                      < < : : * & & & & & & & & & & & & . & & - q w w q - & & * : < < <                         ",
"                                  < < < : * * & & & & & & & & & & & & . . . = 5 t k k t q = & * : < < 1                         ",
"                                < < < : * & & & & & & & & & & & & & & & & & - w k T T k w - & * : < < <                         ",
"                                < < < : * & & = = - - - = = = = = = = = - ; w k c ) _ b t ; = * * : : ,                         ",
"                                : : : * & & & - ; w w w q q 5 ; ; ; 5 w t k z c ( ) ( b y q - = & @ @ @ #                       ",
"                                * * * & @ & = ; t k k k g t u u w w t k c ) ] ] ) ( T l g u 5 - & . X O @ , <                   ",
"                                & & & & & & - w k T ( ( c l k g g k b ( @.&.&.#.] R c l l k t q & X X X @ , < 1                 ",
"                                & & & & = - q k T ] o.] ( c c T ( ' O.&.y.i.y.%.] R c R ' ' ( k ; . X X o , < 1                 ",
"                                + & = - ; w g c ] #.$.o.( T R o.6.g.k.l.k.z.i.%.' T R O.6.a.p.O.z * X O o , <                   ",
"                                . & = ; t k c ] $.&.&.#.) T ' 6.x..X+XOX{.k.u.$.) T ) 6.E..X}.s.` e @ O o                       ",
"                                o & - w k ( ] #.t.y.t.#.) R ] a..X=X:X&XXXl.y.#.( R ] a..X=X=X|.=.s , $                         ",
"                                : & - w k ) #.&.y.i.y.%.] ( o.a..X>X:X&XXXl.y.#.) ( o.g.OX=X=X|.*.h < #                         ",
"                              C 3 = - q l ) #.t.u.i.u.&.o.) o.u.[.+X$XOX{.k.u.$.] ) o.u.[.+XOXc.X.s 2 #                         ",
"                          R.N.I 0 : - q l ) #.t.u.i.i.5.#.] o.&.a.x.E.x.l.g.u.&.@.] o.&.g.x.k.*./ i < >                         ",
"                        R.V.N.U N 2 - q k ) #.&.y.i.i.t.%.o.o.#.%.5.y.u.i.i.i.t.$.@.o.#.&.&.%.` z 7 < >                         ",
"                        N.N.m.U V p e r z ( ] $.5.y.y.t.&.#.#.@.@.#.$.&.y.i.i.y.&.$.#.#.#.#.] v s 8 < >                         ",
"                      B I Y Y Y P V B M S v ^ ] #.&.t.t.t.&.%.$.#.#.$.&.y.i.i.i.y.t.%.%.$.#.] v s 8 < >                         ",
"                  & : 3 p N V P Y U Y I L h z v ] #.&.t.t.t.t.t.&.&.&.t.u.i.g.i.i.u.t.t.t.&.@.( j 8 < >                         ",
"                & & & * : 2 p V U m.m.U V p r n v ] #.&.t.y.i.i.i.i.i.i.i.i.i.i.i.i.i.i.i.i.&.[ z 7 < >                         ",
"                & & & % % & 2 B v.N.N.v.C 0 7 r z ( ] @.%.&.y.a.z.l.l.z.a.y.t.t.r.t.y.a.k.l.a.*.J i < >                         ",
"                  & & . + + < B v.C.N.U C 4 < 8 r z v v ( [ *.a.x.}.}.x.a.*.[ ` [ [ *.a.[.}.[.s.` a < >                         ",
"                                      P m 1 < < 8 e r r y z ` p.}.#X#X}.p.` z s s z ` p.}.#X+Xc.=.s < #                         ",
"                                        4 1 < 2 2 7 7 2 2 e J p..X*X*X.Xp.J e 2 2 e J p..X*X*X|.*.h < #                         ",
"                                        7 7 7 9 i a a 9 9 a H s.oX;X;XoXs.H a 3 3 a H s.oX;X*X|.3.h < #                         ",
"                                      8 i d d S D G G G D G ..f.oX-X-XoXf...G S S K -.j.oX-X%XT.=.d < $                         ",
"                                  # < e d F W  .:.<.<.<.<.2.9.I. X@X@X XI.9.2.<.<.4.0.P. X@X Xj.| a < #                         ",
"                                > < 7 d F | :.2.q.J.K.K.K.K.L.W.!.^.^.!.W.L.K.K.K.K.L./.^.^.U.8.W a < #                         ",
"                                9 a d F } ,.8.d.L.W.!.~.~.!.!.U.L.L.L.Y.Q.(.(.Q.Y.L.L.U.!.!.L.4.W d 7 2                         ",
"                              d S G W  .2.q.J.L.W.~.)._._.).!.L.w.e.e.A.(.`.`.(.A.0.0.Z.L.U.L.0. .G d i 7                       ",
"                          < a D } <.4.0.H.K.P.W.!.~.)._._.).W.w.<.} ~ S.G.].].G.S.;. .2.Z.U.U.J.2. .H x a 7 <                   ",
"                        # < a G :.w.K.U.U.U.W.W.W.!.!.~.~.!.K.4.W S Z ~ D.'.'.D.~ Z S { 4.K.U.J.9.,.| F d 7 < >                 ",
"                        # < a G <.J.U.U.U.K.K.K.K.K.K.L.L.K.0.-.S a p Q n.F.F.n.Q p a F -.0.J.J.q.2...H d 7 < >                 ",
"                        # < i G :.w.K.J.w.8.2.2.2.2.2.4.4.<.-.G a 2 4 A ! b.b.! A 4 2 a G -.2.8.7.2.+.E d 7 < >                 ",
"                        > < 9 D  .8.9.2.:.W H G G G G G H G D d 7 < 1 6 A Q Q A 6 1 < 7 f D K  .:.,.+.E d 7 < >                 ",
"                        > < 7 d W :.,...H d a i a a a a a a i 7 2 2 1 3 6 p p 6 3 1 < 1 7 a d G | +...E d 7 < >                 ",
"                        , < 7 d H } | H S i 7 7 7 7 7 7 7 7 7 7 7 7 7 2 1 < < 1 2 3 7 7 7 7 i S H | } H d 7 < ,                 ",
"                        < < 2 i d F H F x d s a s d d s s s s d d d a i 2 < < 2 9 a d d d d d S F H F d i 2 < <                 ",
"                        < < 1 7 i d d S S F H H H H H H H H H H H H F d 7 2 2 7 d F H H H H H F S d d i 7 1 < <                 ",
"                        < < < < 1 7 i d H | ..+.+...........+.+.+...} F a 7 7 a F } +.+.+...| H d a 7 1 2 < < <                 ",
"                        < < < < < < 7 d W :.2.2.2.1.,.1.2.2.2.7.7.2.:.E d 7 7 d E :.2.7.2.,...H d 7 < < < < < <                 ",
"                          < < # # > 7 S  .7.w.q.8.2.2.7.9.q.w.d.d.w.2. .S 9 9 S  .2.q.w.9.2.+.H d 7 < > > < <                   ",
"                              # # > 7 D :.w.J.h.9.2.2.8.w.J.K.L.L.K.q.:.D i i F :.q.J.J.q.2.+.H d 7 < > >                       ",
"                                > < a G <.J.L.J.q.2.2.9.J.L.W.!.!.U.J.<.D a a G <.J.L.L.w.2.+.H d 7 < >                         ",
"                                7 a M } 4.J.L.J.q.2.2.q.J.W.!.~.).!.K.<.G a a G 2.K.U.L.d.2...H d 7 < >                         ",
"                              d S G } :.8.H.J.w.8.2.2.q.J.W.~.)._.~.L.2.G a a G 4.L.W.P.h.2...H d 7 < #                         ",
"                          < a D } <.4.8.9.q.9.8.2.1.2.q.J.W.~.)._.~.L.4.G a a G 4.L.W.P.h.2...H d 2 < #                         ",
"                        # < a G <.w.J.J.w.8.2.1.,.1.2.q.J.U.!.~.~.!.K.<.G a a G 2.K.U.L.d.2.+.H d 7 < >                         ",
"                        # < a K 2.K.U.L.w.7.1.,.1.2.9.w.L.W.!.!.U.L.0.-.S i i D -.0.J.J.w.8.:.{ S a 7 2                         ",
"                        # < a K 4.L.W.L.w.2.1.1.7.9.w.J.U.W.U.L.Z.4.:.H d 7 7 d K :.2.8.q.q.8.:.W F d a i                       ",
"                        # < a K 4.L.W.L.w.2.2.7.q.J.L.U.W.W.U.Z.<.} D d 9 2 2 9 d D W :.8.w.w.9.,.| H S a 7 <                   ",
"                        # < a K 2.K.U.L.w.7.2.9.J.L.W.!.~.!.L.8.} S i 2 1 < < 1 2 i M } 4.J.L.J.9.:.| F d 7 < >                 ",
"                        # < a K 2.K.U.L.w.7.2.9.J.U.!.~.~.!.K.2.K a < > < < < < > < a K 4.K.U.L.w.2...H d 7 < >                 ",
"                          < a K 2.K.U.L.w.7.7.q.J.W.~.).).!.K.<.G 7 > # > < < > # > 9 G 4.L.W.U.J.7.+.H d 7 <                   ",
"                                                                                                                                ",
"                                                                                                                                ",
"                                                                                                                                ",
"                                                                                                                                "
};
