/* XPM */
static char *a69513df4dc64bd59f1f6dcc7c916350lqIaXu3dZjLBWf1h[] = {
/* columns rows colors chars-per-pixel */
"64 64 207 2 ",
"   c None",
".  c #2C1F1A",
"X  c #331E1A",
"o  c #2D221E",
"O  c #34221E",
"+  c #38241F",
"@  c #2F2521",
"#  c #2F2824",
"$  c #322622",
"%  c #3D2522",
"&  c #352925",
"*  c #3B2A25",
"=  c #352B29",
"-  c #3C2D2A",
";  c #3F302D",
":  c #3C3533",
">  c #353D3D",
",  c #3A3C3B",
"<  c #3B3835",
"1  c #422725",
"2  c #422A25",
"3  c #432D2A",
"4  c #4A2E2B",
"5  c #44322D",
"6  c #4B322D",
"7  c #4D3A2F",
"8  c #52352E",
"9  c #53382F",
"0  c #453432",
"q  c #4B3533",
"w  c #443936",
"e  c #4C3935",
"r  c #443C3A",
"t  c #4C3B3A",
"y  c #423638",
"u  c #533532",
"i  c #533A34",
"p  c #5B3B36",
"a  c #533D3A",
"s  c #5B3C3B",
"d  c #593636",
"f  c #613F38",
"g  c #4C413F",
"h  c #48413B",
"j  c #554136",
"k  c #53423D",
"l  c #5B433D",
"z  c #5C4639",
"x  c #62493D",
"c  c #60403D",
"v  c #453F40",
"b  c #643E41",
"n  c #703E43",
"m  c #374142",
"M  c #3C4242",
"N  c #3F4B4C",
"B  c #3E4847",
"V  c #3D5A60",
"C  c #454343",
"Z  c #4C4543",
"A  c #464946",
"S  c #4D4847",
"D  c #434B4B",
"F  c #4A4C4B",
"G  c #494748",
"H  c #554442",
"J  c #5C4542",
"K  c #5C4943",
"L  c #544C4B",
"P  c #5B4D4B",
"I  c #574945",
"U  c #5A534F",
"Y  c #55504D",
"T  c #464F50",
"R  c #455454",
"E  c #4B5353",
"W  c #465658",
"Q  c #4C5659",
"!  c #4B5A5C",
"~  c #535352",
"^  c #5B5452",
"/  c #535C5D",
"(  c #5C5C5B",
")  c #5B5956",
"_  c #644644",
"`  c #6C4545",
"'  c #634C44",
"]  c #6A4B45",
"[  c #634C4A",
"{  c #6C4D4B",
"}  c #744B4B",
"|  c #7C4D4E",
" . c #744548",
".. c #665046",
"X. c #6B5246",
"o. c #65524A",
"O. c #6C554C",
"+. c #6C584E",
"@. c #72534D",
"#. c #715B4F",
"$. c #7F4F51",
"%. c #615655",
"&. c #6D5451",
"*. c #6C5A53",
"=. c #625B5B",
"-. c #695C5B",
";. c #745452",
":. c #7C5453",
">. c #745B54",
",. c #745C5B",
"<. c #7B5C5A",
"1. c #7B5856",
"2. c #5E615F",
"3. c #6C635E",
"4. c #7C6357",
"5. c #75635C",
"6. c #7C6459",
"7. c #756456",
"8. c #4C5D62",
"9. c #515E61",
"0. c #595E61",
"q. c #4E6062",
"w. c #536366",
"e. c #5B6465",
"r. c #546669",
"t. c #5B6568",
"y. c #56696C",
"u. c #5A6B6D",
"i. c #5A6E72",
"p. c #566B70",
"a. c #5C7275",
"s. c #5F7579",
"d. c #636161",
"f. c #6B6362",
"g. c #656D6D",
"h. c #6C6B69",
"j. c #6A6966",
"k. c #7B6462",
"l. c #7A6967",
"z. c #76726E",
"x. c #636F71",
"c. c #607274",
"v. c #617679",
"b. c #63797D",
"n. c #757672",
"m. c #7A7773",
"M. c #747B7A",
"N. c #7E7D7A",
"B. c #7A7A77",
"V. c #815554",
"C. c #865C54",
"Z. c #895C59",
"A. c #8C645D",
"S. c #846B5D",
"D. c #86675A",
"F. c #926A5B",
"G. c #9D6D5D",
"H. c #A26F5F",
"J. c #856E64",
"K. c #856663",
"L. c #996B60",
"P. c #8D7163",
"I. c #86746B",
"U. c #937565",
"Y. c #95766C",
"T. c #997566",
"R. c #8B7E7A",
"E. c #BA7F6C",
"W. c #B57E6C",
"Q. c #A27864",
"!. c #84847E",
"~. c #AD806D",
"^. c #B4826E",
"/. c #BC8371",
"(. c #BC8875",
"). c #B48475",
"_. c #C48975",
"`. c #C88D78",
"'. c #D4957D",
"]. c #657D81",
"[. c #687D81",
"{. c #6B8183",
"}. c #748485",
"|. c #848584",
" X c #8B8A86",
".X c #868B89",
"XX c #8A908E",
"oX c #95928C",
"OX c #8A8F90",
"+X c #8D9090",
"@X c #989A9A",
"#X c #939795",
"$X c #A29C9A",
"%X c #A2A09C",
"&X c #9FA4A5",
"*X c #A4A4A4",
"=X c #A9ABAB",
"-X c #ABAAA7",
";X c #B2B1AE",
":X c #BBB8B5",
">X c #BBB9B9",
",X c #B6B6B5",
"<X c #CE9A83",
"1X c #D9AA90",
"2X c #D2A48A",
"3X c #E4AE91",
"4X c #C5C2C2",
/* pixels */
"                                                                                                                                ",
"                                                                                                                                ",
"                                                                                                                                ",
"                                                                                                                                ",
"                                                                                                                                ",
"                                                                                                                                ",
"                                                        O 2                                                                     ",
"                        @X                      X 2 6 8 8 i u 3                                                                 ",
"                      #X.X                    % % 6 2 6 8 i u 6                                                                 ",
"                      OXXX|.                  + 2 p F.~.Q.^.L.6 q                                                               ",
"                        B.h.                  u 9 Z.(.2X3X1X<X]                                                                 ",
"                          k I                   G._.W.^.'./.(.).                                                                ",
"                            k k                 >.E.'.'.`.<X`.3.                                                                ",
"                            w t e             N N A.E._././.*.V                                                                 ",
"                              w L   =X@X      w C P D.L.H.C.M 8.                                                                ",
"                              -X+X|.3.J J k a a s i k -.F.P.a.^ i a                                                             ",
"                            &XN.^ g k _ ;.;.;.[ P _ a a [ { &.} ` H a H t                                                       ",
"                        ,X*XG 0 6 5 e [ { O.,.,.=.=.J ;.{ k.K.;.;._ a a w K                                                     ",
"                            ( h.R.&.s i a k d.o.[ &.;.<.>.5.k.<.1.V. .s 3 P N.                                                  ",
"                            B.@X>XoXP t a _ J @.;.:.| :.V.V.1.:.Z.Z.| n q U !.                                                  ",
"                          n. X-X;X X) B r _ &.;.| C.C.V.:.;.K.,.f.l.} { Z A m.!.                                                ",
"                          n.oX:X%Xh.2.t.C H ,.,.} | | { >.*.l.k.>.&._ P C G z.N.                                                ",
"                          n.*X:X X( ^ H r H H b ` }  .} | } { :.$.| ` e : G ( d.                                                ",
"                          g..X#Xg.u.Q < = w 0 u _ @.;.;.*.d.t.e.L H a r D ! w.!                                                 ",
"                        r.y.a.v.a.u.! C = = 5 w S ) t.u.[.}.b.{.v.9.M , m ! r.r.w.                                              ",
"                        r.a.[.v.a.w.Q     D B R ! t.c.c.b.}.}.}.b.! R m > N y.y.Q                                               ",
"                      Q / 0.g.x.u.w.      R ! R E / u.a.v.b.M.M.x.y.! m > m Q F Z Z                                             ",
"                    t L _ { } ;.%.8.      L E R Q E ( w.a.[.u.2.( 9.T , > g { } ` [ H t                                         ",
"                    e I ] } ;.;.' S     ..x x ' o.%.Y ~ ~ =.d.S w g G & < J @.;.} _ J 0                                         ",
"                    0 a J J k.,.l 5   4.z j j z O.e 5 0 q l K g = r L =.Z e [ -.[ a s 5                                         ",
"                      q l J f.-.e 5   +.*.*.] X.z + 5 w r G G G ~ j.m.) F q e U =.J s                                           ",
"                      5 a J -.%.0   s j +...j i i i 6 C L g L g.}.^ l a C   5 H %.I q                                           ",
"                        q a %.=.e   J K z z l l i l w D D C F S w * 3 i w ,   t ^ P w 3                                         ",
"                        0 5 Z L e   r C k k I l i l r ! ! W R r * r < q i : y   w e 5 -                                         ",
"                        & 3 q q q   R R D h A D G F ! r.r.q.D r q e.r.r s I ! v q q b u                                         ",
"                        3 d b e X.^ ! y.y.y.a.a.p.a.v.u.a.a., 3 q t.].w.t _ t.f.,.e s u                                         ",
"                        3 d s >.Y.j.r.r.y.i.b.a.s.b.a.i.].w.@ 3 e w.b.[.9.) g.( J.;.a w                                         ",
"                          t J L.k.w./ F r.a.c.a.v.b.i.v.b.M . 6 q F a.b.s.9./ t.k.A.                                            ",
"                              <.d.u.r.w.i.t.( v.[.].s.[.9.# . u 3 @ E i.a.y.r.r.!                                               ",
"                                ! r.y.i.i.i.a.s.v.s.].s., . O u 3 . @ D u.y.! !                                                 ",
"                                  , F w.u.i.s.a.i.u.a.w.  . $ q - = O @ D D C                                                   ",
"                                    . & : C E 9.w.w.9.    o * 6 & - 0 - & $ h.                                                  ",
"                                    $ & $ o o o & = =     & 5 6 = - 0 5 - w $X>X                                                ",
"                                  & - = 5 5 & o o o       $ e q - 5 0 0 5 w >X4X                                                ",
"                                  = = = ; - 0 = $ $       o 5 i - 5 5 5 -     4X4X                                              ",
"                                  t $ & & & 0 w =         l 5 e 0 e j K o.                                                      ",
"                                I.o.& & & $ $ $ =       >.7.O.7 X.S.P.U.P.                                                      ",
"                              l.7.*.o.K l j k ..+.      4.S.S.O.#.S.U.4.X.                                                      ",
"                              S.J.S.P.Y.S.7.S.6.>.        O.P.P.P.U.@.6 O                                                       ",
"                              P.U.T.S.' 6 >.P.6.6.        O l D.D.x u p %                                                       ",
"                              F.F.@.i p i 7 S.D.          O 2 p i 5 i i                                                         ",
"                                6 6 9 f p 4 i               % 6 4 3 u s                                                         ",
"                                2 u d 8 1 %                   * 5 6 6 1                                                         ",
"                                3 u l i %                     % 6 p s 4                                                         ",
"                                q s i 5 %                     4 3 6 i i                                                         ",
"                                3 i i i 6                     % 2 u u d s                                                       ",
"                                % q 2 3 1                     5 l c _ +.6.+.J                                                   ",
"                                3 u 6 6 %                     K [ ' ' K l l K J l J                                             ",
"                                s X.>.' q                               ' &.+.*.&.                                              ",
"                              a l ' ..' i                                                                                       ",
"                              a a J o.K e                                                                                       ",
"                              [ ' o.>.'                                                                                         ",
"                                                                                                                                ",
"                                                                                                                                "
};
