/* XPM */
static char *db530c2890a94367a2fb030484373522ssMAHnw8X1TBQ4J0[] = {
/* columns rows colors chars-per-pixel */
"85 64 12 1 ",
"  c #020200",
". c #030200",
"X c #030301",
"o c #040301",
"O c #070302",
"+ c #040402",
"@ c #050402",
"# c #050503",
"$ c #060503",
"% c #060604",
"& c #070604",
"* c #080403",
/* pixels */
"XX++++++XX+++++XXXXXXXXX++XXXXXX++++++++o++++X++X+++++++++++++++&&&++++++++++++++++++",
"++++++XXXXX+++XXXXXXXXXXXXXXXXXXX++++++++++++XX+X+++++++++++++++&&+++++++++++++++++++",
"+++++XXXXXXXXXXXXXXXXXXXXXXXXXXXXXX+++++++++XXXXXX+++++++++++++++++++++++++++++++++++",
"+++++XXXXXXXXXXXXXXXXXXXXXXXXXXXXXXXo+++++++XXXXXX+++++++++++++++++++++++++++++++++++",
"XXX+++XXXXXXXXXXXXXXXXXXXXXXXXXXXXXXo++++++++XXXXXX++++++++++++++++++++++++++++++++++",
"XXX+++++XXXXXXX+XXXXXXXXXXXXXXXX++++++++++++++XXXXX++++++++++++++++++++++++++++++++++",
"XXX+XXXX+XXXXX++XXXXXXXXXXXXXXXX++++++++++++++++XXX++++++++++++++++++++++++++++++++++",
"++++XXXX++XXXX++XXXXXXXXXXXXXXXX++++++++++++++++XXXX+++++++++++++++++++++++++++++++++",
"XXXXXXXXXX++++++XXXXXX++XXXXXXX++++++++++++++++++++++ooooo+++++++++++++++++++++++++++",
"XXXXXXXXXXXXXXXXXXXXXX++XXXXXXX++++++++++++++++++++++ooooo+++++++++++++++++++++++++++",
"XXXXXXXXXXXXXXXXXXXXXX++XXXXXXX++++++++++++++++++++++ooooX+++++++++++++++++++++++++++",
"+++XXXXXXXXXXXXXXXXXXX+++XXXXX++++++++++++++++++++++++oooX+++++++++++++++++++++++++++",
"++++XXXX++++++++++++++oo+++ooo++++++++OOOO++++++++++++ooXXX++++++++++++++++++++++++++",
"+++++XXX++++++++++++++oo++++o+++++++++OOOO+++++++++++++o+XXX+++++++++++++++++++++++++",
"+++++XXX++++++++++++++oo++++++++++++++oOOo+++++++++++++++XXX+++++++++++++++++++++++++",
"+++++XXXXXXXXX++++++++oo++++++++++++++ooOo+++++++++++++++XXX++++++++++++XX+++++++++++",
"++++XXXXXXXXX+++++++++++++++++++XXXXo+++++ooOOOo******++++XXXXXX+++++++++++++++++++++",
"+++++XXXXXXXX++++++++ooo+++oooooXXXXo+++++oOOOOo******++++ooXXXXooXXXXXX+++++++++++++",
"+++++XXX+XXXX+++XXXXooooooooooooXXooooo+++++OOoo******+++++oXXXXooooXXXX+++++++++++&+",
"++++++++++XXXX++XXXXoooo+++++oooXXoooooo++++OOoo******+++++XXXXX+++++++++++++++++++&+",
"++++++++++XXXX++++++++++++++++++oooooooo++++++++ooO*+++++++oXXXX++++++++++++++++o++++",
"+++++++++++XXXX+++++++++++++ooooooooooooooo+++++oooo++++++++XXXXooooooXX+++++++++++++",
"+++++++++++XXXXXXXXXo+++ooooooooooooooooooo+++++++++++++++++oooooooooooo+++++++++++&+",
"+++++++++++XXXXXXXXXoooooooooooooooooooooooo++++oo++++++++++oooooooo++++++++++XXoo+++",
"++++++++++++++ooXXXXoooooooooooo++ooooooooooo+++++++++++++++ooo+oooo+++++++++++++++++",
"+++++++++++++oooXXXXoooooooooooo++ooooooooooo+++++++++++++++oo++ooo++++++++++++++++++",
"++++++++o+++oooo+XXXooo+oooooooo++ooooooXXXXXX+++ooo++++++++++++ooo++++++++++++++++++",
"+++++++++++++ooo+XXXooo+ooooooooooooooooXXXXXXXXooooo+++oo+++++++++++++++++++++++++++",
"+++++++++++++++++XXXooo+ooooooooooooooooXXXXXXXXooooo+++ooo++++++++++++++++++++++++++",
"+++++++++++++++++XXXooo+++ooooooooooooooXXXXXXXXoooooo++++o++++++++++++++++++++++++++",
"++++++++++++++++XXXXoooo++ooooooooooooooXXXXXXXXoooooo++++oo++++++++++++o++++++++++++",
"++++++++oo++++++XXXXoooo++ooooooooooooooXXXXXXXXoooooo++++oXoo+o++++++++ooo++++++++++",
"+++++++++++++++++++oooooooooooooXXXXXXXXXXXXXXXXXXooooooooo++++++++++++++++++++++++++",
"+++++++++++++++++++oooooooooooooXXXXXXXXXXXXXXXXXXooooooooo++++++++++++++++++++++++++",
"++++++++++++++++++++ooooooooooooXXXXXXXXXXXXXXXXXXXXoooooo++++oo+++++++++++++++++++++",
"+++++++++++++++++++++oooooooooooXXXXXXXXXXXXXXXXXXXXoooo+++++ooo+++++++++++++++++++++",
"+++++++++++++++++++++oooooooooooXXXXXXXXXXXXXXXXXXXXXXoo+++++ooo+++++++++++++++++++++",
"+++++++++++++++++++++ooXooooooooXXXXXXXXXXXXXXXXXXXXXXoooo++++oo+++++++++++++++++++++",
"++++++++++++++++++++++ooooooooooXXXXXXXXXXXXXXXXXXXXXXXXooo+++++o++++++++++++++++++++",
"+++++++++++++++++++++++oooooooooXXXXXXXXXXXXXXXXXXXXXXXXooo+++++oo+++++++++++++++++++",
"++++++++++++++++o+++++++oooooooXXXXXXXXXXXXXXXXXXXXXXXXXoooooo+++++++++o+++++++++++++",
"++++++++++++++++o++++++++++oooooXXXXXXXXXXXXXXXXXXXXXXXXoooooo+++++++++++++++++++++++",
"++++++++++++++++++++++oo+++oooooXXXXXXXXXXXXXXXXXXXXXXXXXXooooo+oo+++++++++++++++++++",
"++++++++++++++++++++++++ooooooooXXXXXXXXXXXXXXXXXXXXXXXXXXooooo+oo+++++++++++++++++++",
"++++++++++++++++++++++++ooooooooXXXXXXXXXXXXXXXXXXXXXXXXXXXXoooo++++++oo+++++++++++++",
"+++++++++++++++++++++++++++++oooXXXXXXXXXXXXXXXXXXXXXXXXXXXXoooo+++++ooo+++++++++++++",
"+++++++++++++++++++++++++++++oooXXXXXXXXXXXXXXXXXXXXXXXXXXXXXXoo++++++oo+++++++++++++",
"+++++++++++++++++++++++++oooooooXXXXXXXXXXXXXXXXXXXXXXXXXXXXXXooooo++++++++++++++++++",
"++++++++++++++++++++++++++++ooooXXXXXXXXXXXXXXXXXXXXXXXXoooooooo++++++++++++++++&++XX",
"++++++++++++++++++++++++++++ooooXXXXXXXXXXXXXXXXXXXXXXXXooooooooX++++++++++++++++++++",
"+++++++++++++++++++++++++++oooooXXXXXXXXXXXXXXXXXXXXXXXXooooooooXXXXXX+++++++++++++++",
"+++++++++++++++++++++++++++oooooXXXXXXXXXXXXXXXXXXXXXXXXooooooooXXXXXXXX+++++++++++++",
"+++++++++++++++++++++++o+oooooooXXXXXXXXXXXXXXXXXXXXXXXXooooooooXXXXXX+++++++++++++++",
"+++++++++++++++++++++++oooooooooXXXXXXXXXXXXXXXXXXXXXXXXooooooooXXXXX++++++++++++++++",
"+++++++&++++++++++++++ooooooooooXXXXXXXXXXXXXXXXXXXXXXXXooooooooXXX++++++++++++++++++",
"+++++++&++++++++++++++ooooooooooXXXXXXXXXXXXXXXXXXXXXXXXooooooooXXX+++++++++++++++++&",
"+++++++&++++++++++++++++++XXXXXXXXXXXXXXXXXXX+++XXXXXXXXooo+++oooo+++++++++++++++++++",
"++++++++++++++++++++++++++XXXXXXXXXXXXXXXXXXXXXXXX++++XXoo++++oo+++++++++++++++++++++",
"++++++++++++++++++++++++++XXXXXXXXXXXXXXXXXXXXXX++++++++oo+++++o+++++++++++++++++++++",
"++++++++++++++++++++++++++XXXXXXXXXXXXXXXXXXXXXX++XXXX++o+++++++++++++++++++++++++++&",
"+++++++++++++++++++++++++XXXXXXXXXXXXXXXXXXXXXXX++XXXX+++++++++++++++++++++++++++++++",
"++++++++++++++++++++++++XXXXXXXXXXXXXXXXXXXXXXXXXXXXXXXX+++++++++++++++++++++++++++++",
"++++++++++++++++++++++++XXXXXXXXXXXXXXXXXXXX++++XX++++oo+++++++++++++++++++++++++++++",
"++++++++++++++++++++++++XXXXXXX+XXXXXXXX+++++++++++++++++++++++++++++++++++++++++++&&"
};
