/* XPM */
static char *_e44a0ace8d149c892d9f7e47419d7431N7icVZXQLNpJMEH[] = {
/* columns rows colors chars-per-pixel */
"64 64 226 2 ",
"   c #36241D",
".  c #2F211B",
"X  c #3C2D24",
"o  c #372D25",
"O  c #3E3027",
"+  c #3E322A",
"@  c #442D23",
"#  c #4A2F25",
"$  c #423127",
"%  c #44342B",
"&  c #4B352B",
"*  c #45382E",
"=  c #4C392E",
"-  c #4B3227",
";  c #53392D",
":  c #54352B",
">  c #443A32",
",  c #4C3D33",
"<  c #443730",
"1  c #513D33",
"2  c #503F38",
"3  c #4E4037",
"4  c #4D423A",
"5  c #534136",
"6  c #5A4235",
"7  c #55443A",
"8  c #5B463B",
"9  c #5C493E",
"0  c #56483C",
"q  c #64483B",
"w  c #71513F",
"e  c #5C4C41",
"r  c #574A41",
"t  c #624D41",
"y  c #695848",
"u  c #745A4A",
"i  c #755548",
"p  c #755F50",
"a  c #6C6653",
"s  c #796A56",
"d  c #7C735D",
"f  c #86624F",
"g  c #886B56",
"h  c #936854",
"j  c #87735C",
"k  c #98745D",
"l  c #90604E",
"z  c #867C64",
"x  c #8B7B64",
"c  c #887660",
"v  c #9B7C64",
"b  c #977762",
"n  c #A77B65",
"m  c #B47A62",
"M  c #855948",
"N  c #8D846A",
"B  c #8A826A",
"V  c #92856B",
"C  c #93896E",
"Z  c #99866B",
"A  c #968C71",
"S  c #998E73",
"D  c #9B9176",
"F  c #9E9479",
"G  c #97917A",
"H  c #A2846A",
"J  c #AC846B",
"K  c #A38A6E",
"L  c #AB8A6E",
"P  c #A78167",
"I  c #B3856B",
"U  c #BB856B",
"Y  c #BB8369",
"T  c #A58E72",
"R  c #AC8D72",
"E  c #B48D73",
"W  c #BC8D72",
"Q  c #AB9275",
"!  c #A1977B",
"~  c #AB977B",
"^  c #A39A7E",
"/  c #AB9A7D",
"(  c #A39275",
")  c #B49275",
"_  c #BC9375",
"`  c #BB957A",
"'  c #B39B7D",
"]  c #BB9B7C",
"[  c #B59479",
"{  c #B7A07F",
"}  c #C2856B",
"|  c #C28A6E",
" . c #C48E73",
".. c #CD8D72",
"X. c #C39175",
"o. c #CD9175",
"O. c #C39379",
"+. c #CD9579",
"@. c #C49B7E",
"#. c #CB9A7D",
"$. c #D29376",
"%. c #D2967A",
"&. c #D49B7D",
"*. c #DA9C7D",
"=. c #D9967A",
"-. c #C7A07F",
";. c #A69C81",
":. c #AA9E82",
">. c #B29D81",
",. c #BB9E81",
"<. c #ACA184",
"1. c #ADA589",
"2. c #B4A384",
"3. c #BBA484",
"4. c #B5A886",
"5. c #BBA987",
"6. c #B4A589",
"7. c #B6AA8A",
"8. c #BCAC8B",
"9. c #BCA688",
"0. c #BEB18E",
"q. c #BAAB90",
"w. c #BDB191",
"e. c #C59D80",
"r. c #CD9D80",
"t. c #D29C82",
"y. c #DB9E83",
"u. c #C4A283",
"i. c #CCA384",
"p. c #C3AC8B",
"a. c #CBAC8B",
"s. c #C8A888",
"d. c #D3A384",
"f. c #DCA584",
"g. c #DDA68A",
"h. c #D3AC8B",
"j. c #DBAB8B",
"k. c #D5A789",
"l. c #C2B28E",
"z. c #CBB28E",
"x. c #D3B28E",
"c. c #DAB18E",
"v. c #C6AD91",
"b. c #C9AE91",
"n. c #DCAD90",
"m. c #C4B592",
"M. c #CBB592",
"N. c #C6B995",
"B. c #CBBB96",
"V. c #CEBD99",
"C. c #D3B493",
"Z. c #DBB392",
"A. c #D3BA96",
"S. c #DCBA96",
"D. c #D2BE9A",
"F. c #DBBC9A",
"G. c #D8B798",
"H. c #E4AB8B",
"J. c #ECAB8C",
"K. c #E4A586",
"L. c #E3B393",
"P. c #EBB393",
"I. c #ECBA95",
"U. c #E4BE9B",
"Y. c #EDBB9A",
"T. c #E3BB95",
"R. c #F3B898",
"E. c #F0AE8F",
"W. c #CEC19B",
"Q. c #D3C39D",
"!. c #DAC39E",
"~. c #D9C89F",
"^. c #E5C39D",
"/. c #EBC49D",
"(. c #E4C89F",
"). c #F6C19D",
"_. c #CEC2A0",
"`. c #D5C6A1",
"'. c #DAC6A1",
"]. c #D6C8A2",
"[. c #DBCBA4",
"{. c #DECEA9",
"}. c #D6CBA8",
"|. c #DED0A6",
" X c #DED0AA",
".X c #D5D2B1",
"XX c #E1C6A2",
"oX c #E3CCA5",
"OX c #EBCBA4",
"+X c #E2CEA9",
"@X c #EAC8A5",
"#X c #F1CAA6",
"$X c #F5CDA9",
"%X c #E3D0A6",
"&X c #E3D3AC",
"*X c #EAD4AC",
"=X c #E6D9AE",
"-X c #EAD9AE",
";X c #E8D1A7",
":X c #F3D3AB",
">X c #F3D9AE",
",X c #F7D3AB",
"<X c #E6D6B0",
"1X c #E8D7B1",
"2X c #E6DAB2",
"3X c #EBDBB4",
"4X c #EEDFB9",
"5X c #F6D5B2",
"6X c #F2DDB4",
"7X c #F2DFB9",
"8X c #FBDBB4",
"9X c #EEE1B6",
"0X c #EEE1BA",
"qX c #F2E1B6",
"wX c #F3E3BB",
"eX c #F6E8BE",
"rX c #FAEABE",
"tX c #FBE1B6",
"yX c #F5E6C0",
"uX c #F6EBC3",
"iX c #FBECC3",
"pX c #FAEBC4",
"aX c #FEF3C6",
"sX c #FDF4CA",
"dX c #FFFACE",
"fX c #FFFDD6",
/* pixels */
"a.*X6X+X'.oX*X;XoX'.'.`.oXD.M.z.z.z.D.D.8.T !.Q.D.A.l.M.l.l.p.u ' B.A.~.&X[.`.D.S.j.o.+.L.+./.*XoXoX!.D.D.A.M.M.!.!.!.s.S.OXe.i ",
"Q.|.[.V.`.qXwX3X3X{.4X*X[.V.N.0.m.B.W.8.^ P :X|.Q.V.V.N.V.N.^ 7 z.Q.Q.{.&X1X*X*X{.e...%.g.t.,X=X&X&X X[.Q.`.V.V.Q.W.V.Q.{.Q./ e ",
"M.V.V.Q.{.4X1X[.].4XqX`.m.N.8.4.2.E a.K I X.6X&X`.Q.Q.V.`.m.S 1 p.Q.`.[.&X&X*X1X].T ..K.H.5XwX[.[.{.`.`.Q.Q.Q.N.Q.B.V.V.N.l.! 0 ",
"M.Q.Q.`.{.7X4X1X3X4X[.`. X2.3.l.u.o.f._ *.*XwX+X[.Q.Q.Q.Q.l.F 7 3.V.1X+X4X3X3X4X`.m.r.5XyXsXwX{.&X`.`.&XQ.Q.[.Q.+XV.V.V.l.p.F 9 ",
"l.Q.Q.`.&X4X7X3X-X&XV.] ] ] d.Y #.I =.../.&X%X[.Q.Q.Q.Q.Q.l.;.9 a.3XqX3XqXqX3X1X[.`.Q ^.&X&X`.].qX&XwX&X[.[.].{.[.N.W.m.8.2.F 7 ",
"z.Q.V.V.Q.[.&X1XwX7X{.d.J.:X!.T./.+.o.T.-X[.[.Q.V.D.Q.Q.Q.m.^ 7 M.&X`.&X4X*X*X*X1X].e.J.k.F.G.d.D.{.qXqX3X5.C.`.2.<.~ K L R x 7 ",
"D.V.m.V.`.&X{.{.3X<X Xa.L.qX+XV.{.s.$./.M.B.3X{.Q.V.V.V.N.m.! 9 p.Q.V.Q.`.&X+X[.{.4X6X#X4XsXwX@XF.k.L.M.7.H =.3.3.O.i.x.*XM.g 8 ",
"s.N.m.[.*X[.~.Q.B.V.v.E %.G.1X[.&XB.%.} Y ^.wX&XQ.Q.Q.N.8.8.S 7 3.W.l.N.W.[.[.[.[.1XpXaXdXqX*X3XiX6XU.a.@.d.#XqX%X;XqX&X{.N.Z 5 ",
"d.] p.-XV.N.W.`.7.` n.J.P.@X-X+X&X Xx.j.T.6X&XQ.`.m.2.T E [ B 8 S.Q.N.Q.-X[.`.&X4X4XwX3XqXqXpX7X1X&X&X&X*X*XiX4X[.Q.Q.Q.V.l.D 7 ",
"~.-.f.&X2.@.a.Q E U.,X,X,X6X2X*X*X*X[.eXwX&X{.Q.m.m.J *.L.j.v 8 z.Q.V.Q.[.Q.&X4XyX3X1X3X3XqXwX1X[.N.>.] D.*X3X{.Q.Q.Q.V.V.N.S 9 ",
"M.Q.Z.d.O.L.h.&.7XsXpXfXwXoXoXB.2.{.[.Q.`.Q.Q.[.l.] u.6X9XB.x q S.Q.l.m.N.Q.[.1X4X3X&X3X3XqX1XQ.N.m.D.f.$XqX*X[.V.V.`.Q.V.l.F 7 ",
"A.V.}.x.J.E.L.8X7X1XqXyX1Xp.@Xu.X.S.Q.Q.D.V.Q.Q.N.E *X3X[.T c t a.Q.5.8.V.B.Q.{.3X*X&X3X3XqX[.Q.`.[.2Xa.,X3X[.[.Q.Q.[.Q.N.m.D 7 ",
"A.N.m.~ f.K.g.a.oX3X{.*XW.G.XXZ.r.:X3XQ.Q.V.V.l.l.) -X&XW.Q n 0 z.W.7.N.Q.[.[.`.*X&X3X*X{.1X[.N.Q.Q.V.Q.qX*X`.Q.`.Q.Q.V.m.l.S 7 ",
"5.4.4.) *.L.j.%.U.9.a.&X{.4X6XoXqX3X[.N.Q.V.V.m.4.u.&Xm.7.2.j , ' ( / Q.Q.Q.`.V.Q.*X&X&X+X{.m.7.8.m.V.[.&XQ.Q.Q.Q.V.B.N.8.5.A 7 ",
"K x z v n ,.^ H n v J / ;.1.F D S C N B C V N d j g j s s s 9 , x g K S B F F S ;.;.;.;.F F S S S D ! ^ ! ! F F D A C V N N a < ",
"q - : 6 1 , , 5 7 1 , * = , = X & & % % X $ X X X @ % % O O X , 8 , * * * 3 , 5 7 9 t 7 7 , 5 , 7 5 8 8 8 7 5 , % * , * * X   - ",
"x.H.I.&.O.oX&X+X!.!.'.A.F.%.n w C.D.A.M.!.F.A.A.M.D.!.Q.D.p.p.z.A.Q.A.A.`.&XoX'.+X*X+X[.{.D.5.w D.[.C.A.A.M.p.p.8.T v H v J i.(.",
"V.oXwX;XeXiX2X].[. XwXiXsXF.k : &X}.[. X{.Q.Q.Q.[.{.}.&XQ.m.V.Q.&X%X{.&X{.{.{.[.0X0X3XwX<X&X1.5 &X&X`.].Q.Q.Q.}./ ' oX6X&X+X&XV.",
"D.&XQ.}.*X{.`.[.1XyXeX3X4X1X/ ; L.[.D.Q.N.m.N.M.V.`.Q.Q.N.N.{.[.V.D.`.Q.Q.{.].8.M.&X3X1X`.].F 5 oX2XD.Q.Q.V.N.' 2.iX3X{.Q.V.B.m.",
"{.&XQ.[.1X&X[.qXaXpX3X3X&X{.D - g.3XV.8.0.Q.Q.Q.`.[.Q.Q.V.Q.%XQ.Q.Q.Q.[.{.&XB.6.oXU.0X3X[.}.:.1 +X3XQ.[.`.V.' C.sX&XQ.[.~.Q.Q.[.",
"{.&X{.4XiX4X6X3X3XqXeX1X*X3XF = g.*XQ.m.{.-X[.Q.[.Q.&X{.[.Q.V.Q.Q.Q.`.{.&X3Xm.v.F.y.,X1XW.Q.~ 8 '.4X*X4X*Xm.s.dX-XQ.`.`.{.[.Q.Q.",
"Q.{.{.*XqX4X4X{.&XwX4X[.1XqX;.6 u.>X`.Q.&XQ.Q.Q.V.V.[.Q.Q.Q.Q.Q.Q.{.[.Q.{.`.&XZ.F.wX:X-XQ.`.6.e '.qX3X3XwX6.{.eX[.V.`.m.Q.`.[.Q.",
"Q.Q.Q.&X[.[.Q.Q.{.+X*X&X[.[.F ; u.D.Q.Q.V.[.[.N.m.N.N.Q.Q.M.Q.Q.V.Q.Q.Q.Q.3XpXrXdXwX&X*X[.{.6.8 +X3X{.&X].p.;X*X[.Q.Q.V.qX3X+XQ.",
"Q.Q.Q.].`.[.[.Q.Q.Q.[.&X+XQ.S ; 3.s.~.V.V.m.V.V.N.{ p.%XN.8.Q.V.D.N.V.Q.[.eXiX4X*XwX&X`.[.&X<.8 +X&X[.Q.Q.`.t.tX}.`.Q.~.3X*X[.Q.",
"*X`.N.8.M.}.[.Q.Q.Q.{.3X3XQ.S = u.u.XXW.m.V.[.[.W.a.T.[.m.Q.Q.~.Q.N.Q.Q.N.3XeX3XqX4X&X{.&X+X^ 5 `.&X[.Q.m.[ /.eX&X[.Q.Q.{.{.[.{.",
"Q.`.Q.E $.s.].[.m.Q.Q.`.{.V.D ; p.3.*XV.N.`.~.V.Q./ r.&XQ.m.Q.[.D.N.Q.8.[.*X3X4X4X1X{.3X&X[.^ 5 D.{.V.<.p.J.Y.M.`.[.Q.Q.[.[.[.{.",
"V.[.[.L.P...k.p.p.Q.Q.Q.Q.Q.F 6 ' J A.N.Q.Q.`.l.N.[ /.9Xl.Q.*XQ.V.V.Q.V.{.[.[.[.{.qX4X1X{.&X;.5 D.[./ a.iX>X^.g.:X&X[.{.{.&X&XQ.",
"&X1X*X4X0X` } &.W ] %X[.`.V.S * 2.h.d.{.&X[.Q.V.Q.Q.XXa.N.qXQ.V.Q.[.&X~.Q.Q.[.[.`.&XeX3X[.[.:.3 D.N.R :XeX1X2XwXeX3X3X3X1X{.{.Q.",
"&X{.].1XQ.M...I.e.^.6X[.Q.`.S $ B.7.@.&X[.V.N.V.m.Q.C.h.*X[.V.V.m.B.`.V.N.N.Q.Q.V.[.3X3X{.V.;.0 M.w.u.eX&XqXqXqX{.{.1X3XqX3X{.`.",
"}.`.`.*X{.Q.x.OX{.3X*XB.Q.[.F * ' W (.Q.D.N.N.m.V.&XN.N.m.N.V.N.l.m.l.l.8.8.m.l.l.`.{.[.1X}.:.r p.W.b.+X&XqX&X&X}.&X*X[.&X&X[.W.",
"^ <.w.6.<.F <.4.^ F S N C C a X / k S S S V V A D S C z C C B A C N z z j z A S D ! F D ^ 1.B 4 / G b ~ <.<.^ F ;.;.;.F F ;.^ ! ",
"4 7 r 4 4 4 4 4 4 > + + o O X $ y % $ & & & $ $ % O X $ & @ = $ X $ X @ # ; 5 1 5 , = , , 7 , 8 p 7 8 q 7 , 8 8 t 9 7 1 3 4 7 4 ",
"p.M.`.[.D.M.N.m.D.D.`.Q.`.`.B.7.5.k S.!.a.x.z.z.M.z.p.a.z.z.p.u ,.T _ OX[.r.&.C.'.'.D.A.A.A.D.`./ q.wX3X&XXXF.S.A.A.!.D.B.p.>.e ",
"D.9X}.m.m.N.m.W.N.V.Q.Q.Q.m./ K P H.6XN.m.Q.Q.Q.Q.Q.Q.].Q.Q.F , ' V *X3XQ.B.g.f.z.*X}.`.{.2X].:.M.uXiXwX&X X[.Q.Q.Q.`.W.W.Q.^ > ",
"M.V.2.H O.` O.i.` C.Q.D.m.2.H T./.tXQ.8.[.Q.V.V.Q.V.V.Q.Q.l.z % T  X4X[.Q.[.{.A.d.M.N.0.D.].2.B.dXaX3X[.Q.Q.[.Q.W.:.` ] ' 8.x % ",
"j.V.`.@X).E.Y.5X7XH.^.&XN.v ^.qXQ.[.Q.Q.{.D.Q.Q.[.Q.Q.Q.V.2.y ; *X9XQ.`.{.*X`.`.XXd.#.k.U.C.D.sX4X6X4X}.{.&X&X&XB.s./.1X*X!.,., ",
"1XiXwX XeXrXiXsXiXpXL.D./ R qXQ.Q.Q.N.m.V.Q.Q.Q.Q.V.W.V.N.Z g t F.}.Q.Q.&X&X`.3XyXU.K.R.L.g.pXyX6X[.3X&X&X+X4X2X/ *XiXeX3XeX7.5 ",
"*X*X}.`.qXqX*X&XpXpX[.S.V.wX&X{.Q.N.5.p.XXV.B.0.0.( Q ' S S 2.8 A.[.Q.{.&X*X1X4X{.t.@Xi.y.P.U.oX X X<X1X&XW.Q.~ B.aX&X&X1X&X:.5 ",
"'.{.[.&XiX4X4XqXqX&X[.&X3XQ.V.Q.V.Q.!.;X%Xl.P O.X.u.Z.@.3.[.! 8 F.3X{.&XQ.{.qX3X3X:XL.E P.P.H.K.r.oX1X6X<XQ.e.^.aX4X*XqX1XV.D 5 ",
"+XQ.[.7XeXqXeXiXqX`.V.N.V.D.Q.D.[.Q.[.[.[.K t.,X/.>X3X*X&Xm.S 5 A.3X[.`.[.{.*X&X&X0XXXH.K.g.R.6XL.$X3X1XV.a.yXeX4X&XqXeX*XQ.F 5 ",
"&X}.[.*X*X6X4X*X+XV.Q.Q.m.N.D.Q.Q.V.m.0.S K rX|.|.&X~.Q.m.m.^ , M.[.N.[.&X`.+X`.{.{.Q.Q.c.R.R.;XB.L.B.>.b.sXiX&X4XqXpXyX1X`.F , ",
"{. X[.&X3X1X&X`.[.{.Q.~ 8.Q.V.Q.Q.l.2.) R 3X&X~.[.V.Q.B.N.N.F 5 M.[.[.[.Q.V.[.N.Q.+X[.[.*X:X,XP.@XiX6X>XeX*X4XqX4X4XeX4X3X&X^ , ",
"[.4X1X*X&X{.&X&X{.Q.l.k j.].Q.Q.Q.m.p.} /.=XQ.Q.V.V.Q.Q.m.m.F 5 z.Q.Q.Q.Q.V.`.Q.&X{.[.{.{.4X2XXXI.3X&X3X&X[.6XeX3XqX4X`.{.3X<.> ",
"`.0X3X[.Q.`.Q.[.[.D./ I $.s.Q.Q.V.m.8.d.>X[.W.Q.Q.Q.Q.D.V.m.S * p.Q.Q.[.`.{.[.{.%XQ.~.D.[.1X+X3XD.n.+X*X[.Q.&X&X&X4X*X[.[.&X<.* ",
"[.1X&X&X[.Q.Q.V.D.V.7.+.=.T.&XQ.m.8.B._ Z.].B.V.Q.Q.V.V.Q.B.S * p.Q.m.V.V.V.m.N.V.Q.[.V.Q.Q.[.Q.2.W OX*XV.Q.`.[.*X3X{.Q.[.].:., ",
"`.[.[.Q.`.V.V.N.m.m.m.~.XX&X~.N.V.m.l.L *X[.m.l.V.N.m.N.N.l.V O 5.Q.m.8.l.<.~ ~ 3.V.N.m.N.V.m.2.] +.#.!.V.Q.].[.1X[.D.V.V.V.F * ",
"2.:.! F F S F D S C S S D C N N N z a A <.S V B N N C V N B a O ( D C N B d g f v D S D S S N z C S b b V D S S D S S C N N s O ",
"y > > 4 7 , 4 7 0 3 * % O % & o X   X = & = $ X $ O $ X o X O , 0 * , = 1 = 8 9 q 1 8 8 5 1 = X X % % & # = * % & = = = % * * 2 ",
"!.B.N.!.D.`.D.D.D.D.p.5.8.3.Q q u.E z.z.x.z.p.3.!.l.5.M.5.3.8.8.u.] 3.K m o.*XD.oXe.U.!.A.!.M.u 3.&XXX+XU.g.F.'.+XoX'.!.[.[.D.D.",
"].Q.*X&X&X[.Q.W.8.8.4.! 2.4.V = 7.3._ N.N.V.Q.Q.[.m.W.Q.V.5.{ ] U h.h.W &.P.+XB.W.' 6X].W.N.;.5 z.].Q.].[.(.d.B.].`.].Q.Q.Q.Q.Q.",
"V.Q.&X`.Q.N.0.Z Z -.] ] W L g X R J m f.5.8.2.N.5.2.Q.Q.N.~ m } =.:X*X:X*X[.Q.Q.2.W D.m.<.7.F = a.N.m.V.V.Q.M.#.a.Q.N.l.m.N.V.D.",
"Q.{.&Xw.8./ V m.*X6X6X%X+X[.Z X  .K.f.Y  .J | Z.7.3.oXQ.Q.( m =.R.-X%X&XQ.[.[.Q.p.h.t.e. .h.F 1 M.V.N.{.[.[.Q.Q.d.!.].Q.`.V.Q.Q.",
"&X3X_.3.#. .OXrX[.{.{.{.[.B.F * C.:Xp.d.+.%.*.(.s.Y Z.W.7.k K./.6XQ.[.{.[.[.Q.V.N.&XS.j.g.L./ 1 M.Q.Q.`.Q.`.Q.Q.A.k.3.' 2.N.].[.",
"V.8.6.H.Y.g.iX3X{.`.[.`.W.V.C % D.~.N.{ J ..K.[.A.K.*.L L j.*X|.[.[.[.{.*X{.Q.V.Q.Q.3.Z.8X3XF 1 M.].V.Q.V.V.Q.Q.Q.@X>X3XF.a.M.Q.",
"m..XyX5X*X*XdXeX*XQ.V.Q.m.N.S & !.Q.4.J $.$.K.oXW.L | I.OX*X[.+X[.[.*X&X[.[.Q.Q.{.m.#.#X3Xv.b , z.Q.N.Q.Q.Q.Q.V.`.].9X3X&XoXT.F.",
"wXsXiXsXiXqX3XqX3X`.M.Q.Q.Q.D = '.B.( #.j.....i.L  .,X-X{.{.%XQ.[.+X{.[.[.Q.V.Q.&Xs.J.H.S.[ h = z.W.V.V.Q.D.Q.V.Q.V.Q.Q.[.3X4XqX",
"[.&X4X7X3X+X&X&X`.V.r.Y.<X*X/ = XXN.v L.&X#.} *...f.A.Q.Q.Q.V.V.Q.[.`.&X3X{.3XqX*Xu.H.@XP. .h - oX3XQ.N.Q.[.B.l.N.8.8.N.W.V.Q.`.",
"5.2.2.B.Q.{.2X{._.+Xa.K.j.[.! = !.N.@.d.A.V.f.| o.$.f.[.N.V.' 2.~.*X`.`.3X&XwX1X`.&Xg.j.i.y.v ; 4X&XV.Q.[.N.7.2.L n d.V.B.m.N.~ ",
"+.#.u. .k.S.m.Z.@X[.p.).H.[.D * Q.V.D.&X@.A.p...f.&.&.h.M.R U +.` p.m.m.`.}.3X0XsX].[ I.t.r.V 6 *XQ.N.Q.V.W.>.Y I.c.+.T.Q.V.Q I ",
"oX6X6X!.qXh.&.$X:XO.L.=XM.a.C % D.V.l.W.K T.Q.Z.#.U +...} U /.(.Z.+.h.@.j.L.pXeX3X`.S.iXXXO.H 6 oX}.V.Q.V.[.Q $.OX0.| :XB.I &.>X",
"N.N.V.0.V.D.I.5XoX=./.*X5.h.! % D.B.l.Q.] #.l.V.r.P.g...+.%.+XW.w.k.&.+.j.#XwX{.[.w.M.&X].s./ 6 XX X[.[.`.W.T &.OXm.#.x.5. .k.Q.",
"R Q.7.b U h.n.8X3XoX:X`.8.B.F $ D.N.m.B.5.m U.=XQ.*XV.c.Q.X.u.T ] ,.X.&.#XeX*XV.N.R *.` n k.1.= F.}.Q.V.Q.N.m.] L ) _ | X.U Y ) ",
"l g u C ' J 3.w.1.1.q.F D S s $ 8.S N C d f 2.F V S S D D j h g k j / :.6.q.^ A N b k v b J s * v.:.F S F S C V H k h f h f h M ",
".   = , , 7 8 7 9 t e 7 7 7 X - u = $ O O X X $ % $ X X $ $ * O O * , * , , > > , < , 0 8 8 = ; s 1 1 = * $ X & % % - @ @ @ X . "
};
